  0
SECTION
  2
HEADER
  9
$ACADVER
  1
AC1014
  9
$HANDSEED
  5
FFFF
  9
$MEASUREMENT
 70
     1
  0
ENDSEC
  0
SECTION
  2
TABLES
  0
TABLE
  2
VPORT
  5
8
330
0
100
AcDbSymbolTable
 70
     4
  0
VPORT
  5
2E
330
8
100
AcDbSymbolTableRecord
100
AcDbViewportTableRecord
  2
*ACTIVE
 70
     0
 10
0.0
 20
0.0
 11
1.0
 21
1.0
 12
210.0
 22
148.5
 13
0.0
 23
0.0
 14
10.0
 24
10.0
 15
10.0
 25
10.0
 16
0.0
 26
0.0
 36
1.0
 17
0.0
 27
0.0
 37
0.0
 40
341.0
 41
1.24
 42
50.0
 43
0.0
 44
0.0
 50
0.0
 51
0.0
 71
     0
 72
   100
 73
     1
 74
     3
 75
     0
 76
     0
 77
     0
 78
     0
  0
ENDTAB
  0
TABLE
  2
LTYPE
  5
5
330
0
100
AcDbSymbolTable
 70
     1
  0
LTYPE
  5
14
330
5
100
AcDbSymbolTableRecord
100
AcDbLinetypeTableRecord
  2
BYBLOCK
 70
     0
  3

 72
    65
 73
     0
 40
0.0
  0
LTYPE
  5
15
330
5
100
AcDbSymbolTableRecord
100
AcDbLinetypeTableRecord
  2
BYLAYER
 70
     0
  3

 72
    65
 73
     0
 40
0.0
  0
LTYPE
  5
16
330
5
100
AcDbSymbolTableRecord
100
AcDbLinetypeTableRecord
  2
CONTINUOUS
 70
     0
  3
Solid line
 72
    65
 73
     0
 40
0.0
  0
ENDTAB
  0
TABLE
  2
LAYER
  5
2
100
AcDbSymbolTable
 70
1
  0
LAYER
  5
50
100
AcDbSymbolTableRecord
100
AcDbLayerTableRecord
  2
0
 70
0
  6
CONTINUOUS
  0
ENDTAB
  0
TABLE
  2
STYLE
  5
3
330
0
100
AcDbSymbolTable
 70
     1
  0
STYLE
  5
11
330
3
100
AcDbSymbolTableRecord
100
AcDbTextStyleTableRecord
  2
STANDARD
 70
     0
 40
0.0
 41
1.0
 50
0.0
 71
     0
 42
2.5
  3
txt
  4

  0
ENDTAB
  0
TABLE
  2
VIEW
  5
6
330
0
100
AcDbSymbolTable
 70
     0
  0
ENDTAB
  0
TABLE
  2
UCS
  5
7
330
0
100
AcDbSymbolTable
 70
     0
  0
ENDTAB
  0
TABLE
  2
APPID
  5
9
330
0
100
AcDbSymbolTable
 70
     2
  0
APPID
  5
12
330
9
100
AcDbSymbolTableRecord
100
AcDbRegAppTableRecord
  2
ACAD
 70
     0
  0
ENDTAB
  0
TABLE
  2
DIMSTYLE
  5
A
330
0
100
AcDbSymbolTable
 70
     1
  0
DIMSTYLE
105
27
330
A
100
AcDbSymbolTableRecord
100
AcDbDimStyleTableRecord
  2
ISO-25
 70
     0
  3

  4

  5

  6

  7

 40
1.0
 41
2.5
 42
0.625
 43
3.75
 44
1.25
 45
0.0
 46
0.0
 47
0.0
 48
0.0
140
2.5
141
2.5
142
0.0
143
0.03937007874016
144
1.0
145
0.0
146
1.0
147
0.625
 71
     0
 72
     0
 73
     0
 74
     0
 75
     0
 76
     0
 77
     1
 78
     8
170
     0
171
     3
172
     1
173
     0
174
     0
175
     0
176
     0
177
     0
178
     0
270
     2
271
     2
272
     2
273
     2
274
     3
340
11
275
     0
280
     0
281
     0
282
     0
283
     0
284
     8
285
     0
286
     0
287
     3
288
     0
  0
ENDTAB
  0
TABLE
  2
BLOCK_RECORD
  5
1
330
0
100
AcDbSymbolTable
 70
     1
  0
BLOCK_RECORD
  5
1F
330
1
100
AcDbSymbolTableRecord
100
AcDbBlockTableRecord
  2
*MODEL_SPACE
  0
BLOCK_RECORD
  5
1B
330
1
100
AcDbSymbolTableRecord
100
AcDbBlockTableRecord
  2
*PAPER_SPACE
  0
ENDTAB
  0
ENDSEC
  0
SECTION
  2
BLOCKS
  0
BLOCK
  5
20
330
1F
100
AcDbEntity
  8
0
100
AcDbBlockBegin
  2
*MODEL_SPACE
 70
     0
 10
0.0
 20
0.0
 30
0.0
  3
*MODEL_SPACE
  1

  0
ENDBLK
  5
21
330
1F
100
AcDbEntity
  8
0
100
AcDbBlockEnd
  0
BLOCK
  5
1C
330
1B
100
AcDbEntity
 67
     1
  8
0
100
AcDbBlockBegin
  2
*PAPER_SPACE
  1

  0
ENDBLK
  5
1D
330
1B
100
AcDbEntity
 67
     1
  8
0
100
AcDbBlockEnd
  0
ENDSEC
  0
SECTION
  2
ENTITIES
  0
SPLINE
  5
100
100
AcDbEntity
  8
0
 62
7
100
AcDbSpline
 70
8
 71
3
 72
8
 73
4
 74
0
 40
0
 40
0
 40
0
 40
0
 40
1
 40
1
 40
1
 40
1
 10
48.832756
 20
9.467238
 30
0.0
 10
48.209702
 20
9.682009
 30
0.0
 10
46.884536
 20
10.324236
 30
0.0
 10
45.887939
 20
10.894401
 30
0.0
  0
SPLINE
  5
101
100
AcDbEntity
  8
0
 62
7
100
AcDbSpline
 70
8
 71
3
 72
8
 73
4
 74
0
 40
0
 40
0
 40
0
 40
0
 40
1
 40
1
 40
1
 40
1
 10
45.887939
 20
10.894401
 30
0.0
 10
43.296030
 20
12.377276
 30
0.0
 10
41.415826
 20
12.480016
 30
0.0
 10
38.864300
 20
11.278207
 30
0.0
  0
SPLINE
  5
102
100
AcDbEntity
  8
0
 62
7
100
AcDbSpline
 70
8
 71
3
 72
8
 73
4
 74
0
 40
0
 40
0
 40
0
 40
0
 40
1
 40
1
 40
1
 40
1
 10
38.864300
 20
11.278207
 30
0.0
 10
35.878522
 20
9.871854
 30
0.0
 10
33.097769
 20
9.883007
 30
0.0
 10
29.989568
 20
11.313801
 30
0.0
  0
SPLINE
  5
103
100
AcDbEntity
  8
0
 62
7
100
AcDbSpline
 70
8
 71
3
 72
8
 73
4
 74
0
 40
0
 40
0
 40
0
 40
0
 40
1
 40
1
 40
1
 40
1
 10
29.989568
 20
11.313801
 30
0.0
 10
28.501292
 20
11.998898
 30
0.0
 10
26.898442
 20
13.587764
 30
0.0
 10
26.183272
 20
15.086892
 30
0.0
  0
SPLINE
  5
104
100
AcDbEntity
  8
0
 62
7
100
AcDbSpline
 70
8
 71
3
 72
8
 73
4
 74
0
 40
0
 40
0
 40
0
 40
0
 40
1
 40
1
 40
1
 40
1
 10
26.183272
 20
15.086892
 30
0.0
 10
25.000561
 20
17.566067
 30
0.0
 10
23.128945
 20
18.755591
 30
0.0
 10
20.004153
 20
19.014084
 30
0.0
  0
SPLINE
  5
105
100
AcDbEntity
  8
0
 62
7
100
AcDbSpline
 70
8
 71
3
 72
8
 73
4
 74
0
 40
0
 40
0
 40
0
 40
0
 40
1
 40
1
 40
1
 40
1
 10
20.004153
 20
19.014084
 30
0.0
 10
17.454399
 20
19.225009
 30
0.0
 10
15.575344
 20
20.008153
 30
0.0
 10
13.989029
 20
21.521039
 30
0.0
  0
SPLINE
  5
106
100
AcDbEntity
  8
0
 62
7
100
AcDbSpline
 70
8
 71
3
 72
8
 73
4
 74
0
 40
0
 40
0
 40
0
 40
0
 40
1
 40
1
 40
1
 40
1
 10
13.989029
 20
21.521039
 30
0.0
 10
11.857787
 20
23.553629
 30
0.0
 10
11.313211
 20
24.883855
 30
0.0
 10
11.297839
 20
28.094759
 30
0.0
  0
SPLINE
  5
107
100
AcDbEntity
  8
0
 62
7
100
AcDbSpline
 70
8
 71
3
 72
8
 73
4
 74
0
 40
0
 40
0
 40
0
 40
0
 40
1
 40
1
 40
1
 40
1
 10
11.297839
 20
28.094759
 30
0.0
 10
11.287789
 20
30.194504
 30
0.0
 10
11.159477
 20
31.052409
 30
0.0
 10
10.745568
 20
31.787318
 30
0.0
  0
SPLINE
  5
108
100
AcDbEntity
  8
0
 62
7
100
AcDbSpline
 70
8
 71
3
 72
8
 73
4
 74
0
 40
0
 40
0
 40
0
 40
0
 40
1
 40
1
 40
1
 40
1
 10
10.745568
 20
31.787318
 30
0.0
 10
10.004967
 20
33.102279
 30
0.0
 10
9.137967
 20
33.930957
 30
0.0
 10
7.961322
 20
34.448496
 30
0.0
  0
SPLINE
  5
109
100
AcDbEntity
  8
0
 62
7
100
AcDbSpline
 70
8
 71
3
 72
8
 73
4
 74
0
 40
0
 40
0
 40
0
 40
0
 40
1
 40
1
 40
1
 40
1
 10
7.961322
 20
34.448496
 30
0.0
 10
6.770011
 20
34.972487
 30
0.0
 10
4.867865
 20
37.122642
 30
0.0
 10
4.330158
 20
38.553108
 30
0.0
  0
SPLINE
  5
10a
100
AcDbEntity
  8
0
 62
7
100
AcDbSpline
 70
8
 71
3
 72
8
 73
4
 74
0
 40
0
 40
0
 40
0
 40
0
 40
1
 40
1
 40
1
 40
1
 10
4.330158
 20
38.553108
 30
0.0
 10
4.117291
 20
39.119395
 30
0.0
 10
3.940377
 20
40.639272
 30
0.0
 10
3.937015
 20
41.930616
 30
0.0
  0
SPLINE
  5
10b
100
AcDbEntity
  8
0
 62
7
100
AcDbSpline
 70
8
 71
3
 72
8
 73
4
 74
0
 40
0
 40
0
 40
0
 40
0
 40
1
 40
1
 40
1
 40
1
 10
3.937015
 20
41.930616
 30
0.0
 10
3.931269
 20
44.134811
 30
0.0
 10
3.992489
 20
44.369183
 30
0.0
 10
4.937175
 20
45.759937
 30
0.0
  0
SPLINE
  5
10c
100
AcDbEntity
  8
0
 62
7
100
AcDbSpline
 70
8
 71
3
 72
8
 73
4
 74
0
 40
0
 40
0
 40
0
 40
0
 40
1
 40
1
 40
1
 40
1
 10
4.937175
 20
45.759937
 30
0.0
 10
6.599372
 20
48.207004
 30
0.0
 10
6.833206
 20
48.779323
 30
0.0
 10
6.820597
 20
50.369716
 30
0.0
  0
SPLINE
  5
10d
100
AcDbEntity
  8
0
 62
7
100
AcDbSpline
 70
8
 71
3
 72
8
 73
4
 74
0
 40
0
 40
0
 40
0
 40
0
 40
1
 40
1
 40
1
 40
1
 10
6.820597
 20
50.369716
 30
0.0
 10
6.811674
 20
51.496022
 30
0.0
 10
6.568995
 20
52.353072
 30
0.0
 10
5.886366
 20
53.669150
 30
0.0
  0
SPLINE
  5
10e
100
AcDbEntity
  8
0
 62
7
100
AcDbSpline
 70
8
 71
3
 72
8
 73
4
 74
0
 40
0
 40
0
 40
0
 40
0
 40
1
 40
1
 40
1
 40
1
 10
5.886366
 20
53.669150
 30
0.0
 10
4.380490
 20
56.572407
 30
0.0
 10
4.704756
 20
59.646055
 30
0.0
 10
6.825625
 20
62.572217
 30
0.0
  0
SPLINE
  5
10f
100
AcDbEntity
  8
0
 62
7
100
AcDbSpline
 70
8
 71
3
 72
8
 73
4
 74
0
 40
0
 40
0
 40
0
 40
0
 40
1
 40
1
 40
1
 40
1
 10
6.825625
 20
62.572217
 30
0.0
 10
7.380101
 20
63.337223
 30
0.0
 10
8.321241
 20
64.013588
 30
0.0
 10
10.048707
 20
64.888528
 30
0.0
  0
SPLINE
  5
110
100
AcDbEntity
  8
0
 62
7
100
AcDbSpline
 70
8
 71
3
 72
8
 73
4
 74
0
 40
0
 40
0
 40
0
 40
0
 40
1
 40
1
 40
1
 40
1
 10
10.048707
 20
64.888528
 30
0.0
 10
12.119035
 20
65.937122
 30
0.0
 10
12.627982
 20
66.340426
 30
0.0
 10
13.408576
 20
67.550990
 30
0.0
  0
SPLINE
  5
111
100
AcDbEntity
  8
0
 62
7
100
AcDbSpline
 70
8
 71
3
 72
8
 73
4
 74
0
 40
0
 40
0
 40
0
 40
0
 40
1
 40
1
 40
1
 40
1
 10
13.408576
 20
67.550990
 30
0.0
 10
14.146588
 20
68.695519
 30
0.0
 10
14.356210
 20
69.370705
 30
0.0
 10
14.468528
 20
70.965088
 30
0.0
  0
SPLINE
  5
112
100
AcDbEntity
  8
0
 62
7
100
AcDbSpline
 70
8
 71
3
 72
8
 73
4
 74
0
 40
0
 40
0
 40
0
 40
0
 40
1
 40
1
 40
1
 40
1
 10
14.468528
 20
70.965088
 30
0.0
 10
14.632911
 20
73.298527
 30
0.0
 10
15.276834
 20
74.607062
 30
0.0
 10
17.116016
 20
76.345121
 30
0.0
  0
SPLINE
  5
113
100
AcDbEntity
  8
0
 62
7
100
AcDbSpline
 70
8
 71
3
 72
8
 73
4
 74
0
 40
0
 40
0
 40
0
 40
0
 40
1
 40
1
 40
1
 40
1
 10
17.116016
 20
76.345121
 30
0.0
 10
19.115261
 20
78.234441
 30
0.0
 10
20.806148
 20
78.837900
 30
0.0
 10
24.009399
 20
78.805301
 30
0.0
  0
SPLINE
  5
114
100
AcDbEntity
  8
0
 62
7
100
AcDbSpline
 70
8
 71
3
 72
8
 73
4
 74
0
 40
0
 40
0
 40
0
 40
0
 40
1
 40
1
 40
1
 40
1
 10
24.009399
 20
78.805301
 30
0.0
 10
27.929873
 20
78.765394
 30
0.0
 10
29.270271
 20
79.370956
 30
0.0
 10
31.107566
 20
82.012084
 30
0.0
  0
SPLINE
  5
115
100
AcDbEntity
  8
0
 62
7
100
AcDbSpline
 70
8
 71
3
 72
8
 73
4
 74
0
 40
0
 40
0
 40
0
 40
0
 40
1
 40
1
 40
1
 40
1
 10
31.107566
 20
82.012084
 30
0.0
 10
32.182184
 20
83.556850
 30
0.0
 10
34.229071
 20
84.966169
 30
0.0
 10
36.078699
 20
85.434797
 30
0.0
  0
SPLINE
  5
116
100
AcDbEntity
  8
0
 62
7
100
AcDbSpline
 70
8
 71
3
 72
8
 73
4
 74
0
 40
0
 40
0
 40
0
 40
0
 40
1
 40
1
 40
1
 40
1
 10
36.078699
 20
85.434797
 30
0.0
 10
36.737507
 20
85.601714
 30
0.0
 10
38.153061
 20
85.735095
 30
0.0
 10
39.224368
 20
85.731200
 30
0.0
  0
SPLINE
  5
117
100
AcDbEntity
  8
0
 62
7
100
AcDbSpline
 70
8
 71
3
 72
8
 73
4
 74
0
 40
0
 40
0
 40
0
 40
0
 40
1
 40
1
 40
1
 40
1
 10
39.224368
 20
85.731200
 30
0.0
 10
41.265562
 20
85.723778
 30
0.0
 10
42.186338
 20
85.408553
 30
0.0
 10
45.002710
 20
83.753023
 30
0.0
  0
SPLINE
  5
118
100
AcDbEntity
  8
0
 62
7
100
AcDbSpline
 70
8
 71
3
 72
8
 73
4
 74
0
 40
0
 40
0
 40
0
 40
0
 40
1
 40
1
 40
1
 40
1
 10
45.002710
 20
83.753023
 30
0.0
 10
46.949129
 20
82.608874
 30
0.0
 10
48.871748
 20
82.624651
 30
0.0
 10
51.540870
 20
83.806676
 30
0.0
  0
SPLINE
  5
119
100
AcDbEntity
  8
0
 62
7
100
AcDbSpline
 70
8
 71
3
 72
8
 73
4
 74
0
 40
0
 40
0
 40
0
 40
0
 40
1
 40
1
 40
1
 40
1
 10
51.540870
 20
83.806676
 30
0.0
 10
56.279124
 20
85.905027
 30
0.0
 10
61.630264
 20
84.240359
 30
0.0
 10
63.978931
 20
79.937364
 30
0.0
  0
SPLINE
  5
11a
100
AcDbEntity
  8
0
 62
7
100
AcDbSpline
 70
8
 71
3
 72
8
 73
4
 74
0
 40
0
 40
0
 40
0
 40
0
 40
1
 40
1
 40
1
 40
1
 10
63.978931
 20
79.937364
 30
0.0
 10
65.554346
 20
77.051044
 30
0.0
 10
67.044392
 20
76.105204
 30
0.0
 10
70.297511
 20
75.926496
 30
0.0
  0
SPLINE
  5
11b
100
AcDbEntity
  8
0
 62
7
100
AcDbSpline
 70
8
 71
3
 72
8
 73
4
 74
0
 40
0
 40
0
 40
0
 40
0
 40
1
 40
1
 40
1
 40
1
 10
70.297511
 20
75.926496
 30
0.0
 10
73.846958
 20
75.731511
 30
0.0
 10
76.458532
 20
74.124061
 30
0.0
 10
78.239925
 20
71.037854
 30
0.0
  0
SPLINE
  5
11c
100
AcDbEntity
  8
0
 62
7
100
AcDbSpline
 70
8
 71
3
 72
8
 73
4
 74
0
 40
0
 40
0
 40
0
 40
0
 40
1
 40
1
 40
1
 40
1
 10
78.239925
 20
71.037854
 30
0.0
 10
78.768290
 20
70.122474
 30
0.0
 10
78.872667
 20
69.474642
 30
0.0
 10
78.878930
 20
67.071771
 30
0.0
  0
SPLINE
  5
11d
100
AcDbEntity
  8
0
 62
7
100
AcDbSpline
 70
8
 71
3
 72
8
 73
4
 74
0
 40
0
 40
0
 40
0
 40
0
 40
1
 40
1
 40
1
 40
1
 10
78.878930
 20
67.071771
 30
0.0
 10
78.885844
 20
64.425020
 30
0.0
 10
78.951274
 20
64.097408
 30
0.0
 10
79.713430
 20
62.894424
 30
0.0
  0
SPLINE
  5
11e
100
AcDbEntity
  8
0
 62
7
100
AcDbSpline
 70
8
 71
3
 72
8
 73
4
 74
0
 40
0
 40
0
 40
0
 40
0
 40
1
 40
1
 40
1
 40
1
 10
79.713430
 20
62.894424
 30
0.0
 10
80.176178
 20
62.164022
 30
0.0
 10
81.085662
 20
61.264255
 30
0.0
 10
81.778280
 20
60.851629
 30
0.0
  0
SPLINE
  5
11f
100
AcDbEntity
  8
0
 62
7
100
AcDbSpline
 70
8
 71
3
 72
8
 73
4
 74
0
 40
0
 40
0
 40
0
 40
0
 40
1
 40
1
 40
1
 40
1
 10
81.778280
 20
60.851629
 30
0.0
 10
84.857257
 20
59.017349
 30
0.0
 10
86.133311
 20
56.994586
 30
0.0
 10
86.349857
 20
53.604919
 30
0.0
  0
SPLINE
  5
120
100
AcDbEntity
  8
0
 62
7
100
AcDbSpline
 70
8
 71
3
 72
8
 73
4
 74
0
 40
0
 40
0
 40
0
 40
0
 40
1
 40
1
 40
1
 40
1
 10
86.349857
 20
53.604919
 30
0.0
 10
86.502059
 20
51.222413
 30
0.0
 10
86.245387
 20
50.393479
 30
0.0
 10
84.739810
 20
48.405257
 30
0.0
  0
SPLINE
  5
121
100
AcDbEntity
  8
0
 62
7
100
AcDbSpline
 70
8
 71
3
 72
8
 73
4
 74
0
 40
0
 40
0
 40
0
 40
0
 40
1
 40
1
 40
1
 40
1
 10
84.739810
 20
48.405257
 30
0.0
 10
83.653466
 20
46.970665
 30
0.0
 10
83.039901
 20
44.967299
 30
0.0
 10
83.322118
 20
43.776310
 30
0.0
  0
SPLINE
  5
122
100
AcDbEntity
  8
0
 62
7
100
AcDbSpline
 70
8
 71
3
 72
8
 73
4
 74
0
 40
0
 40
0
 40
0
 40
0
 40
1
 40
1
 40
1
 40
1
 10
83.322118
 20
43.776310
 30
0.0
 10
83.422973
 20
43.350691
 30
0.0
 10
83.909405
 20
42.253233
 30
0.0
 10
84.403082
 20
41.337515
 30
0.0
  0
SPLINE
  5
123
100
AcDbEntity
  8
0
 62
7
100
AcDbSpline
 70
8
 71
3
 72
8
 73
4
 74
0
 40
0
 40
0
 40
0
 40
0
 40
1
 40
1
 40
1
 40
1
 10
84.403082
 20
41.337515
 30
0.0
 10
85.233775
 20
39.796675
 30
0.0
 10
85.290903
 20
39.506121
 30
0.0
 10
85.169516
 20
37.439465
 30
0.0
  0
SPLINE
  5
124
100
AcDbEntity
  8
0
 62
7
100
AcDbSpline
 70
8
 71
3
 72
8
 73
4
 74
0
 40
0
 40
0
 40
0
 40
0
 40
1
 40
1
 40
1
 40
1
 10
85.169516
 20
37.439465
 30
0.0
 10
84.953537
 20
33.762357
 30
0.0
 10
83.434013
 20
31.535093
 30
0.0
 10
80.065180
 20
29.957689
 30
0.0
  0
SPLINE
  5
125
100
AcDbEntity
  8
0
 62
7
100
AcDbSpline
 70
8
 71
3
 72
8
 73
4
 74
0
 40
0
 40
0
 40
0
 40
0
 40
1
 40
1
 40
1
 40
1
 10
80.065180
 20
29.957689
 30
0.0
 10
77.072798
 20
28.556557
 30
0.0
 10
76.083058
 20
27.204312
 30
0.0
 10
75.786759
 20
24.112248
 30
0.0
  0
SPLINE
  5
126
100
AcDbEntity
  8
0
 62
7
100
AcDbSpline
 70
8
 71
3
 72
8
 73
4
 74
0
 40
0
 40
0
 40
0
 40
0
 40
1
 40
1
 40
1
 40
1
 10
75.786759
 20
24.112248
 30
0.0
 10
75.546704
 20
21.607128
 30
0.0
 10
74.645836
 20
19.790221
 30
0.0
 10
72.985390
 20
18.462317
 30
0.0
  0
SPLINE
  5
127
100
AcDbEntity
  8
0
 62
7
100
AcDbSpline
 70
8
 71
3
 72
8
 73
4
 74
0
 40
0
 40
0
 40
0
 40
0
 40
1
 40
1
 40
1
 40
1
 10
72.985390
 20
18.462317
 30
0.0
 10
70.739528
 20
16.666252
 30
0.0
 10
69.780712
 20
16.354586
 30
0.0
 10
66.026092
 20
16.200202
 30
0.0
  0
SPLINE
  5
128
100
AcDbEntity
  8
0
 62
7
100
AcDbSpline
 70
8
 71
3
 72
8
 73
4
 74
0
 40
0
 40
0
 40
0
 40
0
 40
1
 40
1
 40
1
 40
1
 10
66.026092
 20
16.200202
 30
0.0
 10
62.950429
 20
16.073735
 30
0.0
 10
62.491256
 20
15.986636
 30
0.0
 10
61.413593
 20
15.325293
 30
0.0
  0
SPLINE
  5
129
100
AcDbEntity
  8
0
 62
7
100
AcDbSpline
 70
8
 71
3
 72
8
 73
4
 74
0
 40
0
 40
0
 40
0
 40
0
 40
1
 40
1
 40
1
 40
1
 10
61.413593
 20
15.325293
 30
0.0
 10
60.755352
 20
14.921340
 30
0.0
 10
59.632192
 20
13.813573
 30
0.0
 10
58.917688
 20
12.863587
 30
0.0
  0
SPLINE
  5
12a
100
AcDbEntity
  8
0
 62
7
100
AcDbSpline
 70
8
 71
3
 72
8
 73
4
 74
0
 40
0
 40
0
 40
0
 40
0
 40
1
 40
1
 40
1
 40
1
 10
58.917688
 20
12.863587
 30
0.0
 10
57.851336
 20
11.445804
 30
0.0
 10
57.276661
 20
10.977502
 30
0.0
 10
55.710193
 20
10.249806
 30
0.0
  0
SPLINE
  5
12b
100
AcDbEntity
  8
0
 62
7
100
AcDbSpline
 70
8
 71
3
 72
8
 73
4
 74
0
 40
0
 40
0
 40
0
 40
0
 40
1
 40
1
 40
1
 40
1
 10
55.710193
 20
10.249806
 30
0.0
 10
53.403500
 20
9.178242
 30
0.0
 10
50.597401
 20
8.858941
 30
0.0
 10
48.832756
 20
9.467238
 30
0.0
  0
SPLINE
  5
12c
100
AcDbEntity
  8
0
 62
7
100
AcDbSpline
 70
8
 71
3
 72
8
 73
4
 74
0
 40
0
 40
0
 40
0
 40
0
 40
1
 40
1
 40
1
 40
1
 10
55.145141
 20
10.484756
 30
0.0
 10
56.705782
 20
11.107050
 30
0.0
 10
57.698632
 20
11.971861
 30
0.0
 10
59.066083
 20
13.900048
 30
0.0
  0
SPLINE
  5
12d
100
AcDbEntity
  8
0
 62
7
100
AcDbSpline
 70
8
 71
3
 72
8
 73
4
 74
0
 40
0
 40
0
 40
0
 40
0
 40
1
 40
1
 40
1
 40
1
 10
59.066083
 20
13.900048
 30
0.0
 10
59.718485
 20
14.819966
 30
0.0
 10
60.474487
 20
15.444851
 30
0.0
 10
61.581719
 20
15.979380
 30
0.0
  0
SPLINE
  5
12e
100
AcDbEntity
  8
0
 62
7
100
AcDbSpline
 70
8
 71
3
 72
8
 73
4
 74
0
 40
0
 40
0
 40
0
 40
0
 40
1
 40
1
 40
1
 40
1
 10
61.581719
 20
15.979380
 30
0.0
 10
62.993050
 20
16.660712
 30
0.0
 10
63.472935
 20
16.743849
 30
0.0
 10
66.008131
 20
16.746231
 30
0.0
  0
SPLINE
  5
12f
100
AcDbEntity
  8
0
 62
7
100
AcDbSpline
 70
8
 71
3
 72
8
 73
4
 74
0
 40
0
 40
0
 40
0
 40
0
 40
1
 40
1
 40
1
 40
1
 10
66.008131
 20
16.746231
 30
0.0
 10
68.384327
 20
16.748489
 30
0.0
 10
69.094071
 20
16.855463
 30
0.0
 10
70.327074
 20
17.397343
 30
0.0
  0
SPLINE
  5
130
100
AcDbEntity
  8
0
 62
7
100
AcDbSpline
 70
8
 71
3
 72
8
 73
4
 74
0
 40
0
 40
0
 40
0
 40
0
 40
1
 40
1
 40
1
 40
1
 10
70.327074
 20
17.397343
 30
0.0
 10
73.235910
 20
18.675720
 30
0.0
 10
75.172209
 20
21.352600
 30
0.0
 10
75.196124
 20
24.128676
 30
0.0
  0
SPLINE
  5
131
100
AcDbEntity
  8
0
 62
7
100
AcDbSpline
 70
8
 71
3
 72
8
 73
4
 74
0
 40
0
 40
0
 40
0
 40
0
 40
1
 40
1
 40
1
 40
1
 10
75.196124
 20
24.128676
 30
0.0
 10
75.219238
 20
26.809539
 30
0.0
 10
76.909800
 20
29.243026
 30
0.0
 10
79.481485
 20
30.297207
 30
0.0
  0
SPLINE
  5
132
100
AcDbEntity
  8
0
 62
7
100
AcDbSpline
 70
8
 71
3
 72
8
 73
4
 74
0
 40
0
 40
0
 40
0
 40
0
 40
1
 40
1
 40
1
 40
1
 10
79.481485
 20
30.297207
 30
0.0
 10
82.418346
 20
31.501086
 30
0.0
 10
83.910791
 20
33.298387
 30
0.0
 10
84.621398
 20
36.487029
 30
0.0
  0
SPLINE
  5
133
100
AcDbEntity
  8
0
 62
7
100
AcDbSpline
 70
8
 71
3
 72
8
 73
4
 74
0
 40
0
 40
0
 40
0
 40
0
 40
1
 40
1
 40
1
 40
1
 10
84.621398
 20
36.487029
 30
0.0
 10
85.018019
 20
38.266748
 30
0.0
 10
84.761550
 20
39.521034
 30
0.0
 10
83.546620
 20
41.743325
 30
0.0
  0
SPLINE
  5
134
100
AcDbEntity
  8
0
 62
7
100
AcDbSpline
 70
8
 71
3
 72
8
 73
4
 74
0
 40
0
 40
0
 40
0
 40
0
 40
1
 40
1
 40
1
 40
1
 10
83.546620
 20
41.743325
 30
0.0
 10
82.916830
 20
42.895297
 30
0.0
 10
82.824766
 20
43.381724
 30
0.0
 10
82.916796
 20
45.070982
 30
0.0
  0
SPLINE
  5
135
100
AcDbEntity
  8
0
 62
7
100
AcDbSpline
 70
8
 71
3
 72
8
 73
4
 74
0
 40
0
 40
0
 40
0
 40
0
 40
1
 40
1
 40
1
 40
1
 10
82.916796
 20
45.070982
 30
0.0
 10
83.011998
 20
46.818395
 30
0.0
 10
83.151198
 20
47.220364
 30
0.0
 10
84.108775
 20
48.513015
 30
0.0
  0
SPLINE
  5
136
100
AcDbEntity
  8
0
 62
7
100
AcDbSpline
 70
8
 71
3
 72
8
 73
4
 74
0
 40
0
 40
0
 40
0
 40
0
 40
1
 40
1
 40
1
 40
1
 10
84.108775
 20
48.513015
 30
0.0
 10
85.534545
 20
50.437692
 30
0.0
 10
85.819513
 20
51.201185
 30
0.0
 10
85.819513
 20
53.096439
 30
0.0
  0
SPLINE
  5
137
100
AcDbEntity
  8
0
 62
7
100
AcDbSpline
 70
8
 71
3
 72
8
 73
4
 74
0
 40
0
 40
0
 40
0
 40
0
 40
1
 40
1
 40
1
 40
1
 10
85.819513
 20
53.096439
 30
0.0
 10
85.819513
 20
56.294500
 30
0.0
 10
84.575334
 20
58.441477
 30
0.0
 10
81.703743
 20
60.198683
 30
0.0
  0
SPLINE
  5
138
100
AcDbEntity
  8
0
 62
7
100
AcDbSpline
 70
8
 71
3
 72
8
 73
4
 74
0
 40
0
 40
0
 40
0
 40
0
 40
1
 40
1
 40
1
 40
1
 10
81.703743
 20
60.198683
 30
0.0
 10
80.511150
 20
60.928464
 30
0.0
 10
79.825074
 20
61.609407
 30
0.0
 10
79.182990
 20
62.700575
 30
0.0
  0
SPLINE
  5
139
100
AcDbEntity
  8
0
 62
7
100
AcDbSpline
 70
8
 71
3
 72
8
 73
4
 74
0
 40
0
 40
0
 40
0
 40
0
 40
1
 40
1
 40
1
 40
1
 10
79.182990
 20
62.700575
 30
0.0
 10
78.375194
 20
64.073360
 30
0.0
 10
78.306707
 20
64.395802
 30
0.0
 10
78.370834
 20
66.524338
 30
0.0
  0
SPLINE
  5
13a
100
AcDbEntity
  8
0
 62
7
100
AcDbSpline
 70
8
 71
3
 72
8
 73
4
 74
0
 40
0
 40
0
 40
0
 40
0
 40
1
 40
1
 40
1
 40
1
 10
78.370834
 20
66.524338
 30
0.0
 10
78.465536
 20
69.667885
 30
0.0
 10
77.935726
 20
71.063999
 30
0.0
 10
75.922903
 20
72.974954
 30
0.0
  0
SPLINE
  5
13b
100
AcDbEntity
  8
0
 62
7
100
AcDbSpline
 70
8
 71
3
 72
8
 73
4
 74
0
 40
0
 40
0
 40
0
 40
0
 40
1
 40
1
 40
1
 40
1
 10
75.922903
 20
72.974954
 30
0.0
 10
74.030617
 20
74.771467
 30
0.0
 10
73.036232
 20
75.192151
 30
0.0
 10
70.156697
 20
75.414389
 30
0.0
  0
SPLINE
  5
13c
100
AcDbEntity
  8
0
 62
7
100
AcDbSpline
 70
8
 71
3
 72
8
 73
4
 74
0
 40
0
 40
0
 40
0
 40
0
 40
1
 40
1
 40
1
 40
1
 10
70.156697
 20
75.414389
 30
0.0
 10
68.626299
 20
75.532505
 30
0.0
 10
67.600630
 20
75.781436
 30
0.0
 10
66.752642
 20
76.240564
 30
0.0
  0
SPLINE
  5
13d
100
AcDbEntity
  8
0
 62
7
100
AcDbSpline
 70
8
 71
3
 72
8
 73
4
 74
0
 40
0
 40
0
 40
0
 40
0
 40
1
 40
1
 40
1
 40
1
 10
66.752642
 20
76.240564
 30
0.0
 10
65.435965
 20
76.953454
 30
0.0
 10
63.687455
 20
78.641358
 30
0.0
 10
63.687455
 20
79.199509
 30
0.0
  0
SPLINE
  5
13e
100
AcDbEntity
  8
0
 62
7
100
AcDbSpline
 70
8
 71
3
 72
8
 73
4
 74
0
 40
0
 40
0
 40
0
 40
0
 40
1
 40
1
 40
1
 40
1
 10
63.687455
 20
79.199509
 30
0.0
 10
63.687455
 20
79.930755
 30
0.0
 10
61.893591
 20
82.122304
 30
0.0
 10
60.744856
 20
82.794455
 30
0.0
  0
SPLINE
  5
13f
100
AcDbEntity
  8
0
 62
7
100
AcDbSpline
 70
8
 71
3
 72
8
 73
4
 74
0
 40
0
 40
0
 40
0
 40
0
 40
1
 40
1
 40
1
 40
1
 10
60.744856
 20
82.794455
 30
0.0
 10
59.138498
 20
83.734382
 30
0.0
 10
56.226998
 20
84.405004
 30
0.0
 10
54.632279
 20
84.202403
 30
0.0
  0
SPLINE
  5
140
100
AcDbEntity
  8
0
 62
7
100
AcDbSpline
 70
8
 71
3
 72
8
 73
4
 74
0
 40
0
 40
0
 40
0
 40
0
 40
1
 40
1
 40
1
 40
1
 10
54.632279
 20
84.202403
 30
0.0
 10
53.936242
 20
84.113974
 30
0.0
 10
52.540656
 20
83.655089
 30
0.0
 10
51.530972
 20
83.182660
 30
0.0
  0
SPLINE
  5
141
100
AcDbEntity
  8
0
 62
7
100
AcDbSpline
 70
8
 71
3
 72
8
 73
4
 74
0
 40
0
 40
0
 40
0
 40
0
 40
1
 40
1
 40
1
 40
1
 10
51.530972
 20
83.182660
 30
0.0
 10
49.880447
 20
82.410385
 30
0.0
 10
49.497045
 20
82.336838
 30
0.0
 10
47.731866
 20
82.453903
 30
0.0
  0
SPLINE
  5
142
100
AcDbEntity
  8
0
 62
7
100
AcDbSpline
 70
8
 71
3
 72
8
 73
4
 74
0
 40
0
 40
0
 40
0
 40
0
 40
1
 40
1
 40
1
 40
1
 10
47.731866
 20
82.453903
 30
0.0
 10
46.176534
 20
82.557053
 30
0.0
 10
45.499435
 20
82.754786
 30
0.0
 10
44.473484
 20
83.405447
 30
0.0
  0
SPLINE
  5
143
100
AcDbEntity
  8
0
 62
7
100
AcDbSpline
 70
8
 71
3
 72
8
 73
4
 74
0
 40
0
 40
0
 40
0
 40
0
 40
1
 40
1
 40
1
 40
1
 10
44.473484
 20
83.405447
 30
0.0
 10
41.624538
 20
85.212264
 30
0.0
 10
40.315800
 20
85.530207
 30
0.0
 10
37.461608
 20
85.108898
 30
0.0
  0
SPLINE
  5
144
100
AcDbEntity
  8
0
 62
7
100
AcDbSpline
 70
8
 71
3
 72
8
 73
4
 74
0
 40
0
 40
0
 40
0
 40
0
 40
1
 40
1
 40
1
 40
1
 10
37.461608
 20
85.108898
 30
0.0
 10
35.048458
 20
84.752691
 30
0.0
 10
33.239069
 20
83.802570
 30
0.0
 10
32.116954
 20
82.302387
 30
0.0
  0
SPLINE
  5
145
100
AcDbEntity
  8
0
 62
7
100
AcDbSpline
 70
8
 71
3
 72
8
 73
4
 74
0
 40
0
 40
0
 40
0
 40
0
 40
1
 40
1
 40
1
 40
1
 10
32.116954
 20
82.302387
 30
0.0
 10
30.457642
 20
80.084016
 30
0.0
 10
29.969762
 20
79.626889
 30
0.0
 10
28.549487
 20
78.959792
 30
0.0
  0
SPLINE
  5
146
100
AcDbEntity
  8
0
 62
7
100
AcDbSpline
 70
8
 71
3
 72
8
 73
4
 74
0
 40
0
 40
0
 40
0
 40
0
 40
1
 40
1
 40
1
 40
1
 10
28.549487
 20
78.959792
 30
0.0
 10
27.322800
 20
78.383621
 30
0.0
 10
26.707205
 20
78.286209
 30
0.0
 10
24.292727
 20
78.286209
 30
0.0
  0
SPLINE
  5
147
100
AcDbEntity
  8
0
 62
7
100
AcDbSpline
 70
8
 71
3
 72
8
 73
4
 74
0
 40
0
 40
0
 40
0
 40
0
 40
1
 40
1
 40
1
 40
1
 10
24.292727
 20
78.286209
 30
0.0
 10
21.095422
 20
78.286209
 30
0.0
 10
20.001914
 20
77.970981
 30
0.0
 10
18.046055
 20
76.485456
 30
0.0
  0
SPLINE
  5
148
100
AcDbEntity
  8
0
 62
7
100
AcDbSpline
 70
8
 71
3
 72
8
 73
4
 74
0
 40
0
 40
0
 40
0
 40
0
 40
1
 40
1
 40
1
 40
1
 10
18.046055
 20
76.485456
 30
0.0
 10
16.143435
 20
75.040366
 30
0.0
 10
15.299944
 20
73.511159
 30
0.0
 10
15.011980
 20
70.984824
 30
0.0
  0
SPLINE
  5
149
100
AcDbEntity
  8
0
 62
7
100
AcDbSpline
 70
8
 71
3
 72
8
 73
4
 74
0
 40
0
 40
0
 40
0
 40
0
 40
1
 40
1
 40
1
 40
1
 10
15.011980
 20
70.984824
 30
0.0
 10
14.878123
 20
69.810492
 30
0.0
 10
14.629684
 20
68.524859
 30
0.0
 10
14.459894
 20
68.127869
 30
0.0
  0
SPLINE
  5
14a
100
AcDbEntity
  8
0
 62
7
100
AcDbSpline
 70
8
 71
3
 72
8
 73
4
 74
0
 40
0
 40
0
 40
0
 40
0
 40
1
 40
1
 40
1
 40
1
 10
14.459894
 20
68.127869
 30
0.0
 10
13.926071
 20
66.879724
 30
0.0
 10
12.308348
 20
65.423192
 30
0.0
 10
10.533600
 20
64.592790
 30
0.0
  0
SPLINE
  5
14b
100
AcDbEntity
  8
0
 62
7
100
AcDbSpline
 70
8
 71
3
 72
8
 73
4
 74
0
 40
0
 40
0
 40
0
 40
0
 40
1
 40
1
 40
1
 40
1
 10
10.533600
 20
64.592790
 30
0.0
 10
8.259612
 20
63.528798
 30
0.0
 10
6.922717
 20
62.236576
 30
0.0
 10
6.172103
 20
60.377033
 30
0.0
  0
SPLINE
  5
14c
100
AcDbEntity
  8
0
 62
7
100
AcDbSpline
 70
8
 71
3
 72
8
 73
4
 74
0
 40
0
 40
0
 40
0
 40
0
 40
1
 40
1
 40
1
 40
1
 10
6.172103
 20
60.377033
 30
0.0
 10
5.233016
 20
58.050571
 30
0.0
 10
5.332772
 20
55.872992
 30
0.0
 10
6.479396
 20
53.669150
 30
0.0
  0
SPLINE
  5
14d
100
AcDbEntity
  8
0
 62
7
100
AcDbSpline
 70
8
 71
3
 72
8
 73
4
 74
0
 40
0
 40
0
 40
0
 40
0
 40
1
 40
1
 40
1
 40
1
 10
6.479396
 20
53.669150
 30
0.0
 10
7.749930
 20
51.227152
 30
0.0
 10
7.773812
 20
49.057094
 30
0.0
 10
6.550120
 20
47.242693
 30
0.0
  0
SPLINE
  5
14e
100
AcDbEntity
  8
0
 62
7
100
AcDbSpline
 70
8
 71
3
 72
8
 73
4
 74
0
 40
0
 40
0
 40
0
 40
0
 40
1
 40
1
 40
1
 40
1
 10
6.550120
 20
47.242693
 30
0.0
 10
4.726687
 20
44.539041
 30
0.0
 10
4.373543
 20
43.732794
 30
0.0
 10
4.373543
 20
42.273454
 30
0.0
  0
SPLINE
  5
14f
100
AcDbEntity
  8
0
 62
7
100
AcDbSpline
 70
8
 71
3
 72
8
 73
4
 74
0
 40
0
 40
0
 40
0
 40
0
 40
1
 40
1
 40
1
 40
1
 10
4.373543
 20
42.273454
 30
0.0
 10
4.373543
 20
38.748177
 30
0.0
 10
5.576234
 20
36.572469
 30
0.0
 10
8.526353
 20
34.760899
 30
0.0
  0
SPLINE
  5
150
100
AcDbEntity
  8
0
 62
7
100
AcDbSpline
 70
8
 71
3
 72
8
 73
4
 74
0
 40
0
 40
0
 40
0
 40
0
 40
1
 40
1
 40
1
 40
1
 10
8.526353
 20
34.760899
 30
0.0
 10
9.674193
 20
34.056046
 30
0.0
 10
10.396234
 20
33.342583
 30
0.0
 10
11.017663
 20
32.299190
 30
0.0
  0
SPLINE
  5
151
100
AcDbEntity
  8
0
 62
7
100
AcDbSpline
 70
8
 71
3
 72
8
 73
4
 74
0
 40
0
 40
0
 40
0
 40
0
 40
1
 40
1
 40
1
 40
1
 10
11.017663
 20
32.299190
 30
0.0
 10
11.822808
 20
30.947332
 30
0.0
 10
11.892926
 20
30.611530
 30
0.0
 10
11.895570
 20
28.094759
 30
0.0
  0
SPLINE
  5
152
100
AcDbEntity
  8
0
 62
7
100
AcDbSpline
 70
8
 71
3
 72
8
 73
4
 74
0
 40
0
 40
0
 40
0
 40
0
 40
1
 40
1
 40
1
 40
1
 10
11.895570
 20
28.094759
 30
0.0
 10
11.898832
 20
24.994026
 30
0.0
 10
12.223127
 20
24.130813
 30
0.0
 10
14.145149
 20
22.106896
 30
0.0
  0
SPLINE
  5
153
100
AcDbEntity
  8
0
 62
7
100
AcDbSpline
 70
8
 71
3
 72
8
 73
4
 74
0
 40
0
 40
0
 40
0
 40
0
 40
1
 40
1
 40
1
 40
1
 10
14.145149
 20
22.106896
 30
0.0
 10
15.660800
 20
20.510892
 30
0.0
 10
17.270169
 20
19.825293
 30
0.0
 10
20.217685
 20
19.519959
 30
0.0
  0
SPLINE
  5
154
100
AcDbEntity
  8
0
 62
7
100
AcDbSpline
 70
8
 71
3
 72
8
 73
4
 74
0
 40
0
 40
0
 40
0
 40
0
 40
1
 40
1
 40
1
 40
1
 10
20.217685
 20
19.519959
 30
0.0
 10
21.797557
 20
19.356304
 30
0.0
 10
22.991665
 20
19.065257
 30
0.0
 10
23.664405
 20
18.679874
 30
0.0
  0
SPLINE
  5
155
100
AcDbEntity
  8
0
 62
7
100
AcDbSpline
 70
8
 71
3
 72
8
 73
4
 74
0
 40
0
 40
0
 40
0
 40
0
 40
1
 40
1
 40
1
 40
1
 10
23.664405
 20
18.679874
 30
0.0
 10
24.857019
 20
17.996676
 30
0.0
 10
26.505602
 20
16.339349
 30
0.0
 10
26.505602
 20
15.823605
 30
0.0
  0
SPLINE
  5
156
100
AcDbEntity
  8
0
 62
7
100
AcDbSpline
 70
8
 71
3
 72
8
 73
4
 74
0
 40
0
 40
0
 40
0
 40
0
 40
1
 40
1
 40
1
 40
1
 10
26.505602
 20
15.823605
 30
0.0
 10
26.505602
 20
15.164350
 30
0.0
 10
28.274566
 20
12.989664
 30
0.0
 10
29.397633
 20
12.268268
 30
0.0
  0
SPLINE
  5
157
100
AcDbEntity
  8
0
 62
7
100
AcDbSpline
 70
8
 71
3
 72
8
 73
4
 74
0
 40
0
 40
0
 40
0
 40
0
 40
1
 40
1
 40
1
 40
1
 10
29.397633
 20
12.268268
 30
0.0
 10
30.943034
 20
11.275593
 30
0.0
 10
33.409424
 20
10.644598
 30
0.0
 10
35.204733
 20
10.782596
 30
0.0
  0
SPLINE
  5
158
100
AcDbEntity
  8
0
 62
7
100
AcDbSpline
 70
8
 71
3
 72
8
 73
4
 74
0
 40
0
 40
0
 40
0
 40
0
 40
1
 40
1
 40
1
 40
1
 10
35.204733
 20
10.782596
 30
0.0
 10
36.032889
 20
10.846254
 30
0.0
 10
37.569891
 20
11.282316
 30
0.0
 10
38.680551
 20
11.768715
 30
0.0
  0
SPLINE
  5
159
100
AcDbEntity
  8
0
 62
7
100
AcDbSpline
 70
8
 71
3
 72
8
 73
4
 74
0
 40
0
 40
0
 40
0
 40
0
 40
1
 40
1
 40
1
 40
1
 10
38.680551
 20
11.768715
 30
0.0
 10
41.576777
 20
13.037089
 30
0.0
 10
43.984449
 20
12.867917
 30
0.0
 10
46.456572
 20
11.222344
 30
0.0
  0
SPLINE
  5
15a
100
AcDbEntity
  8
0
 62
7
100
AcDbSpline
 70
8
 71
3
 72
8
 73
4
 74
0
 40
0
 40
0
 40
0
 40
0
 40
1
 40
1
 40
1
 40
1
 10
46.456572
 20
11.222344
 30
0.0
 10
48.350480
 20
9.961666
 30
0.0
 10
49.695377
 20
9.601928
 30
0.0
 10
51.860021
 20
9.777010
 30
0.0
  0
SPLINE
  5
15b
100
AcDbEntity
  8
0
 62
7
100
AcDbSpline
 70
8
 71
3
 72
8
 73
4
 74
0
 40
0
 40
0
 40
0
 40
0
 40
1
 40
1
 40
1
 40
1
 10
51.860021
 20
9.777010
 30
0.0
 10
52.901969
 20
9.861285
 30
0.0
 10
54.380271
 20
10.179770
 30
0.0
 10
55.145141
 20
10.484756
 30
0.0
  0
LWPOLYLINE
  5
15c
100
AcDbEntity
  8
0
 62
7
100
AcDbPolyline
 90
2
 70
1
 10
48.832756
 20
9.467238
 30
0.0
 10
48.832756
 20
9.467238
 30
0.0
  0
SPLINE
  5
15d
100
AcDbEntity
  8
0
 62
7
100
AcDbSpline
 70
8
 71
3
 72
8
 73
4
 74
0
 40
0
 40
0
 40
0
 40
0
 40
1
 40
1
 40
1
 40
1
 10
40.296668
 20
18.669189
 30
0.0
 10
38.001826
 20
19.197405
 30
0.0
 10
35.653356
 20
20.766930
 30
0.0
 10
35.653591
 20
21.772239
 30
0.0
  0
SPLINE
  5
15e
100
AcDbEntity
  8
0
 62
7
100
AcDbSpline
 70
8
 71
3
 72
8
 73
4
 74
0
 40
0
 40
0
 40
0
 40
0
 40
1
 40
1
 40
1
 40
1
 10
35.653591
 20
21.772239
 30
0.0
 10
35.653698
 20
22.249438
 30
0.0
 10
44.511327
 20
44.474977
 30
0.0
 10
44.815554
 20
44.761418
 30
0.0
  0
SPLINE
  5
15f
100
AcDbEntity
  8
0
 62
7
100
AcDbSpline
 70
8
 71
3
 72
8
 73
4
 74
0
 40
0
 40
0
 40
0
 40
0
 40
1
 40
1
 40
1
 40
1
 10
44.815554
 20
44.761418
 30
0.0
 10
44.964683
 20
44.901829
 30
0.0
 10
45.154175
 20
44.954159
 30
0.0
 10
45.236655
 20
44.877708
 30
0.0
  0
SPLINE
  5
160
100
AcDbEntity
  8
0
 62
7
100
AcDbSpline
 70
8
 71
3
 72
8
 73
4
 74
0
 40
0
 40
0
 40
0
 40
0
 40
1
 40
1
 40
1
 40
1
 10
45.236655
 20
44.877708
 30
0.0
 10
45.319134
 20
44.801259
 30
0.0
 10
47.061428
 20
39.470945
 30
0.0
 10
49.108422
 20
33.032567
 30
0.0
  0
LWPOLYLINE
  5
161
100
AcDbEntity
  8
0
 62
7
100
AcDbPolyline
 90
2
 70
1
 10
55.145141
 20
10.484756
 30
0.0
 10
55.145141
 20
10.484756
 30
0.0
  0
SPLINE
  5
162
100
AcDbEntity
  8
0
 62
7
100
AcDbSpline
 70
8
 71
3
 72
8
 73
4
 74
0
 40
0
 40
0
 40
0
 40
0
 40
1
 40
1
 40
1
 40
1
 10
52.267849
 20
20.607748
 30
0.0
 10
51.958539
 20
20.212479
 30
0.0
 10
51.048412
 20
19.581357
 30
0.0
 10
50.245337
 20
19.205265
 30
0.0
  0
SPLINE
  5
163
100
AcDbEntity
  8
0
 62
7
100
AcDbSpline
 70
8
 71
3
 72
8
 73
4
 74
0
 40
0
 40
0
 40
0
 40
0
 40
1
 40
1
 40
1
 40
1
 10
50.245337
 20
19.205265
 30
0.0
 10
48.946274
 20
18.596889
 30
0.0
 10
48.378305
 20
18.515499
 30
0.0
 10
45.096529
 20
18.467440
 30
0.0
  0
SPLINE
  5
164
100
AcDbEntity
  8
0
 62
7
100
AcDbSpline
 70
8
 71
3
 72
8
 73
4
 74
0
 40
0
 40
0
 40
0
 40
0
 40
1
 40
1
 40
1
 40
1
 10
45.096529
 20
18.467440
 30
0.0
 10
43.067757
 20
18.437730
 30
0.0
 10
40.907820
 20
18.528518
 30
0.0
 10
40.296668
 20
18.669189
 30
0.0
  0
LWPOLYLINE
  5
165
100
AcDbEntity
  8
0
 62
7
100
AcDbPolyline
 90
3
 70
1
 10
49.108422
 20
33.032567
 30
0.0
 10
52.830225
 20
21.326427
 30
0.0
 10
52.267849
 20
20.607748
 30
0.0
  0
SPLINE
  5
166
100
AcDbEntity
  8
0
 62
7
100
AcDbSpline
 70
8
 71
3
 72
8
 73
4
 74
0
 40
0
 40
0
 40
0
 40
0
 40
1
 40
1
 40
1
 40
1
 10
48.789886
 20
19.234889
 30
0.0
 10
49.504259
 20
19.401623
 30
0.0
 10
50.573601
 20
19.926526
 30
0.0
 10
51.166197
 20
20.401339
 30
0.0
  0
LWPOLYLINE
  5
167
100
AcDbEntity
  8
0
 62
7
100
AcDbPolyline
 90
2
 70
1
 10
40.296668
 20
18.669189
 30
0.0
 10
40.296668
 20
18.669189
 30
0.0
  0
SPLINE
  5
168
100
AcDbEntity
  8
0
 62
7
100
AcDbSpline
 70
8
 71
3
 72
8
 73
4
 74
0
 40
0
 40
0
 40
0
 40
0
 40
1
 40
1
 40
1
 40
1
 10
48.782074
 20
32.201578
 30
0.0
 10
46.878206
 20
38.216896
 30
0.0
 10
45.227268
 20
43.299594
 30
0.0
 10
45.113324
 20
43.496461
 30
0.0
  0
SPLINE
  5
169
100
AcDbEntity
  8
0
 62
7
100
AcDbSpline
 70
8
 71
3
 72
8
 73
4
 74
0
 40
0
 40
0
 40
0
 40
0
 40
1
 40
1
 40
1
 40
1
 10
45.113324
 20
43.496461
 30
0.0
 10
44.995008
 20
43.700883
 30
0.0
 10
43.040732
 20
39.145481
 30
0.0
 10
40.556764
 20
32.875138
 30
0.0
  0
SPLINE
  5
16a
100
AcDbEntity
  8
0
 62
7
100
AcDbSpline
 70
8
 71
3
 72
8
 73
4
 74
0
 40
0
 40
0
 40
0
 40
0
 40
1
 40
1
 40
1
 40
1
 10
40.556764
 20
32.875138
 30
0.0
 10
36.399117
 20
22.379898
 30
0.0
 10
36.227808
 20
21.866959
 30
0.0
 10
36.670959
 20
21.240067
 30
0.0
  0
SPLINE
  5
16b
100
AcDbEntity
  8
0
 62
7
100
AcDbSpline
 70
8
 71
3
 72
8
 73
4
 74
0
 40
0
 40
0
 40
0
 40
0
 40
1
 40
1
 40
1
 40
1
 10
36.670959
 20
21.240067
 30
0.0
 10
37.183088
 20
20.515597
 30
0.0
 10
38.426684
 20
19.842237
 30
0.0
 10
40.227476
 20
19.314352
 30
0.0
  0
SPLINE
  5
16c
100
AcDbEntity
  8
0
 62
7
100
AcDbSpline
 70
8
 71
3
 72
8
 73
4
 74
0
 40
0
 40
0
 40
0
 40
0
 40
1
 40
1
 40
1
 40
1
 10
40.227476
 20
19.314352
 30
0.0
 10
41.706309
 20
18.880847
 30
0.0
 10
47.060093
 20
18.831162
 30
0.0
 10
48.789886
 20
19.234889
 30
0.0
  0
LWPOLYLINE
  5
16d
100
AcDbEntity
  8
0
 62
7
100
AcDbPolyline
 90
3
 70
1
 10
51.166197
 20
20.401339
 30
0.0
 10
52.243651
 20
21.264640
 30
0.0
 10
48.782074
 20
32.201578
 30
0.0
  0
SPLINE
  5
16e
100
AcDbEntity
  8
0
 62
7
100
AcDbSpline
 70
8
 71
3
 72
8
 73
4
 74
0
 40
0
 40
0
 40
0
 40
0
 40
1
 40
1
 40
1
 40
1
 10
43.334511
 20
34.511863
 30
0.0
 10
43.095759
 20
34.651817
 30
0.0
 10
42.977240
 20
34.837537
 30
0.0
 10
43.071138
 20
34.924568
 30
0.0
  0
SPLINE
  5
16f
100
AcDbEntity
  8
0
 62
7
100
AcDbSpline
 70
8
 71
3
 72
8
 73
4
 74
0
 40
0
 40
0
 40
0
 40
0
 40
1
 40
1
 40
1
 40
1
 10
43.071138
 20
34.924568
 30
0.0
 10
43.165039
 20
35.011603
 30
0.0
 10
43.409836
 20
34.895211
 30
0.0
 10
43.615139
 20
34.665920
 30
0.0
  0
SPLINE
  5
170
100
AcDbEntity
  8
0
 62
7
100
AcDbSpline
 70
8
 71
3
 72
8
 73
4
 74
0
 40
0
 40
0
 40
0
 40
0
 40
1
 40
1
 40
1
 40
1
 10
43.615139
 20
34.665920
 30
0.0
 10
44.040843
 20
34.190477
 30
0.0
 10
43.959216
 20
34.145669
 30
0.0
 10
43.334511
 20
34.511863
 30
0.0
  0
LWPOLYLINE
  5
171
100
AcDbEntity
  8
0
 62
7
100
AcDbPolyline
 90
2
 70
1
 10
48.789886
 20
19.234889
 30
0.0
 10
48.789886
 20
19.234889
 30
0.0
  0
SPLINE
  5
172
100
AcDbEntity
  8
0
 62
7
100
AcDbSpline
 70
8
 71
3
 72
8
 73
4
 74
0
 40
0
 40
0
 40
0
 40
0
 40
1
 40
1
 40
1
 40
1
 10
45.391623
 20
34.356523
 30
0.0
 10
45.391623
 20
34.415645
 30
0.0
 10
45.597707
 20
34.537320
 30
0.0
 10
45.849591
 20
34.626914
 30
0.0
  0
SPLINE
  5
173
100
AcDbEntity
  8
0
 62
7
100
AcDbSpline
 70
8
 71
3
 72
8
 73
4
 74
0
 40
0
 40
0
 40
0
 40
0
 40
1
 40
1
 40
1
 40
1
 10
45.849591
 20
34.626914
 30
0.0
 10
46.112201
 20
34.720318
 30
0.0
 10
46.230650
 20
34.674466
 30
0.0
 10
46.127269
 20
34.519416
 30
0.0
  0
SPLINE
  5
174
100
AcDbEntity
  8
0
 62
7
100
AcDbSpline
 70
8
 71
3
 72
8
 73
4
 74
0
 40
0
 40
0
 40
0
 40
0
 40
1
 40
1
 40
1
 40
1
 10
46.127269
 20
34.519416
 30
0.0
 10
45.953971
 20
34.259512
 30
0.0
 10
45.391623
 20
34.134992
 30
0.0
 10
45.391623
 20
34.356523
 30
0.0
  0
LWPOLYLINE
  5
175
100
AcDbEntity
  8
0
 62
7
100
AcDbPolyline
 90
2
 70
1
 10
43.334511
 20
34.511863
 30
0.0
 10
43.334511
 20
34.511863
 30
0.0
  0
SPLINE
  5
176
100
AcDbEntity
  8
0
 62
7
100
AcDbSpline
 70
8
 71
3
 72
8
 73
4
 74
0
 40
0
 40
0
 40
0
 40
0
 40
1
 40
1
 40
1
 40
1
 10
54.479275
 20
21.160139
 30
0.0
 10
54.040374
 20
21.308941
 30
0.0
 10
53.615398
 20
21.637707
 30
0.0
 10
53.534874
 20
21.890730
 30
0.0
  0
SPLINE
  5
177
100
AcDbEntity
  8
0
 62
7
100
AcDbSpline
 70
8
 71
3
 72
8
 73
4
 74
0
 40
0
 40
0
 40
0
 40
0
 40
1
 40
1
 40
1
 40
1
 10
53.534874
 20
21.890730
 30
0.0
 10
51.906929
 20
27.006254
 30
0.0
 10
46.571998
 20
44.786646
 30
0.0
 10
46.571998
 20
45.096788
 30
0.0
  0
SPLINE
  5
178
100
AcDbEntity
  8
0
 62
7
100
AcDbSpline
 70
8
 71
3
 72
8
 73
4
 74
0
 40
0
 40
0
 40
0
 40
0
 40
1
 40
1
 40
1
 40
1
 10
46.571998
 20
45.096788
 30
0.0
 10
46.571998
 20
45.336672
 30
0.0
 10
46.741825
 20
45.461586
 30
0.0
 10
46.961651
 20
45.383396
 30
0.0
  0
SPLINE
  5
179
100
AcDbEntity
  8
0
 62
7
100
AcDbSpline
 70
8
 71
3
 72
8
 73
4
 74
0
 40
0
 40
0
 40
0
 40
0
 40
1
 40
1
 40
1
 40
1
 10
46.961651
 20
45.383396
 30
0.0
 10
47.175959
 20
45.307171
 30
0.0
 10
52.034460
 20
41.893371
 30
0.0
 10
57.758324
 20
37.797178
 30
0.0
  0
LWPOLYLINE
  5
17a
100
AcDbEntity
  8
0
 62
7
100
AcDbPolyline
 90
2
 70
1
 10
45.391623
 20
34.356523
 30
0.0
 10
45.391623
 20
34.356523
 30
0.0
  0
SPLINE
  5
17b
100
AcDbEntity
  8
0
 62
7
100
AcDbSpline
 70
8
 71
3
 72
8
 73
4
 74
0
 40
0
 40
0
 40
0
 40
0
 40
1
 40
1
 40
1
 40
1
 10
67.967425
 20
29.371640
 30
0.0
 10
67.664592
 20
27.875405
 30
0.0
 10
66.827651
 20
26.579943
 30
0.0
 10
65.260533
 20
25.181766
 30
0.0
  0
SPLINE
  5
17c
100
AcDbEntity
  8
0
 62
7
100
AcDbSpline
 70
8
 71
3
 72
8
 73
4
 74
0
 40
0
 40
0
 40
0
 40
0
 40
1
 40
1
 40
1
 40
1
 10
65.260533
 20
25.181766
 30
0.0
 10
63.389047
 20
23.512032
 30
0.0
 10
60.950421
 20
22.105242
 30
0.0
 10
58.720465
 20
21.408938
 30
0.0
  0
SPLINE
  5
17d
100
AcDbEntity
  8
0
 62
7
100
AcDbSpline
 70
8
 71
3
 72
8
 73
4
 74
0
 40
0
 40
0
 40
0
 40
0
 40
1
 40
1
 40
1
 40
1
 10
58.720465
 20
21.408938
 30
0.0
 10
56.769937
 20
20.799888
 30
0.0
 10
55.723011
 20
20.738471
 30
0.0
 10
54.479275
 20
21.160139
 30
0.0
  0
LWPOLYLINE
  5
17e
100
AcDbEntity
  8
0
 62
7
100
AcDbPolyline
 90
3
 70
1
 10
57.758324
 20
37.797178
 30
0.0
 10
68.165351
 20
30.349551
 30
0.0
 10
67.967425
 20
29.371640
 30
0.0
  0
SPLINE
  5
17f
100
AcDbEntity
  8
0
 62
7
100
AcDbSpline
 70
8
 71
3
 72
8
 73
4
 74
0
 40
0
 40
0
 40
0
 40
0
 40
1
 40
1
 40
1
 40
1
 10
58.284869
 20
21.804051
 30
0.0
 10
60.246297
 20
22.343957
 30
0.0
 10
63.781971
 20
24.515010
 30
0.0
 10
65.511042
 20
26.241240
 30
0.0
  0
SPLINE
  5
180
100
AcDbEntity
  8
0
 62
7
100
AcDbSpline
 70
8
 71
3
 72
8
 73
4
 74
0
 40
0
 40
0
 40
0
 40
0
 40
1
 40
1
 40
1
 40
1
 10
65.511042
 20
26.241240
 30
0.0
 10
66.957211
 20
27.685026
 30
0.0
 10
67.842265
 20
29.686769
 30
0.0
 10
67.269278
 20
30.217872
 30
0.0
  0
SPLINE
  5
181
100
AcDbEntity
  8
0
 62
7
100
AcDbSpline
 70
8
 71
3
 72
8
 73
4
 74
0
 40
0
 40
0
 40
0
 40
0
 40
1
 40
1
 40
1
 40
1
 10
67.269278
 20
30.217872
 30
0.0
 10
66.880339
 20
30.578380
 30
0.0
 10
47.324786
 20
44.570049
 30
0.0
 10
47.260510
 20
44.533809
 30
0.0
  0
SPLINE
  5
182
100
AcDbEntity
  8
0
 62
7
100
AcDbSpline
 70
8
 71
3
 72
8
 73
4
 74
0
 40
0
 40
0
 40
0
 40
0
 40
1
 40
1
 40
1
 40
1
 10
47.260510
 20
44.533809
 30
0.0
 10
47.233445
 20
44.518540
 30
0.0
 10
48.777390
 20
39.404965
 30
0.0
 10
50.691517
 20
33.170295
 30
0.0
  0
SPLINE
  5
183
100
AcDbEntity
  8
0
 62
7
100
AcDbSpline
 70
8
 71
3
 72
8
 73
4
 74
0
 40
0
 40
0
 40
0
 40
0
 40
1
 40
1
 40
1
 40
1
 10
50.691517
 20
33.170295
 30
0.0
 10
53.452635
 20
24.176804
 30
0.0
 10
54.285961
 20
21.792929
 30
0.0
 10
54.724512
 20
21.633214
 30
0.0
  0
SPLINE
  5
184
100
AcDbEntity
  8
0
 62
7
100
AcDbSpline
 70
8
 71
3
 72
8
 73
4
 74
0
 40
0
 40
0
 40
0
 40
0
 40
1
 40
1
 40
1
 40
1
 10
54.724512
 20
21.633214
 30
0.0
 10
55.607252
 20
21.311720
 30
0.0
 10
56.683952
 20
21.363384
 30
0.0
 10
58.284869
 20
21.804051
 30
0.0
  0
LWPOLYLINE
  5
185
100
AcDbEntity
  8
0
 62
7
100
AcDbPolyline
 90
2
 70
1
 10
54.479275
 20
21.160139
 30
0.0
 10
54.479275
 20
21.160139
 30
0.0
  0
SPLINE
  5
186
100
AcDbEntity
  8
0
 62
7
100
AcDbSpline
 70
8
 71
3
 72
8
 73
4
 74
0
 40
0
 40
0
 40
0
 40
0
 40
1
 40
1
 40
1
 40
1
 10
51.736145
 20
40.016049
 30
0.0
 10
49.316835
 20
41.943869
 30
0.0
 10
48.730611
 20
42.498383
 30
0.0
 10
49.965579
 20
41.690832
 30
0.0
  0
SPLINE
  5
187
100
AcDbEntity
  8
0
 62
7
100
AcDbSpline
 70
8
 71
3
 72
8
 73
4
 74
0
 40
0
 40
0
 40
0
 40
0
 40
1
 40
1
 40
1
 40
1
 10
49.965579
 20
41.690832
 30
0.0
 10
50.997793
 20
41.015866
 30
0.0
 10
54.166302
 20
38.376849
 30
0.0
 10
53.949352
 20
38.372793
 30
0.0
  0
SPLINE
  5
188
100
AcDbEntity
  8
0
 62
7
100
AcDbSpline
 70
8
 71
3
 72
8
 73
4
 74
0
 40
0
 40
0
 40
0
 40
0
 40
1
 40
1
 40
1
 40
1
 10
53.949352
 20
38.372793
 30
0.0
 10
53.868199
 20
38.371100
 30
0.0
 10
52.872259
 20
39.110739
 30
0.0
 10
51.736145
 20
40.016049
 30
0.0
  0
LWPOLYLINE
  5
189
100
AcDbEntity
  8
0
 62
7
100
AcDbPolyline
 90
2
 70
1
 10
58.284869
 20
21.804051
 30
0.0
 10
58.284869
 20
21.804051
 30
0.0
  0
SPLINE
  5
18a
100
AcDbEntity
  8
0
 62
7
100
AcDbSpline
 70
8
 71
3
 72
8
 73
4
 74
0
 40
0
 40
0
 40
0
 40
0
 40
1
 40
1
 40
1
 40
1
 10
29.219316
 20
22.483115
 30
0.0
 10
27.122418
 20
23.402595
 30
0.0
 10
24.322645
 20
25.308952
 30
0.0
 10
23.098096
 20
26.651040
 30
0.0
  0
SPLINE
  5
18b
100
AcDbEntity
  8
0
 62
7
100
AcDbSpline
 70
8
 71
3
 72
8
 73
4
 74
0
 40
0
 40
0
 40
0
 40
0
 40
1
 40
1
 40
1
 40
1
 10
23.098096
 20
26.651040
 30
0.0
 10
21.973840
 20
27.883203
 30
0.0
 10
20.839342
 20
30.259957
 30
0.0
 10
20.952632
 20
31.145754
 30
0.0
  0
SPLINE
  5
18c
100
AcDbEntity
  8
0
 62
7
100
AcDbSpline
 70
8
 71
3
 72
8
 73
4
 74
0
 40
0
 40
0
 40
0
 40
0
 40
1
 40
1
 40
1
 40
1
 10
20.952632
 20
31.145754
 30
0.0
 10
21.033153
 20
31.775344
 30
0.0
 10
22.581186
 20
32.835619
 30
0.0
 10
31.939752
 20
38.671032
 30
0.0
  0
SPLINE
  5
18d
100
AcDbEntity
  8
0
 62
7
100
AcDbSpline
 70
8
 71
3
 72
8
 73
4
 74
0
 40
0
 40
0
 40
0
 40
0
 40
1
 40
1
 40
1
 40
1
 10
31.939752
 20
38.671032
 30
0.0
 10
41.557423
 20
44.668000
 30
0.0
 10
43.621060
 20
45.845084
 30
0.0
 10
43.621060
 20
45.333962
 30
0.0
  0
SPLINE
  5
18e
100
AcDbEntity
  8
0
 62
7
100
AcDbSpline
 70
8
 71
3
 72
8
 73
4
 74
0
 40
0
 40
0
 40
0
 40
0
 40
1
 40
1
 40
1
 40
1
 10
43.621060
 20
45.333962
 30
0.0
 10
43.621060
 20
45.262735
 30
0.0
 10
41.676969
 20
40.123926
 30
0.0
 10
39.300861
 20
33.914379
 30
0.0
  0
SPLINE
  5
18f
100
AcDbEntity
  8
0
 62
7
100
AcDbSpline
 70
8
 71
3
 72
8
 73
4
 74
0
 40
0
 40
0
 40
0
 40
0
 40
1
 40
1
 40
1
 40
1
 10
39.300861
 20
33.914379
 30
0.0
 10
36.622976
 20
26.916194
 30
0.0
 10
34.759590
 20
22.442337
 30
0.0
 10
34.399116
 20
22.145636
 30
0.0
  0
SPLINE
  5
190
100
AcDbEntity
  8
0
 62
7
100
AcDbSpline
 70
8
 71
3
 72
8
 73
4
 74
0
 40
0
 40
0
 40
0
 40
0
 40
1
 40
1
 40
1
 40
1
 10
34.399116
 20
22.145636
 30
0.0
 10
33.482757
 20
21.391389
 30
0.0
 10
31.399477
 20
21.527118
 30
0.0
 10
29.219316
 20
22.483115
 30
0.0
  0
LWPOLYLINE
  5
191
100
AcDbEntity
  8
0
 62
7
100
AcDbPolyline
 90
2
 70
1
 10
51.736145
 20
40.016049
 30
0.0
 10
51.736145
 20
40.016049
 30
0.0
  0
SPLINE
  5
192
100
AcDbEntity
  8
0
 62
7
100
AcDbSpline
 70
8
 71
3
 72
8
 73
4
 74
0
 40
0
 40
0
 40
0
 40
0
 40
1
 40
1
 40
1
 40
1
 10
34.125281
 20
22.565368
 30
0.0
 10
34.298309
 20
22.758617
 30
0.0
 10
36.186076
 20
27.466631
 30
0.0
 10
38.320311
 20
33.027623
 30
0.0
  0
SPLINE
  5
193
100
AcDbEntity
  8
0
 62
7
100
AcDbSpline
 70
8
 71
3
 72
8
 73
4
 74
0
 40
0
 40
0
 40
0
 40
0
 40
1
 40
1
 40
1
 40
1
 10
38.320311
 20
33.027623
 30
0.0
 10
40.454549
 20
38.588617
 30
0.0
 10
42.367431
 20
43.509006
 30
0.0
 10
42.571159
 20
43.961826
 30
0.0
  0
SPLINE
  5
194
100
AcDbEntity
  8
0
 62
7
100
AcDbSpline
 70
8
 71
3
 72
8
 73
4
 74
0
 40
0
 40
0
 40
0
 40
0
 40
1
 40
1
 40
1
 40
1
 10
42.571159
 20
43.961826
 30
0.0
 10
42.888733
 20
44.667681
 30
0.0
 10
41.411313
 20
43.837795
 30
0.0
 10
32.215288
 20
38.144814
 30
0.0
  0
SPLINE
  5
195
100
AcDbEntity
  8
0
 62
7
100
AcDbSpline
 70
8
 71
3
 72
8
 73
4
 74
0
 40
0
 40
0
 40
0
 40
0
 40
1
 40
1
 40
1
 40
1
 10
32.215288
 20
38.144814
 30
0.0
 10
24.029023
 20
33.076941
 30
0.0
 10
21.489000
 20
31.373967
 30
0.0
 10
21.489000
 20
30.953312
 30
0.0
  0
SPLINE
  5
196
100
AcDbEntity
  8
0
 62
7
100
AcDbSpline
 70
8
 71
3
 72
8
 73
4
 74
0
 40
0
 40
0
 40
0
 40
0
 40
1
 40
1
 40
1
 40
1
 10
21.489000
 20
30.953312
 30
0.0
 10
21.489000
 20
28.637416
 30
0.0
 10
25.479685
 20
24.658433
 30
0.0
 10
29.604089
 20
22.862012
 30
0.0
  0
SPLINE
  5
197
100
AcDbEntity
  8
0
 62
7
100
AcDbSpline
 70
8
 71
3
 72
8
 73
4
 74
0
 40
0
 40
0
 40
0
 40
0
 40
1
 40
1
 40
1
 40
1
 10
29.604089
 20
22.862012
 30
0.0
 10
31.231696
 20
22.153095
 30
0.0
 10
33.616065
 20
21.996654
 30
0.0
 10
34.125281
 20
22.565368
 30
0.0
  0
LWPOLYLINE
  5
198
100
AcDbEntity
  8
0
 62
7
100
AcDbPolyline
 90
2
 70
1
 10
29.219316
 20
22.483115
 30
0.0
 10
29.219316
 20
22.483115
 30
0.0
  0
SPLINE
  5
199
100
AcDbEntity
  8
0
 62
7
100
AcDbSpline
 70
8
 71
3
 72
8
 73
4
 74
0
 40
0
 40
0
 40
0
 40
0
 40
1
 40
1
 40
1
 40
1
 10
35.910969
 20
37.189396
 30
0.0
 10
35.543911
 20
37.623219
 30
0.0
 10
35.554350
 20
37.632894
 30
0.0
 10
36.022384
 20
37.292667
 30
0.0
  0
SPLINE
  5
19a
100
AcDbEntity
  8
0
 62
7
100
AcDbSpline
 70
8
 71
3
 72
8
 73
4
 74
0
 40
0
 40
0
 40
0
 40
0
 40
1
 40
1
 40
1
 40
1
 10
36.022384
 20
37.292667
 30
0.0
 10
36.306416
 20
37.086199
 30
0.0
 10
36.538800
 20
36.870801
 30
0.0
 10
36.538800
 20
36.814001
 30
0.0
  0
SPLINE
  5
19b
100
AcDbEntity
  8
0
 62
7
100
AcDbSpline
 70
8
 71
3
 72
8
 73
4
 74
0
 40
0
 40
0
 40
0
 40
0
 40
1
 40
1
 40
1
 40
1
 10
36.538800
 20
36.814001
 30
0.0
 10
36.538800
 20
36.588881
 30
0.0
 10
36.296473
 20
36.733776
 30
0.0
 10
35.910969
 20
37.189396
 30
0.0
  0
LWPOLYLINE
  5
19c
100
AcDbEntity
  8
0
 62
7
100
AcDbPolyline
 90
2
 70
1
 10
34.125281
 20
22.565368
 30
0.0
 10
34.125281
 20
22.565368
 30
0.0
  0
SPLINE
  5
19d
100
AcDbEntity
  8
0
 62
7
100
AcDbSpline
 70
8
 71
3
 72
8
 73
4
 74
0
 40
0
 40
0
 40
0
 40
0
 40
1
 40
1
 40
1
 40
1
 10
35.653517
 20
38.989708
 30
0.0
 10
35.653517
 20
39.064926
 30
0.0
 10
36.184688
 20
39.516411
 30
0.0
 10
36.833895
 20
39.993006
 30
0.0
  0
SPLINE
  5
19e
100
AcDbEntity
  8
0
 62
7
100
AcDbSpline
 70
8
 71
3
 72
8
 73
4
 74
0
 40
0
 40
0
 40
0
 40
0
 40
1
 40
1
 40
1
 40
1
 10
36.833895
 20
39.993006
 30
0.0
 10
37.483102
 20
40.469600
 30
0.0
 10
38.014269
 20
40.797999
 30
0.0
 10
38.014269
 20
40.722781
 30
0.0
  0
SPLINE
  5
19f
100
AcDbEntity
  8
0
 62
7
100
AcDbSpline
 70
8
 71
3
 72
8
 73
4
 74
0
 40
0
 40
0
 40
0
 40
0
 40
1
 40
1
 40
1
 40
1
 10
38.014269
 20
40.722781
 30
0.0
 10
38.014269
 20
40.647561
 30
0.0
 10
37.483102
 20
40.196076
 30
0.0
 10
36.833895
 20
39.719481
 30
0.0
  0
SPLINE
  5
1a0
100
AcDbEntity
  8
0
 62
7
100
AcDbSpline
 70
8
 71
3
 72
8
 73
4
 74
0
 40
0
 40
0
 40
0
 40
0
 40
1
 40
1
 40
1
 40
1
 10
36.833895
 20
39.719481
 30
0.0
 10
36.184688
 20
39.242887
 30
0.0
 10
35.653517
 20
38.914488
 30
0.0
 10
35.653517
 20
38.989708
 30
0.0
  0
LWPOLYLINE
  5
1a1
100
AcDbEntity
  8
0
 62
7
100
AcDbPolyline
 90
2
 70
1
 10
35.910969
 20
37.189396
 30
0.0
 10
35.910969
 20
37.189396
 30
0.0
  0
SPLINE
  5
1a2
100
AcDbEntity
  8
0
 62
7
100
AcDbSpline
 70
8
 71
3
 72
8
 73
4
 74
0
 40
0
 40
0
 40
0
 40
0
 40
1
 40
1
 40
1
 40
1
 10
38.309364
 20
40.904366
 30
0.0
 10
38.309364
 20
40.979584
 30
0.0
 10
38.840534
 20
41.431069
 30
0.0
 10
39.489741
 20
41.907666
 30
0.0
  0
SPLINE
  5
1a3
100
AcDbEntity
  8
0
 62
7
100
AcDbSpline
 70
8
 71
3
 72
8
 73
4
 74
0
 40
0
 40
0
 40
0
 40
0
 40
1
 40
1
 40
1
 40
1
 10
39.489741
 20
41.907666
 30
0.0
 10
40.138948
 20
42.384260
 30
0.0
 10
40.670119
 20
42.712660
 30
0.0
 10
40.670119
 20
42.637439
 30
0.0
  0
SPLINE
  5
1a4
100
AcDbEntity
  8
0
 62
7
100
AcDbSpline
 70
8
 71
3
 72
8
 73
4
 74
0
 40
0
 40
0
 40
0
 40
0
 40
1
 40
1
 40
1
 40
1
 10
40.670119
 20
42.637439
 30
0.0
 10
40.670119
 20
42.562221
 30
0.0
 10
40.138948
 20
42.110736
 30
0.0
 10
39.489741
 20
41.634142
 30
0.0
  0
SPLINE
  5
1a5
100
AcDbEntity
  8
0
 62
7
100
AcDbSpline
 70
8
 71
3
 72
8
 73
4
 74
0
 40
0
 40
0
 40
0
 40
0
 40
1
 40
1
 40
1
 40
1
 10
39.489741
 20
41.634142
 30
0.0
 10
38.840534
 20
41.157548
 30
0.0
 10
38.309364
 20
40.829148
 30
0.0
 10
38.309364
 20
40.904366
 30
0.0
  0
LWPOLYLINE
  5
1a6
100
AcDbEntity
  8
0
 62
7
100
AcDbPolyline
 90
2
 70
1
 10
35.653517
 20
38.989708
 30
0.0
 10
35.653517
 20
38.989708
 30
0.0
  0
SPLINE
  5
1a7
100
AcDbEntity
  8
0
 62
7
100
AcDbSpline
 70
8
 71
3
 72
8
 73
4
 74
0
 40
0
 40
0
 40
0
 40
0
 40
1
 40
1
 40
1
 40
1
 10
58.022645
 20
38.703490
 30
0.0
 10
52.391324
 20
42.797569
 30
0.0
 10
47.776790
 20
46.314566
 30
0.0
 10
47.768129
 20
46.519042
 30
0.0
  0
SPLINE
  5
1a8
100
AcDbEntity
  8
0
 62
7
100
AcDbSpline
 70
8
 71
3
 72
8
 73
4
 74
0
 40
0
 40
0
 40
0
 40
0
 40
1
 40
1
 40
1
 40
1
 10
47.768129
 20
46.519042
 30
0.0
 10
47.752183
 20
46.895433
 30
0.0
 10
53.706892
 20
46.840058
 30
0.0
 10
69.263443
 20
46.319158
 30
0.0
  0
LWPOLYLINE
  5
1a9
100
AcDbEntity
  8
0
 62
7
100
AcDbPolyline
 90
2
 70
1
 10
38.309364
 20
40.904366
 30
0.0
 10
38.309364
 20
40.904366
 30
0.0
  0
SPLINE
  5
1aa
100
AcDbEntity
  8
0
 62
7
100
AcDbSpline
 70
8
 71
3
 72
8
 73
4
 74
0
 40
0
 40
0
 40
0
 40
0
 40
1
 40
1
 40
1
 40
1
 10
75.008667
 20
45.386337
 30
0.0
 10
75.943689
 20
44.223536
 30
0.0
 10
76.027145
 20
41.373081
 30
0.0
 10
75.200070
 20
38.849162
 30
0.0
  0
SPLINE
  5
1ab
100
AcDbEntity
  8
0
 62
7
100
AcDbSpline
 70
8
 71
3
 72
8
 73
4
 74
0
 40
0
 40
0
 40
0
 40
0
 40
1
 40
1
 40
1
 40
1
 10
75.200070
 20
38.849162
 30
0.0
 10
74.503153
 20
36.722434
 30
0.0
 10
73.450659
 20
34.630665
 30
0.0
 10
72.431456
 20
33.346709
 30
0.0
  0
SPLINE
  5
1ac
100
AcDbEntity
  8
0
 62
7
100
AcDbSpline
 70
8
 71
3
 72
8
 73
4
 74
0
 40
0
 40
0
 40
0
 40
0
 40
1
 40
1
 40
1
 40
1
 10
72.431456
 20
33.346709
 30
0.0
 10
71.704273
 20
32.430624
 30
0.0
 10
69.649504
 20
31.235802
 30
0.0
 10
68.825674
 20
31.249990
 30
0.0
  0
SPLINE
  5
1ad
100
AcDbEntity
  8
0
 62
7
100
AcDbSpline
 70
8
 71
3
 72
8
 73
4
 74
0
 40
0
 40
0
 40
0
 40
0
 40
1
 40
1
 40
1
 40
1
 10
68.825674
 20
31.249990
 30
0.0
 10
68.515332
 20
31.255324
 30
0.0
 10
63.653969
 20
34.609411
 30
0.0
 10
58.022645
 20
38.703490
 30
0.0
  0
LWPOLYLINE
  5
1ae
100
AcDbEntity
  8
0
 62
7
100
AcDbPolyline
 90
3
 70
1
 10
69.263443
 20
46.319158
 30
0.0
 10
74.396792
 20
46.147270
 30
0.0
 10
75.008667
 20
45.386337
 30
0.0
  0
SPLINE
  5
1af
100
AcDbEntity
  8
0
 62
7
100
AcDbSpline
 70
8
 71
3
 72
8
 73
4
 74
0
 40
0
 40
0
 40
0
 40
0
 40
1
 40
1
 40
1
 40
1
 10
70.511224
 20
32.454255
 30
0.0
 10
73.784869
 20
34.516145
 30
0.0
 10
76.350868
 20
42.200483
 30
0.0
 10
74.636111
 20
44.806974
 30
0.0
  0
LWPOLYLINE
  5
1b0
100
AcDbEntity
  8
0
 62
7
100
AcDbPolyline
 90
2
 70
1
 10
58.022645
 20
38.703490
 30
0.0
 10
58.022645
 20
38.703490
 30
0.0
  0
SPLINE
  5
1b1
100
AcDbEntity
  8
0
 62
7
100
AcDbSpline
 70
8
 71
3
 72
8
 73
4
 74
0
 40
0
 40
0
 40
0
 40
0
 40
1
 40
1
 40
1
 40
1
 10
67.333636
 20
45.834848
 30
0.0
 10
63.624068
 20
45.933840
 30
0.0
 10
57.933119
 20
46.091452
 30
0.0
 10
54.687086
 20
46.185097
 30
0.0
  0
SPLINE
  5
1b2
100
AcDbEntity
  8
0
 62
7
100
AcDbSpline
 70
8
 71
3
 72
8
 73
4
 74
0
 40
0
 40
0
 40
0
 40
0
 40
1
 40
1
 40
1
 40
1
 10
54.687086
 20
46.185097
 30
0.0
 10
51.290212
 20
46.283098
 30
0.0
 10
48.889505
 20
46.253154
 30
0.0
 10
49.030941
 20
46.114555
 30
0.0
  0
SPLINE
  5
1b3
100
AcDbEntity
  8
0
 62
7
100
AcDbSpline
 70
8
 71
3
 72
8
 73
4
 74
0
 40
0
 40
0
 40
0
 40
0
 40
1
 40
1
 40
1
 40
1
 10
49.030941
 20
46.114555
 30
0.0
 10
49.970442
 20
45.193901
 30
0.0
 10
68.648518
 20
31.805177
 30
0.0
 10
69.004423
 20
31.797269
 30
0.0
  0
SPLINE
  5
1b4
100
AcDbEntity
  8
0
 62
7
100
AcDbSpline
 70
8
 71
3
 72
8
 73
4
 74
0
 40
0
 40
0
 40
0
 40
0
 40
1
 40
1
 40
1
 40
1
 10
69.004423
 20
31.797269
 30
0.0
 10
69.250772
 20
31.791794
 30
0.0
 10
69.928833
 20
32.087439
 30
0.0
 10
70.511224
 20
32.454255
 30
0.0
  0
LWPOLYLINE
  5
1b5
100
AcDbEntity
  8
0
 62
7
100
AcDbPolyline
 90
3
 70
1
 10
74.636111
 20
44.806974
 30
0.0
 10
74.078301
 20
45.654863
 30
0.0
 10
67.333636
 20
45.834848
 30
0.0
  0
SPLINE
  5
1b6
100
AcDbEntity
  8
0
 62
7
100
AcDbSpline
 70
8
 71
3
 72
8
 73
4
 74
0
 40
0
 40
0
 40
0
 40
0
 40
1
 40
1
 40
1
 40
1
 10
58.080667
 20
42.317949
 30
0.0
 10
58.282716
 20
42.543606
 30
0.0
 10
58.514423
 20
42.728233
 30
0.0
 10
58.595573
 20
42.728233
 30
0.0
  0
SPLINE
  5
1b7
100
AcDbEntity
  8
0
 62
7
100
AcDbSpline
 70
8
 71
3
 72
8
 73
4
 74
0
 40
0
 40
0
 40
0
 40
0
 40
1
 40
1
 40
1
 40
1
 10
58.595573
 20
42.728233
 30
0.0
 10
58.676726
 20
42.728233
 30
0.0
 10
58.577821
 20
42.543606
 30
0.0
 10
58.375762
 20
42.317949
 30
0.0
  0
SPLINE
  5
1b8
100
AcDbEntity
  8
0
 62
7
100
AcDbSpline
 70
8
 71
3
 72
8
 73
4
 74
0
 40
0
 40
0
 40
0
 40
0
 40
1
 40
1
 40
1
 40
1
 10
58.375762
 20
42.317949
 30
0.0
 10
58.173713
 20
42.092293
 30
0.0
 10
57.942006
 20
41.907666
 30
0.0
 10
57.860856
 20
41.907666
 30
0.0
  0
SPLINE
  5
1b9
100
AcDbEntity
  8
0
 62
7
100
AcDbSpline
 70
8
 71
3
 72
8
 73
4
 74
0
 40
0
 40
0
 40
0
 40
0
 40
1
 40
1
 40
1
 40
1
 10
57.860856
 20
41.907666
 30
0.0
 10
57.779703
 20
41.907666
 30
0.0
 10
57.878607
 20
42.092293
 30
0.0
 10
58.080667
 20
42.317949
 30
0.0
  0
LWPOLYLINE
  5
1ba
100
AcDbEntity
  8
0
 62
7
100
AcDbPolyline
 90
2
 70
1
 10
70.511224
 20
32.454255
 30
0.0
 10
70.511224
 20
32.454255
 30
0.0
  0
SPLINE
  5
1bb
100
AcDbEntity
  8
0
 62
7
100
AcDbSpline
 70
8
 71
3
 72
8
 73
4
 74
0
 40
0
 40
0
 40
0
 40
0
 40
1
 40
1
 40
1
 40
1
 10
19.275795
 20
33.062381
 30
0.0
 10
17.842076
 20
33.762967
 30
0.0
 10
17.057815
 20
34.559841
 30
0.0
 10
16.127620
 20
36.261187
 30
0.0
  0
SPLINE
  5
1bc
100
AcDbEntity
  8
0
 62
7
100
AcDbSpline
 70
8
 71
3
 72
8
 73
4
 74
0
 40
0
 40
0
 40
0
 40
0
 40
1
 40
1
 40
1
 40
1
 10
16.127620
 20
36.261187
 30
0.0
 10
14.984656
 20
38.351694
 30
0.0
 10
14.110005
 20
41.572510
 30
0.0
 10
14.118128
 20
43.660935
 30
0.0
  0
SPLINE
  5
1bd
100
AcDbEntity
  8
0
 62
7
100
AcDbSpline
 70
8
 71
3
 72
8
 73
4
 74
0
 40
0
 40
0
 40
0
 40
0
 40
1
 40
1
 40
1
 40
1
 10
14.118128
 20
43.660935
 30
0.0
 10
14.125116
 20
45.458253
 30
0.0
 10
14.929383
 20
47.539828
 30
0.0
 10
15.726343
 20
47.823295
 30
0.0
  0
SPLINE
  5
1be
100
AcDbEntity
  8
0
 62
7
100
AcDbSpline
 70
8
 71
3
 72
8
 73
4
 74
0
 40
0
 40
0
 40
0
 40
0
 40
1
 40
1
 40
1
 40
1
 10
15.726343
 20
47.823295
 30
0.0
 10
15.978874
 20
47.913118
 30
0.0
 10
21.860522
 20
47.786773
 30
0.0
 10
28.796674
 20
47.542526
 30
0.0
  0
SPLINE
  5
1bf
100
AcDbEntity
  8
0
 62
7
100
AcDbSpline
 70
8
 71
3
 72
8
 73
4
 74
0
 40
0
 40
0
 40
0
 40
0
 40
1
 40
1
 40
1
 40
1
 10
28.796674
 20
47.542526
 30
0.0
 10
35.732822
 20
47.298280
 30
0.0
 10
41.640241
 20
47.099830
 30
0.0
 10
41.924266
 20
47.101523
 30
0.0
  0
SPLINE
  5
1c0
100
AcDbEntity
  8
0
 62
7
100
AcDbSpline
 70
8
 71
3
 72
8
 73
4
 74
0
 40
0
 40
0
 40
0
 40
0
 40
1
 40
1
 40
1
 40
1
 10
41.924266
 20
47.101523
 30
0.0
 10
42.925136
 20
47.107478
 30
0.0
 10
42.421813
 20
46.349957
 30
0.0
 10
40.743892
 20
45.324999
 30
0.0
  0
SPLINE
  5
1c1
100
AcDbEntity
  8
0
 62
7
100
AcDbSpline
 70
8
 71
3
 72
8
 73
4
 74
0
 40
0
 40
0
 40
0
 40
0
 40
1
 40
1
 40
1
 40
1
 10
40.743892
 20
45.324999
 30
0.0
 10
39.810656
 20
44.754927
 30
0.0
 10
34.902922
 20
41.660369
 30
0.0
 10
29.837815
 20
38.448200
 30
0.0
  0
SPLINE
  5
1c2
100
AcDbEntity
  8
0
 62
7
100
AcDbSpline
 70
8
 71
3
 72
8
 73
4
 74
0
 40
0
 40
0
 40
0
 40
0
 40
1
 40
1
 40
1
 40
1
 10
29.837815
 20
38.448200
 30
0.0
 10
24.772708
 20
35.236026
 30
0.0
 10
20.523353
 20
32.612815
 30
0.0
 10
20.394803
 20
32.618841
 30
0.0
  0
SPLINE
  5
1c3
100
AcDbEntity
  8
0
 62
7
100
AcDbSpline
 70
8
 71
3
 72
8
 73
4
 74
0
 40
0
 40
0
 40
0
 40
0
 40
1
 40
1
 40
1
 40
1
 10
20.394803
 20
32.618841
 30
0.0
 10
20.266254
 20
32.624852
 30
0.0
 10
19.762701
 20
32.824457
 30
0.0
 10
19.275795
 20
33.062381
 30
0.0
  0
LWPOLYLINE
  5
1c4
100
AcDbEntity
  8
0
 62
7
100
AcDbPolyline
 90
2
 70
1
 10
58.080667
 20
42.317949
 30
0.0
 10
58.080667
 20
42.317949
 30
0.0
  0
SPLINE
  5
1c5
100
AcDbEntity
  8
0
 62
7
100
AcDbSpline
 70
8
 71
3
 72
8
 73
4
 74
0
 40
0
 40
0
 40
0
 40
0
 40
1
 40
1
 40
1
 40
1
 10
30.813285
 20
39.768439
 30
0.0
 10
36.555152
 20
43.405862
 30
0.0
 10
41.210730
 20
46.421159
 30
0.0
 10
41.159015
 20
46.469094
 30
0.0
  0
SPLINE
  5
1c6
100
AcDbEntity
  8
0
 62
7
100
AcDbSpline
 70
8
 71
3
 72
8
 73
4
 74
0
 40
0
 40
0
 40
0
 40
0
 40
1
 40
1
 40
1
 40
1
 10
41.159015
 20
46.469094
 30
0.0
 10
41.107295
 20
46.517029
 30
0.0
 10
35.444636
 20
46.755922
 30
0.0
 10
28.575322
 20
46.999968
 30
0.0
  0
LWPOLYLINE
  5
1c7
100
AcDbEntity
  8
0
 62
7
100
AcDbPolyline
 90
2
 70
1
 10
19.275795
 20
33.062381
 30
0.0
 10
19.275795
 20
33.062381
 30
0.0
  0
SPLINE
  5
1c8
100
AcDbEntity
  8
0
 62
7
100
AcDbSpline
 70
8
 71
3
 72
8
 73
4
 74
0
 40
0
 40
0
 40
0
 40
0
 40
1
 40
1
 40
1
 40
1
 10
15.547711
 20
46.795478
 30
0.0
 10
15.251843
 20
46.438961
 30
0.0
 10
14.922607
 20
45.731938
 30
0.0
 10
14.816078
 20
45.224316
 30
0.0
  0
SPLINE
  5
1c9
100
AcDbEntity
  8
0
 62
7
100
AcDbSpline
 70
8
 71
3
 72
8
 73
4
 74
0
 40
0
 40
0
 40
0
 40
0
 40
1
 40
1
 40
1
 40
1
 10
14.816078
 20
45.224316
 30
0.0
 10
14.306168
 20
42.794530
 30
0.0
 10
15.526349
 20
37.962561
 30
0.0
 10
17.250837
 20
35.582555
 30
0.0
  0
SPLINE
  5
1ca
100
AcDbEntity
  8
0
 62
7
100
AcDbSpline
 70
8
 71
3
 72
8
 73
4
 74
0
 40
0
 40
0
 40
0
 40
0
 40
1
 40
1
 40
1
 40
1
 10
17.250837
 20
35.582555
 30
0.0
 10
17.966594
 20
34.594724
 30
0.0
 10
19.737748
 20
33.154933
 30
0.0
 10
20.237168
 20
33.154933
 30
0.0
  0
SPLINE
  5
1cb
100
AcDbEntity
  8
0
 62
7
100
AcDbSpline
 70
8
 71
3
 72
8
 73
4
 74
0
 40
0
 40
0
 40
0
 40
0
 40
1
 40
1
 40
1
 40
1
 10
20.237168
 20
33.154933
 30
0.0
 10
20.312165
 20
33.154933
 30
0.0
 10
25.071417
 20
36.131009
 30
0.0
 10
30.813285
 20
39.768439
 30
0.0
  0
LWPOLYLINE
  5
1cc
100
AcDbEntity
  8
0
 62
7
100
AcDbPolyline
 90
3
 70
1
 10
28.575322
 20
46.999968
 30
0.0
 10
16.085655
 20
47.443686
 30
0.0
 10
15.547711
 20
46.795478
 30
0.0
  0
SPLINE
  5
1cd
100
AcDbEntity
  8
0
 62
7
100
AcDbSpline
 70
8
 71
3
 72
8
 73
4
 74
0
 40
0
 40
0
 40
0
 40
0
 40
1
 40
1
 40
1
 40
1
 10
33.587859
 20
42.845747
 30
0.0
 10
33.587859
 20
42.920965
 30
0.0
 10
33.853445
 20
43.114256
 30
0.0
 10
34.178048
 20
43.275278
 30
0.0
  0
SPLINE
  5
1ce
100
AcDbEntity
  8
0
 62
7
100
AcDbSpline
 70
8
 71
3
 72
8
 73
4
 74
0
 40
0
 40
0
 40
0
 40
0
 40
1
 40
1
 40
1
 40
1
 10
34.178048
 20
43.275278
 30
0.0
 10
34.502652
 20
43.436303
 30
0.0
 10
34.768237
 20
43.506509
 30
0.0
 10
34.768237
 20
43.431288
 30
0.0
  0
SPLINE
  5
1cf
100
AcDbEntity
  8
0
 62
7
100
AcDbSpline
 70
8
 71
3
 72
8
 73
4
 74
0
 40
0
 40
0
 40
0
 40
0
 40
1
 40
1
 40
1
 40
1
 10
34.768237
 20
43.431288
 30
0.0
 10
34.768237
 20
43.356070
 30
0.0
 10
34.502652
 20
43.162779
 30
0.0
 10
34.178048
 20
43.001757
 30
0.0
  0
SPLINE
  5
1d0
100
AcDbEntity
  8
0
 62
7
100
AcDbSpline
 70
8
 71
3
 72
8
 73
4
 74
0
 40
0
 40
0
 40
0
 40
0
 40
1
 40
1
 40
1
 40
1
 10
34.178048
 20
43.001757
 30
0.0
 10
33.853445
 20
42.840732
 30
0.0
 10
33.587859
 20
42.770529
 30
0.0
 10
33.587859
 20
42.845747
 30
0.0
  0
LWPOLYLINE
  5
1d1
100
AcDbEntity
  8
0
 62
7
100
AcDbPolyline
 90
2
 70
1
 10
30.813285
 20
39.768439
 30
0.0
 10
30.813285
 20
39.768439
 30
0.0
  0
SPLINE
  5
1d2
100
AcDbEntity
  8
0
 62
7
100
AcDbSpline
 70
8
 71
3
 72
8
 73
4
 74
0
 40
0
 40
0
 40
0
 40
0
 40
1
 40
1
 40
1
 40
1
 10
31.522202
 20
45.326701
 30
0.0
 10
31.724247
 20
45.552357
 30
0.0
 10
31.955954
 20
45.736984
 30
0.0
 10
32.037107
 20
45.736984
 30
0.0
  0
SPLINE
  5
1d3
100
AcDbEntity
  8
0
 62
7
100
AcDbSpline
 70
8
 71
3
 72
8
 73
4
 74
0
 40
0
 40
0
 40
0
 40
0
 40
1
 40
1
 40
1
 40
1
 10
32.037107
 20
45.736984
 30
0.0
 10
32.118258
 20
45.736984
 30
0.0
 10
32.019356
 20
45.552357
 30
0.0
 10
31.817293
 20
45.326701
 30
0.0
  0
SPLINE
  5
1d4
100
AcDbEntity
  8
0
 62
7
100
AcDbSpline
 70
8
 71
3
 72
8
 73
4
 74
0
 40
0
 40
0
 40
0
 40
0
 40
1
 40
1
 40
1
 40
1
 10
31.817293
 20
45.326701
 30
0.0
 10
31.615247
 20
45.101044
 30
0.0
 10
31.383540
 20
44.916417
 30
0.0
 10
31.302387
 20
44.916417
 30
0.0
  0
SPLINE
  5
1d5
100
AcDbEntity
  8
0
 62
7
100
AcDbSpline
 70
8
 71
3
 72
8
 73
4
 74
0
 40
0
 40
0
 40
0
 40
0
 40
1
 40
1
 40
1
 40
1
 10
31.302387
 20
44.916417
 30
0.0
 10
31.221237
 20
44.916417
 30
0.0
 10
31.320167
 20
45.101044
 30
0.0
 10
31.522202
 20
45.326701
 30
0.0
  0
LWPOLYLINE
  5
1d6
100
AcDbEntity
  8
0
 62
7
100
AcDbPolyline
 90
2
 70
1
 10
33.587859
 20
42.845747
 30
0.0
 10
33.587859
 20
42.845747
 30
0.0
  0
SPLINE
  5
1d7
100
AcDbEntity
  8
0
 62
7
100
AcDbSpline
 70
8
 71
3
 72
8
 73
4
 74
0
 40
0
 40
0
 40
0
 40
0
 40
1
 40
1
 40
1
 40
1
 10
61.031608
 20
47.413093
 30
0.0
 10
49.745547
 20
47.832687
 30
0.0
 10
47.768445
 20
47.963201
 30
0.0
 10
47.835865
 20
48.284170
 30
0.0
  0
SPLINE
  5
1d8
100
AcDbEntity
  8
0
 62
7
100
AcDbSpline
 70
8
 71
3
 72
8
 73
4
 74
0
 40
0
 40
0
 40
0
 40
0
 40
1
 40
1
 40
1
 40
1
 10
47.835865
 20
48.284170
 30
0.0
 10
47.950955
 20
48.832087
 30
0.0
 10
69.212059
 20
62.148359
 30
0.0
 10
69.971787
 20
62.148359
 30
0.0
  0
SPLINE
  5
1d9
100
AcDbEntity
  8
0
 62
7
100
AcDbSpline
 70
8
 71
3
 72
8
 73
4
 74
0
 40
0
 40
0
 40
0
 40
0
 40
1
 40
1
 40
1
 40
1
 10
69.971787
 20
62.148359
 30
0.0
 10
74.189268
 20
62.148359
 30
0.0
 10
78.027465
 20
50.928245
 30
0.0
 10
74.954243
 20
47.583265
 30
0.0
  0
SPLINE
  5
1da
100
AcDbEntity
  8
0
 62
7
100
AcDbSpline
 70
8
 71
3
 72
8
 73
4
 74
0
 40
0
 40
0
 40
0
 40
0
 40
1
 40
1
 40
1
 40
1
 10
74.954243
 20
47.583265
 30
0.0
 10
74.452658
 20
47.037326
 30
0.0
 10
71.958705
 20
47.006843
 30
0.0
 10
61.031608
 20
47.413093
 30
0.0
  0
LWPOLYLINE
  5
1db
100
AcDbEntity
  8
0
 62
7
100
AcDbPolyline
 90
2
 70
1
 10
31.522202
 20
45.326701
 30
0.0
 10
31.522202
 20
45.326701
 30
0.0
  0
SPLINE
  5
1dc
100
AcDbEntity
  8
0
 62
7
100
AcDbSpline
 70
8
 71
3
 72
8
 73
4
 74
0
 40
0
 40
0
 40
0
 40
0
 40
1
 40
1
 40
1
 40
1
 10
74.904264
 20
48.540597
 30
0.0
 10
76.091096
 20
50.344846
 30
0.0
 10
75.481598
 20
54.936652
 30
0.0
 10
73.602695
 20
58.346247
 30
0.0
  0
SPLINE
  5
1dd
100
AcDbEntity
  8
0
 62
7
100
AcDbSpline
 70
8
 71
3
 72
8
 73
4
 74
0
 40
0
 40
0
 40
0
 40
0
 40
1
 40
1
 40
1
 40
1
 10
73.602695
 20
58.346247
 30
0.0
 10
72.707012
 20
59.971627
 30
0.0
 10
71.160945
 20
61.457552
 30
0.0
 10
70.165389
 20
61.649850
 30
0.0
  0
SPLINE
  5
1de
100
AcDbEntity
  8
0
 62
7
100
AcDbSpline
 70
8
 71
3
 72
8
 73
4
 74
0
 40
0
 40
0
 40
0
 40
0
 40
1
 40
1
 40
1
 40
1
 10
70.165389
 20
61.649850
 30
0.0
 10
69.914160
 20
61.698375
 30
0.0
 10
65.045988
 20
58.784027
 30
0.0
 10
59.347224
 20
55.173527
 30
0.0
  0
LWPOLYLINE
  5
1df
100
AcDbEntity
  8
0
 62
7
100
AcDbPolyline
 90
2
 70
1
 10
61.031608
 20
47.413093
 30
0.0
 10
61.031608
 20
47.413093
 30
0.0
  0
SPLINE
  5
1e0
100
AcDbEntity
  8
0
 62
7
100
AcDbSpline
 70
8
 71
3
 72
8
 73
4
 74
0
 40
0
 40
0
 40
0
 40
0
 40
1
 40
1
 40
1
 40
1
 10
51.098729
 20
48.407069
 30
0.0
 10
53.410479
 20
48.186162
 30
0.0
 10
64.955045
 20
47.767649
 30
0.0
 10
70.700279
 20
47.696478
 30
0.0
  0
LWPOLYLINE
  5
1e1
100
AcDbEntity
  8
0
 62
7
100
AcDbPolyline
 90
3
 70
1
 10
59.347224
 20
55.173527
 30
0.0
 10
48.985845
 20
48.608976
 30
0.0
 10
51.098729
 20
48.407069
 30
0.0
  0
SPLINE
  5
1e2
100
AcDbEntity
  8
0
 62
7
100
AcDbSpline
 70
8
 71
3
 72
8
 73
4
 74
0
 40
0
 40
0
 40
0
 40
0
 40
1
 40
1
 40
1
 40
1
 10
52.178785
 20
49.683820
 30
0.0
 10
52.178785
 20
49.759040
 30
0.0
 10
52.444371
 20
49.952329
 30
0.0
 10
52.768974
 20
50.113353
 30
0.0
  0
SPLINE
  5
1e3
100
AcDbEntity
  8
0
 62
7
100
AcDbSpline
 70
8
 71
3
 72
8
 73
4
 74
0
 40
0
 40
0
 40
0
 40
0
 40
1
 40
1
 40
1
 40
1
 10
52.768974
 20
50.113353
 30
0.0
 10
53.093578
 20
50.274375
 30
0.0
 10
53.359163
 20
50.344581
 30
0.0
 10
53.359163
 20
50.269363
 30
0.0
  0
SPLINE
  5
1e4
100
AcDbEntity
  8
0
 62
7
100
AcDbSpline
 70
8
 71
3
 72
8
 73
4
 74
0
 40
0
 40
0
 40
0
 40
0
 40
1
 40
1
 40
1
 40
1
 10
53.359163
 20
50.269363
 30
0.0
 10
53.359163
 20
50.194142
 30
0.0
 10
53.093578
 20
50.000851
 30
0.0
 10
52.768974
 20
49.839829
 30
0.0
  0
SPLINE
  5
1e5
100
AcDbEntity
  8
0
 62
7
100
AcDbSpline
 70
8
 71
3
 72
8
 73
4
 74
0
 40
0
 40
0
 40
0
 40
0
 40
1
 40
1
 40
1
 40
1
 10
52.768974
 20
49.839829
 30
0.0
 10
52.444371
 20
49.678804
 30
0.0
 10
52.178785
 20
49.608602
 30
0.0
 10
52.178785
 20
49.683820
 30
0.0
  0
LWPOLYLINE
  5
1e6
100
AcDbEntity
  8
0
 62
7
100
AcDbPolyline
 90
4
 70
1
 10
70.700279
 20
47.696478
 30
0.0
 10
74.319519
 20
47.651645
 30
0.0
 10
74.904264
 20
48.540597
 30
0.0
 10
74.904264
 20
48.540597
 30
0.0
  0
SPLINE
  5
1e7
100
AcDbEntity
  8
0
 62
7
100
AcDbSpline
 70
8
 71
3
 72
8
 73
4
 74
0
 40
0
 40
0
 40
0
 40
0
 40
1
 40
1
 40
1
 40
1
 10
58.338119
 20
51.959631
 30
0.0
 10
57.971061
 20
52.393455
 30
0.0
 10
57.981497
 20
52.403129
 30
0.0
 10
58.449535
 20
52.062902
 30
0.0
  0
SPLINE
  5
1e8
100
AcDbEntity
  8
0
 62
7
100
AcDbSpline
 70
8
 71
3
 72
8
 73
4
 74
0
 40
0
 40
0
 40
0
 40
0
 40
1
 40
1
 40
1
 40
1
 10
58.449535
 20
52.062902
 30
0.0
 10
58.733563
 20
51.856434
 30
0.0
 10
58.965950
 20
51.641034
 30
0.0
 10
58.965950
 20
51.584239
 30
0.0
  0
SPLINE
  5
1e9
100
AcDbEntity
  8
0
 62
7
100
AcDbSpline
 70
8
 71
3
 72
8
 73
4
 74
0
 40
0
 40
0
 40
0
 40
0
 40
1
 40
1
 40
1
 40
1
 10
58.965950
 20
51.584239
 30
0.0
 10
58.965950
 20
51.359116
 30
0.0
 10
58.723620
 20
51.504012
 30
0.0
 10
58.338119
 20
51.959631
 30
0.0
  0
LWPOLYLINE
  5
1ea
100
AcDbEntity
  8
0
 62
7
100
AcDbPolyline
 90
2
 70
1
 10
52.178785
 20
49.683820
 30
0.0
 10
52.178785
 20
49.683820
 30
0.0
  0
SPLINE
  5
1eb
100
AcDbEntity
  8
0
 62
7
100
AcDbSpline
 70
8
 71
3
 72
8
 73
4
 74
0
 40
0
 40
0
 40
0
 40
0
 40
1
 40
1
 40
1
 40
1
 10
56.231409
 20
52.061954
 30
0.0
 10
56.431586
 20
52.248884
 30
0.0
 10
56.669697
 20
52.332924
 30
0.0
 10
56.760553
 20
52.248709
 30
0.0
  0
SPLINE
  5
1ec
100
AcDbEntity
  8
0
 62
7
100
AcDbSpline
 70
8
 71
3
 72
8
 73
4
 74
0
 40
0
 40
0
 40
0
 40
0
 40
1
 40
1
 40
1
 40
1
 10
56.760553
 20
52.248709
 30
0.0
 10
56.851409
 20
52.164494
 30
0.0
 10
56.687633
 20
52.011552
 30
0.0
 10
56.396605
 20
51.908834
 30
0.0
  0
SPLINE
  5
1ed
100
AcDbEntity
  8
0
 62
7
100
AcDbSpline
 70
8
 71
3
 72
8
 73
4
 74
0
 40
0
 40
0
 40
0
 40
0
 40
1
 40
1
 40
1
 40
1
 10
56.396605
 20
51.908834
 30
0.0
 10
55.976037
 20
51.760399
 30
0.0
 10
55.942143
 20
51.791819
 30
0.0
 10
56.231409
 20
52.061954
 30
0.0
  0
LWPOLYLINE
  5
1ee
100
AcDbEntity
  8
0
 62
7
100
AcDbPolyline
 90
2
 70
1
 10
58.338119
 20
51.959631
 30
0.0
 10
58.338119
 20
51.959631
 30
0.0
  0
SPLINE
  5
1ef
100
AcDbEntity
  8
0
 62
7
100
AcDbSpline
 70
8
 71
3
 72
8
 73
4
 74
0
 40
0
 40
0
 40
0
 40
0
 40
1
 40
1
 40
1
 40
1
 10
24.602034
 20
48.527140
 30
0.0
 10
18.716489
 20
48.694368
 30
0.0
 10
15.925358
 20
48.872484
 30
0.0
 10
15.629727
 20
49.099710
 30
0.0
  0
SPLINE
  5
1f0
100
AcDbEntity
  8
0
 62
7
100
AcDbSpline
 70
8
 71
3
 72
8
 73
4
 74
0
 40
0
 40
0
 40
0
 40
0
 40
1
 40
1
 40
1
 40
1
 10
15.629727
 20
49.099710
 30
0.0
 10
12.436724
 20
51.553917
 30
0.0
 10
16.136870
 20
62.307817
 30
0.0
 10
20.600844
 20
63.547492
 30
0.0
  0
LWPOLYLINE
  5
1f1
100
AcDbEntity
  8
0
 62
7
100
AcDbPolyline
 90
2
 70
1
 10
56.231409
 20
52.061954
 30
0.0
 10
56.231409
 20
52.061954
 30
0.0
  0
SPLINE
  5
1f2
100
AcDbEntity
  8
0
 62
7
100
AcDbSpline
 70
8
 71
3
 72
8
 73
4
 74
0
 40
0
 40
0
 40
0
 40
0
 40
1
 40
1
 40
1
 40
1
 10
32.052892
 20
56.368267
 30
0.0
 10
37.744414
 20
52.251096
 30
0.0
 10
42.410016
 20
48.728641
 30
0.0
 10
42.420896
 20
48.540597
 30
0.0
  0
SPLINE
  5
1f3
100
AcDbEntity
  8
0
 62
7
100
AcDbSpline
 70
8
 71
3
 72
8
 73
4
 74
0
 40
0
 40
0
 40
0
 40
0
 40
1
 40
1
 40
1
 40
1
 10
42.420896
 20
48.540597
 30
0.0
 10
42.443925
 20
48.142951
 30
0.0
 10
38.235399
 20
48.139773
 30
0.0
 10
24.602034
 20
48.527135
 30
0.0
  0
LWPOLYLINE
  5
1f4
100
AcDbEntity
  8
0
 62
7
100
AcDbPolyline
 90
3
 70
1
 10
20.600844
 20
63.547492
 30
0.0
 10
21.704668
 20
63.854031
 30
0.0
 10
32.052892
 20
56.368267
 30
0.0
  0
SPLINE
  5
1f5
100
AcDbEntity
  8
0
 62
7
100
AcDbSpline
 70
8
 71
3
 72
8
 73
4
 74
0
 40
0
 40
0
 40
0
 40
0
 40
1
 40
1
 40
1
 40
1
 10
40.948486
 20
49.096340
 30
0.0
 10
40.695832
 20
49.279604
 30
0.0
 10
36.214121
 20
52.545753
 30
0.0
 10
30.989123
 20
56.354449
 30
0.0
  0
SPLINE
  5
1f6
100
AcDbEntity
  8
0
 62
7
100
AcDbSpline
 70
8
 71
3
 72
8
 73
4
 74
0
 40
0
 40
0
 40
0
 40
0
 40
1
 40
1
 40
1
 40
1
 10
30.989123
 20
56.354449
 30
0.0
 10
23.300155
 20
61.959233
 30
0.0
 10
21.370391
 20
63.244422
 30
0.0
 10
20.866257
 20
63.096115
 30
0.0
  0
SPLINE
  5
1f7
100
AcDbEntity
  8
0
 62
7
100
AcDbSpline
 70
8
 71
3
 72
8
 73
4
 74
0
 40
0
 40
0
 40
0
 40
0
 40
1
 40
1
 40
1
 40
1
 10
20.866257
 20
63.096115
 30
0.0
 10
17.204515
 20
62.018875
 30
0.0
 10
13.597768
 20
53.201082
 30
0.0
 10
15.583885
 20
50.181733
 30
0.0
  0
SPLINE
  5
1f8
100
AcDbEntity
  8
0
 62
7
100
AcDbSpline
 70
8
 71
3
 72
8
 73
4
 74
0
 40
0
 40
0
 40
0
 40
0
 40
1
 40
1
 40
1
 40
1
 10
15.583885
 20
50.181733
 30
0.0
 10
16.163783
 20
49.300155
 30
0.0
 10
16.188855
 20
49.292482
 30
0.0
 10
18.607495
 20
49.256414
 30
0.0
  0
SPLINE
  5
1f9
100
AcDbEntity
  8
0
 62
7
100
AcDbSpline
 70
8
 71
3
 72
8
 73
4
 74
0
 40
0
 40
0
 40
0
 40
0
 40
1
 40
1
 40
1
 40
1
 10
18.607495
 20
49.256414
 30
0.0
 10
19.948871
 20
49.236432
 30
0.0
 10
23.635810
 20
49.135809
 30
0.0
 10
26.800695
 20
49.032851
 30
0.0
  0
SPLINE
  5
1fa
100
AcDbEntity
  8
0
 62
7
100
AcDbSpline
 70
8
 71
3
 72
8
 73
4
 74
0
 40
0
 40
0
 40
0
 40
0
 40
1
 40
1
 40
1
 40
1
 10
26.800695
 20
49.032851
 30
0.0
 10
37.040574
 20
48.699742
 30
0.0
 10
41.467857
 20
48.719610
 30
0.0
 10
40.948486
 20
49.096340
 30
0.0
  0
LWPOLYLINE
  5
1fb
100
AcDbEntity
  8
0
 62
7
100
AcDbPolyline
 90
2
 70
1
 10
24.602034
 20
48.527135
 30
0.0
 10
24.602034
 20
48.527140
 30
0.0
  0
LWPOLYLINE
  5
1fc
100
AcDbEntity
  8
0
 62
7
100
AcDbPolyline
 90
2
 70
1
 10
40.948486
 20
49.096340
 30
0.0
 10
40.948486
 20
49.096340
 30
0.0
  0
SPLINE
  5
1fd
100
AcDbEntity
  8
0
 62
7
100
AcDbSpline
 70
8
 71
3
 72
8
 73
4
 74
0
 40
0
 40
0
 40
0
 40
0
 40
1
 40
1
 40
1
 40
1
 10
22.319357
 20
65.557211
 30
0.0
 10
22.499453
 20
67.613998
 30
0.0
 10
24.116625
 20
69.548942
 30
0.0
 10
27.390882
 20
71.625279
 30
0.0
  0
SPLINE
  5
1fe
100
AcDbEntity
  8
0
 62
7
100
AcDbSpline
 70
8
 71
3
 72
8
 73
4
 74
0
 40
0
 40
0
 40
0
 40
0
 40
1
 40
1
 40
1
 40
1
 10
27.390882
 20
71.625279
 30
0.0
 10
30.621568
 20
73.673987
 30
0.0
 10
33.228870
 20
74.424207
 30
0.0
 10
35.273818
 20
73.893511
 30
0.0
  0
SPLINE
  5
1ff
100
AcDbEntity
  8
0
 62
7
100
AcDbSpline
 70
8
 71
3
 72
8
 73
4
 74
0
 40
0
 40
0
 40
0
 40
0
 40
1
 40
1
 40
1
 40
1
 10
35.273818
 20
73.893511
 30
0.0
 10
36.431175
 20
73.593158
 30
0.0
 10
36.547809
 20
73.473378
 30
0.0
 10
36.954483
 20
72.167544
 30
0.0
  0
SPLINE
  5
200
100
AcDbEntity
  8
0
 62
7
100
AcDbSpline
 70
8
 71
3
 72
8
 73
4
 74
0
 40
0
 40
0
 40
0
 40
0
 40
1
 40
1
 40
1
 40
1
 10
36.954483
 20
72.167544
 30
0.0
 10
40.201957
 20
61.739822
 30
0.0
 10
43.621060
 20
50.382331
 30
0.0
 10
43.621060
 20
50.022678
 30
0.0
  0
SPLINE
  5
201
100
AcDbEntity
  8
0
 62
7
100
AcDbSpline
 70
8
 71
3
 72
8
 73
4
 74
0
 40
0
 40
0
 40
0
 40
0
 40
1
 40
1
 40
1
 40
1
 10
43.621060
 20
50.022678
 30
0.0
 10
43.621060
 20
49.771673
 30
0.0
 10
43.513592
 20
49.566305
 30
0.0
 10
43.382252
 20
49.566305
 30
0.0
  0
SPLINE
  5
202
100
AcDbEntity
  8
0
 62
7
100
AcDbSpline
 70
8
 71
3
 72
8
 73
4
 74
0
 40
0
 40
0
 40
0
 40
0
 40
1
 40
1
 40
1
 40
1
 10
43.382252
 20
49.566305
 30
0.0
 10
43.250908
 20
49.566305
 30
0.0
 10
38.437185
 20
52.926254
 30
0.0
 10
32.685090
 20
57.032858
 30
0.0
  0
LWPOLYLINE
  5
203
100
AcDbEntity
  8
0
 62
7
100
AcDbPolyline
 90
3
 70
1
 10
32.685090
 20
57.032858
 30
0.0
 10
22.226735
 20
64.499408
 30
0.0
 10
22.319357
 20
65.557211
 30
0.0
  0
LWPOLYLINE
  5
204
100
AcDbEntity
  8
0
 62
7
100
AcDbPolyline
 90
2
 70
1
 10
32.685090
 20
57.032858
 30
0.0
 10
32.685090
 20
57.032858
 30
0.0
  0
SPLINE
  5
205
100
AcDbEntity
  8
0
 62
7
100
AcDbSpline
 70
8
 71
3
 72
8
 73
4
 74
0
 40
0
 40
0
 40
0
 40
0
 40
1
 40
1
 40
1
 40
1
 10
35.155482
 20
73.379355
 30
0.0
 10
32.971054
 20
74.048487
 30
0.0
 10
28.868079
 20
72.405184
 30
0.0
 10
25.466173
 20
69.498636
 30
0.0
  0
SPLINE
  5
206
100
AcDbEntity
  8
0
 62
7
100
AcDbSpline
 70
8
 71
3
 72
8
 73
4
 74
0
 40
0
 40
0
 40
0
 40
0
 40
1
 40
1
 40
1
 40
1
 10
25.466173
 20
69.498636
 30
0.0
 10
23.837301
 20
68.106950
 30
0.0
 10
23.045983
 20
66.940549
 30
0.0
 10
22.916389
 20
65.740263
 30
0.0
  0
SPLINE
  5
207
100
AcDbEntity
  8
0
 62
7
100
AcDbSpline
 70
8
 71
3
 72
8
 73
4
 74
0
 40
0
 40
0
 40
0
 40
0
 40
1
 40
1
 40
1
 40
1
 10
22.916389
 20
65.740263
 30
0.0
 10
22.817782
 20
64.826995
 30
0.0
 10
22.903607
 20
64.757018
 30
0.0
 10
32.850125
 20
57.639901
 30
0.0
  0
SPLINE
  5
208
100
AcDbEntity
  8
0
 62
7
100
AcDbSpline
 70
8
 71
3
 72
8
 73
4
 74
0
 40
0
 40
0
 40
0
 40
0
 40
1
 40
1
 40
1
 40
1
 10
32.850125
 20
57.639901
 30
0.0
 10
38.368382
 20
53.691375
 30
0.0
 10
42.906340
 20
50.475732
 30
0.0
 10
42.934472
 20
50.494026
 30
0.0
  0
SPLINE
  5
209
100
AcDbEntity
  8
0
 62
7
100
AcDbSpline
 70
8
 71
3
 72
8
 73
4
 74
0
 40
0
 40
0
 40
0
 40
0
 40
1
 40
1
 40
1
 40
1
 10
42.934472
 20
50.494026
 30
0.0
 10
42.962582
 20
50.512314
 30
0.0
 10
41.435494
 20
55.604164
 30
0.0
 10
39.540888
 20
61.809246
 30
0.0
  0
LWPOLYLINE
  5
20a
100
AcDbEntity
  8
0
 62
7
100
AcDbPolyline
 90
3
 70
1
 10
39.540888
 20
61.809246
 30
0.0
 10
36.096157
 20
73.091207
 30
0.0
 10
35.155482
 20
73.379355
 30
0.0
  0
SPLINE
  5
20b
100
AcDbEntity
  8
0
 62
7
100
AcDbSpline
 70
8
 71
3
 72
8
 73
4
 74
0
 40
0
 40
0
 40
0
 40
0
 40
1
 40
1
 40
1
 40
1
 10
38.678234
 20
54.510869
 30
0.0
 10
37.339242
 20
55.574170
 30
0.0
 10
36.243706
 20
56.508196
 30
0.0
 10
36.243706
 20
56.586490
 30
0.0
  0
SPLINE
  5
20c
100
AcDbEntity
  8
0
 62
7
100
AcDbSpline
 70
8
 71
3
 72
8
 73
4
 74
0
 40
0
 40
0
 40
0
 40
0
 40
1
 40
1
 40
1
 40
1
 10
36.243706
 20
56.586490
 30
0.0
 10
36.243706
 20
56.730098
 30
0.0
 10
38.050984
 20
55.361456
 30
0.0
 10
40.227476
 20
53.569602
 30
0.0
  0
SPLINE
  5
20d
100
AcDbEntity
  8
0
 62
7
100
AcDbSpline
 70
8
 71
3
 72
8
 73
4
 74
0
 40
0
 40
0
 40
0
 40
0
 40
1
 40
1
 40
1
 40
1
 10
40.227476
 20
53.569602
 30
0.0
 10
42.373008
 20
51.803244
 30
0.0
 10
41.159269
 20
52.540665
 30
0.0
 10
38.678234
 20
54.510869
 30
0.0
  0
LWPOLYLINE
  5
20e
100
AcDbEntity
  8
0
 62
7
100
AcDbPolyline
 90
2
 70
1
 10
39.540888
 20
61.809246
 30
0.0
 10
39.540888
 20
61.809246
 30
0.0
  0
SPLINE
  5
20f
100
AcDbEntity
  8
0
 62
7
100
AcDbSpline
 70
8
 71
3
 72
8
 73
4
 74
0
 40
0
 40
0
 40
0
 40
0
 40
1
 40
1
 40
1
 40
1
 10
36.538800
 20
58.182279
 30
0.0
 10
36.740849
 20
58.407935
 30
0.0
 10
36.972556
 20
58.592562
 30
0.0
 10
37.053706
 20
58.592562
 30
0.0
  0
SPLINE
  5
210
100
AcDbEntity
  8
0
 62
7
100
AcDbSpline
 70
8
 71
3
 72
8
 73
4
 74
0
 40
0
 40
0
 40
0
 40
0
 40
1
 40
1
 40
1
 40
1
 10
37.053706
 20
58.592562
 30
0.0
 10
37.134856
 20
58.592562
 30
0.0
 10
37.035926
 20
58.407935
 30
0.0
 10
36.833895
 20
58.182279
 30
0.0
  0
SPLINE
  5
211
100
AcDbEntity
  8
0
 62
7
100
AcDbSpline
 70
8
 71
3
 72
8
 73
4
 74
0
 40
0
 40
0
 40
0
 40
0
 40
1
 40
1
 40
1
 40
1
 10
36.833895
 20
58.182279
 30
0.0
 10
36.631846
 20
57.956622
 30
0.0
 10
36.400139
 20
57.771992
 30
0.0
 10
36.318986
 20
57.771992
 30
0.0
  0
SPLINE
  5
212
100
AcDbEntity
  8
0
 62
7
100
AcDbSpline
 70
8
 71
3
 72
8
 73
4
 74
0
 40
0
 40
0
 40
0
 40
0
 40
1
 40
1
 40
1
 40
1
 10
36.318986
 20
57.771992
 30
0.0
 10
36.237836
 20
57.771992
 30
0.0
 10
36.336766
 20
57.956622
 30
0.0
 10
36.538800
 20
58.182279
 30
0.0
  0
LWPOLYLINE
  5
213
100
AcDbEntity
  8
0
 62
7
100
AcDbPolyline
 90
2
 70
1
 10
38.678234
 20
54.510869
 30
0.0
 10
38.678234
 20
54.510869
 30
0.0
  0
SPLINE
  5
214
100
AcDbEntity
  8
0
 62
7
100
AcDbSpline
 70
8
 71
3
 72
8
 73
4
 74
0
 40
0
 40
0
 40
0
 40
0
 40
1
 40
1
 40
1
 40
1
 10
46.572972
 20
49.634688
 30
0.0
 10
46.578757
 20
50.041158
 30
0.0
 10
55.476961
 20
72.699793
 30
0.0
 10
55.718549
 20
72.923222
 30
0.0
  0
SPLINE
  5
215
100
AcDbEntity
  8
0
 62
7
100
AcDbSpline
 70
8
 71
3
 72
8
 73
4
 74
0
 40
0
 40
0
 40
0
 40
0
 40
1
 40
1
 40
1
 40
1
 10
55.718549
 20
72.923222
 30
0.0
 10
55.898632
 20
73.089770
 30
0.0
 10
56.868957
 20
73.221842
 30
0.0
 10
57.874826
 20
73.216716
 30
0.0
  0
SPLINE
  5
216
100
AcDbEntity
  8
0
 62
7
100
AcDbSpline
 70
8
 71
3
 72
8
 73
4
 74
0
 40
0
 40
0
 40
0
 40
0
 40
1
 40
1
 40
1
 40
1
 10
57.874826
 20
73.216716
 30
0.0
 10
59.363994
 20
73.209153
 30
0.0
 10
60.036081
 20
73.041959
 30
0.0
 10
61.493256
 20
72.316713
 30
0.0
  0
SPLINE
  5
217
100
AcDbEntity
  8
0
 62
7
100
AcDbSpline
 70
8
 71
3
 72
8
 73
4
 74
0
 40
0
 40
0
 40
0
 40
0
 40
1
 40
1
 40
1
 40
1
 10
61.493256
 20
72.316713
 30
0.0
 10
63.894950
 20
71.121377
 30
0.0
 10
66.712087
 20
68.972989
 30
0.0
 10
67.800423
 20
67.506777
 30
0.0
  0
SPLINE
  5
218
100
AcDbEntity
  8
0
 62
7
100
AcDbSpline
 70
8
 71
3
 72
8
 73
4
 74
0
 40
0
 40
0
 40
0
 40
0
 40
1
 40
1
 40
1
 40
1
 10
67.800423
 20
67.506777
 30
0.0
 10
68.768694
 20
66.202320
 30
0.0
 10
69.495439
 20
64.122955
 30
0.0
 10
69.217619
 20
63.451892
 30
0.0
  0
SPLINE
  5
219
100
AcDbEntity
  8
0
 62
7
100
AcDbSpline
 70
8
 71
3
 72
8
 73
4
 74
0
 40
0
 40
0
 40
0
 40
0
 40
1
 40
1
 40
1
 40
1
 10
69.217619
 20
63.451892
 30
0.0
 10
68.852596
 20
62.570185
 30
0.0
 10
46.563517
 20
48.969941
 30
0.0
 10
46.572972
 20
49.634688
 30
0.0
  0
LWPOLYLINE
  5
21a
100
AcDbEntity
  8
0
 62
7
100
AcDbPolyline
 90
2
 70
1
 10
36.538800
 20
58.182279
 30
0.0
 10
36.538800
 20
58.182279
 30
0.0
  0
SPLINE
  5
21b
100
AcDbEntity
  8
0
 62
7
100
AcDbSpline
 70
8
 71
3
 72
8
 73
4
 74
0
 40
0
 40
0
 40
0
 40
0
 40
1
 40
1
 40
1
 40
1
 10
68.621165
 20
63.710275
 30
0.0
 10
69.145751
 20
64.977399
 30
0.0
 10
67.081341
 20
67.944069
 30
0.0
 10
64.289240
 20
69.935491
 30
0.0
  0
SPLINE
  5
21c
100
AcDbEntity
  8
0
 62
7
100
AcDbSpline
 70
8
 71
3
 72
8
 73
4
 74
0
 40
0
 40
0
 40
0
 40
0
 40
1
 40
1
 40
1
 40
1
 10
64.289240
 20
69.935491
 30
0.0
 10
60.919137
 20
72.339160
 30
0.0
 10
57.500698
 20
73.431493
 30
0.0
 10
56.277569
 20
72.495548
 30
0.0
  0
SPLINE
  5
21d
100
AcDbEntity
  8
0
 62
7
100
AcDbSpline
 70
8
 71
3
 72
8
 73
4
 74
0
 40
0
 40
0
 40
0
 40
0
 40
1
 40
1
 40
1
 40
1
 10
56.277569
 20
72.495548
 30
0.0
 10
56.016226
 20
72.295568
 30
0.0
 10
54.040207
 20
67.516248
 30
0.0
 10
51.886423
 20
61.874837
 30
0.0
  0
SPLINE
  5
21e
100
AcDbEntity
  8
0
 62
7
100
AcDbSpline
 70
8
 71
3
 72
8
 73
4
 74
0
 40
0
 40
0
 40
0
 40
0
 40
1
 40
1
 40
1
 40
1
 10
51.886423
 20
61.874837
 30
0.0
 10
49.732636
 20
56.233427
 30
0.0
 10
47.800085
 20
51.281694
 30
0.0
 10
47.591867
 20
50.870987
 30
0.0
  0
SPLINE
  5
21f
100
AcDbEntity
  8
0
 62
7
100
AcDbSpline
 70
8
 71
3
 72
8
 73
4
 74
0
 40
0
 40
0
 40
0
 40
0
 40
1
 40
1
 40
1
 40
1
 10
47.591867
 20
50.870987
 30
0.0
 10
47.297360
 20
50.290084
 30
0.0
 10
49.572316
 20
51.589113
 30
0.0
 10
57.835704
 20
56.720356
 30
0.0
  0
SPLINE
  5
220
100
AcDbEntity
  8
0
 62
7
100
AcDbSpline
 70
8
 71
3
 72
8
 73
4
 74
0
 40
0
 40
0
 40
0
 40
0
 40
1
 40
1
 40
1
 40
1
 10
57.835704
 20
56.720356
 30
0.0
 10
63.678034
 20
60.348216
 30
0.0
 10
68.531492
 20
63.493678
 30
0.0
 10
68.621165
 20
63.710275
 30
0.0
  0
LWPOLYLINE
  5
221
100
AcDbEntity
  8
0
 62
7
100
AcDbPolyline
 90
2
 70
1
 10
46.572972
 20
49.634688
 30
0.0
 10
46.572972
 20
49.634688
 30
0.0
  0
SPLINE
  5
222
100
AcDbEntity
  8
0
 62
7
100
AcDbSpline
 70
8
 71
3
 72
8
 73
4
 74
0
 40
0
 40
0
 40
0
 40
0
 40
1
 40
1
 40
1
 40
1
 10
50.850862
 20
53.395629
 30
0.0
 10
51.144624
 20
53.696503
 30
0.0
 10
51.451375
 20
53.942671
 30
0.0
 10
51.532525
 20
53.942671
 30
0.0
  0
SPLINE
  5
223
100
AcDbEntity
  8
0
 62
7
100
AcDbSpline
 70
8
 71
3
 72
8
 73
4
 74
0
 40
0
 40
0
 40
0
 40
0
 40
1
 40
1
 40
1
 40
1
 10
51.532525
 20
53.942671
 30
0.0
 10
51.613675
 20
53.942671
 30
0.0
 10
51.439722
 20
53.696503
 30
0.0
 10
51.145956
 20
53.395629
 30
0.0
  0
SPLINE
  5
224
100
AcDbEntity
  8
0
 62
7
100
AcDbSpline
 70
8
 71
3
 72
8
 73
4
 74
0
 40
0
 40
0
 40
0
 40
0
 40
1
 40
1
 40
1
 40
1
 10
51.145956
 20
53.395629
 30
0.0
 10
50.852194
 20
53.094752
 30
0.0
 10
50.545447
 20
52.848581
 30
0.0
 10
50.464294
 20
52.848581
 30
0.0
  0
SPLINE
  5
225
100
AcDbEntity
  8
0
 62
7
100
AcDbSpline
 70
8
 71
3
 72
8
 73
4
 74
0
 40
0
 40
0
 40
0
 40
0
 40
1
 40
1
 40
1
 40
1
 10
50.464294
 20
52.848581
 30
0.0
 10
50.383144
 20
52.848581
 30
0.0
 10
50.557100
 20
53.094752
 30
0.0
 10
50.850862
 20
53.395629
 30
0.0
  0
LWPOLYLINE
  5
226
100
AcDbEntity
  8
0
 62
7
100
AcDbPolyline
 90
2
 70
1
 10
68.621165
 20
63.710275
 30
0.0
 10
68.621165
 20
63.710275
 30
0.0
  0
SPLINE
  5
227
100
AcDbEntity
  8
0
 62
7
100
AcDbSpline
 70
8
 71
3
 72
8
 73
4
 74
0
 40
0
 40
0
 40
0
 40
0
 40
1
 40
1
 40
1
 40
1
 10
51.883691
 20
54.023500
 30
0.0
 10
51.883691
 20
54.093240
 30
0.0
 10
52.508269
 20
54.624678
 30
0.0
 10
53.271637
 20
55.204476
 30
0.0
  0
SPLINE
  5
228
100
AcDbEntity
  8
0
 62
7
100
AcDbSpline
 70
8
 71
3
 72
8
 73
4
 74
0
 40
0
 40
0
 40
0
 40
0
 40
1
 40
1
 40
1
 40
1
 10
53.271637
 20
55.204476
 30
0.0
 10
54.035012
 20
55.784279
 30
0.0
 10
54.564336
 20
56.115811
 30
0.0
 10
54.447920
 20
55.941211
 30
0.0
  0
SPLINE
  5
229
100
AcDbEntity
  8
0
 62
7
100
AcDbSpline
 70
8
 71
3
 72
8
 73
4
 74
0
 40
0
 40
0
 40
0
 40
0
 40
1
 40
1
 40
1
 40
1
 10
54.447920
 20
55.941211
 30
0.0
 10
54.199863
 20
55.569186
 30
0.0
 10
51.883691
 20
53.836988
 30
0.0
 10
51.883691
 20
54.023500
 30
0.0
  0
LWPOLYLINE
  5
22a
100
AcDbEntity
  8
0
 62
7
100
AcDbPolyline
 90
2
 70
1
 10
50.850862
 20
53.395629
 30
0.0
 10
50.850862
 20
53.395629
 30
0.0
  0
SPLINE
  5
22b
100
AcDbEntity
  8
0
 62
7
100
AcDbSpline
 70
8
 71
3
 72
8
 73
4
 74
0
 40
0
 40
0
 40
0
 40
0
 40
1
 40
1
 40
1
 40
1
 10
53.911709
 20
57.977134
 30
0.0
 10
53.544651
 20
58.410958
 30
0.0
 10
53.555087
 20
58.420635
 30
0.0
 10
54.023125
 20
58.080408
 30
0.0
  0
SPLINE
  5
22c
100
AcDbEntity
  8
0
 62
7
100
AcDbSpline
 70
8
 71
3
 72
8
 73
4
 74
0
 40
0
 40
0
 40
0
 40
0
 40
1
 40
1
 40
1
 40
1
 10
54.023125
 20
58.080408
 30
0.0
 10
54.307153
 20
57.873937
 30
0.0
 10
54.539538
 20
57.658539
 30
0.0
 10
54.539538
 20
57.601742
 30
0.0
  0
SPLINE
  5
22d
100
AcDbEntity
  8
0
 62
7
100
AcDbSpline
 70
8
 71
3
 72
8
 73
4
 74
0
 40
0
 40
0
 40
0
 40
0
 40
1
 40
1
 40
1
 40
1
 10
54.539538
 20
57.601742
 30
0.0
 10
54.539538
 20
57.376622
 30
0.0
 10
54.297210
 20
57.521515
 30
0.0
 10
53.911709
 20
57.977134
 30
0.0
  0
LWPOLYLINE
  5
22e
100
AcDbEntity
  8
0
 62
7
100
AcDbPolyline
 90
2
 70
1
 10
51.883691
 20
54.023500
 30
0.0
 10
51.883691
 20
54.023500
 30
0.0
  0
SPLINE
  5
22f
100
AcDbEntity
  8
0
 62
7
100
AcDbSpline
 70
8
 71
3
 72
8
 73
4
 74
0
 40
0
 40
0
 40
0
 40
0
 40
1
 40
1
 40
1
 40
1
 10
44.357747
 20
51.686107
 30
0.0
 10
44.090686
 20
52.551124
 30
0.0
 10
42.411610
 20
57.863878
 30
0.0
 10
40.626467
 20
63.492230
 30
0.0
  0
LWPOLYLINE
  5
230
100
AcDbEntity
  8
0
 62
7
100
AcDbPolyline
 90
2
 70
1
 10
53.911709
 20
57.977134
 30
0.0
 10
53.911709
 20
57.977134
 30
0.0
  0
SPLINE
  5
231
100
AcDbEntity
  8
0
 62
7
100
AcDbSpline
 70
8
 71
3
 72
8
 73
4
 74
0
 40
0
 40
0
 40
0
 40
0
 40
1
 40
1
 40
1
 40
1
 10
37.944340
 20
74.425274
 30
0.0
 10
38.254308
 20
74.810095
 30
0.0
 10
39.160408
 20
75.428170
 30
0.0
 10
39.957886
 20
75.798773
 30
0.0
  0
SPLINE
  5
232
100
AcDbEntity
  8
0
 62
7
100
AcDbSpline
 70
8
 71
3
 72
8
 73
4
 74
0
 40
0
 40
0
 40
0
 40
0
 40
1
 40
1
 40
1
 40
1
 10
39.957886
 20
75.798773
 30
0.0
 10
41.163771
 20
76.359159
 30
0.0
 10
41.955220
 20
76.492492
 30
0.0
 10
44.659502
 20
76.590833
 30
0.0
  0
SPLINE
  5
233
100
AcDbEntity
  8
0
 62
7
100
AcDbSpline
 70
8
 71
3
 72
8
 73
4
 74
0
 40
0
 40
0
 40
0
 40
0
 40
1
 40
1
 40
1
 40
1
 10
44.659502
 20
76.590833
 30
0.0
 10
49.556540
 20
76.768909
 30
0.0
 10
53.109529
 20
75.738680
 30
0.0
 10
54.217756
 20
73.819309
 30
0.0
  0
SPLINE
  5
234
100
AcDbEntity
  8
0
 62
7
100
AcDbSpline
 70
8
 71
3
 72
8
 73
4
 74
0
 40
0
 40
0
 40
0
 40
0
 40
1
 40
1
 40
1
 40
1
 10
54.217756
 20
73.819309
 30
0.0
 10
54.609286
 20
73.141211
 30
0.0
 10
54.367755
 20
72.425890
 30
0.0
 10
50.094021
 20
61.606187
 30
0.0
  0
SPLINE
  5
235
100
AcDbEntity
  8
0
 62
7
100
AcDbSpline
 70
8
 71
3
 72
8
 73
4
 74
0
 40
0
 40
0
 40
0
 40
0
 40
1
 40
1
 40
1
 40
1
 10
50.094021
 20
61.606187
 30
0.0
 10
47.544742
 20
55.152256
 30
0.0
 10
45.398515
 20
50.113353
 30
0.0
 10
45.198857
 20
50.113353
 30
0.0
  0
SPLINE
  5
236
100
AcDbEntity
  8
0
 62
7
100
AcDbSpline
 70
8
 71
3
 72
8
 73
4
 74
0
 40
0
 40
0
 40
0
 40
0
 40
1
 40
1
 40
1
 40
1
 10
45.198857
 20
50.113353
 30
0.0
 10
45.003311
 20
50.113353
 30
0.0
 10
44.624811
 20
50.821093
 30
0.0
 10
44.357747
 20
51.686107
 30
0.0
  0
LWPOLYLINE
  5
237
100
AcDbEntity
  8
0
 62
7
100
AcDbPolyline
 90
3
 70
1
 10
40.626467
 20
63.492230
 30
0.0
 10
37.380754
 20
73.725591
 30
0.0
 10
37.944340
 20
74.425274
 30
0.0
  0
SPLINE
  5
238
100
AcDbEntity
  8
0
 62
7
100
AcDbSpline
 70
8
 71
3
 72
8
 73
4
 74
0
 40
0
 40
0
 40
0
 40
0
 40
1
 40
1
 40
1
 40
1
 10
49.726963
 20
62.216318
 30
0.0
 10
54.632911
 20
74.646917
 30
0.0
 10
54.519257
 20
73.754369
 30
0.0
 10
51.378194
 20
75.184008
 30
0.0
  0
SPLINE
  5
239
100
AcDbEntity
  8
0
 62
7
100
AcDbSpline
 70
8
 71
3
 72
8
 73
4
 74
0
 40
0
 40
0
 40
0
 40
0
 40
1
 40
1
 40
1
 40
1
 10
51.378194
 20
75.184008
 30
0.0
 10
49.757957
 20
75.921452
 30
0.0
 10
49.466429
 20
75.961265
 30
0.0
 10
45.686715
 20
75.961265
 30
0.0
  0
SPLINE
  5
23a
100
AcDbEntity
  8
0
 62
7
100
AcDbSpline
 70
8
 71
3
 72
8
 73
4
 74
0
 40
0
 40
0
 40
0
 40
0
 40
1
 40
1
 40
1
 40
1
 10
45.686715
 20
75.961265
 30
0.0
 10
42.094616
 20
75.961265
 30
0.0
 10
41.563634
 20
75.897686
 30
0.0
 10
40.285952
 20
75.314576
 30
0.0
  0
SPLINE
  5
23b
100
AcDbEntity
  8
0
 62
7
100
AcDbSpline
 70
8
 71
3
 72
8
 73
4
 74
0
 40
0
 40
0
 40
0
 40
0
 40
1
 40
1
 40
1
 40
1
 10
40.285952
 20
75.314576
 30
0.0
 10
37.686539
 20
74.128249
 30
0.0
 10
37.609207
 20
74.903172
 30
0.0
 10
41.572536
 20
62.421883
 30
0.0
  0
SPLINE
  5
23c
100
AcDbEntity
  8
0
 62
7
100
AcDbSpline
 70
8
 71
3
 72
8
 73
4
 74
0
 40
0
 40
0
 40
0
 40
0
 40
1
 40
1
 40
1
 40
1
 10
41.572536
 20
62.421883
 30
0.0
 10
43.507228
 20
56.329159
 30
0.0
 10
45.106999
 20
51.098035
 30
0.0
 10
45.127576
 20
50.797161
 30
0.0
  0
SPLINE
  5
23d
100
AcDbEntity
  8
0
 62
7
100
AcDbSpline
 70
8
 71
3
 72
8
 73
4
 74
0
 40
0
 40
0
 40
0
 40
0
 40
1
 40
1
 40
1
 40
1
 10
45.127576
 20
50.797161
 30
0.0
 10
45.164990
 20
50.250113
 30
0.0
 10
45.164990
 20
50.250113
 30
0.0
 10
45.300542
 20
50.797161
 30
0.0
  0
SPLINE
  5
23e
100
AcDbEntity
  8
0
 62
7
100
AcDbSpline
 70
8
 71
3
 72
8
 73
4
 74
0
 40
0
 40
0
 40
0
 40
0
 40
1
 40
1
 40
1
 40
1
 10
45.300542
 20
50.797161
 30
0.0
 10
45.375099
 20
51.098035
 30
0.0
 10
47.366984
 20
56.236653
 30
0.0
 10
49.726963
 20
62.216318
 30
0.0
  0
LWPOLYLINE
  5
23f
100
AcDbEntity
  8
0
 62
7
100
AcDbPolyline
 90
2
 70
1
 10
44.357747
 20
51.686107
 30
0.0
 10
44.357747
 20
51.686107
 30
0.0
  0
SPLINE
  5
240
100
AcDbEntity
  8
0
 62
7
100
AcDbSpline
 70
8
 71
3
 72
8
 73
4
 74
0
 40
0
 40
0
 40
0
 40
0
 40
1
 40
1
 40
1
 40
1
 10
44.211246
 20
60.370460
 30
0.0
 10
44.413294
 20
60.596117
 30
0.0
 10
44.645004
 20
60.780747
 30
0.0
 10
44.726154
 20
60.780747
 30
0.0
  0
SPLINE
  5
241
100
AcDbEntity
  8
0
 62
7
100
AcDbSpline
 70
8
 71
3
 72
8
 73
4
 74
0
 40
0
 40
0
 40
0
 40
0
 40
1
 40
1
 40
1
 40
1
 10
44.726154
 20
60.780747
 30
0.0
 10
44.807305
 20
60.780747
 30
0.0
 10
44.708403
 20
60.596117
 30
0.0
 10
44.506343
 20
60.370460
 30
0.0
  0
SPLINE
  5
242
100
AcDbEntity
  8
0
 62
7
100
AcDbSpline
 70
8
 71
3
 72
8
 73
4
 74
0
 40
0
 40
0
 40
0
 40
0
 40
1
 40
1
 40
1
 40
1
 10
44.506343
 20
60.370460
 30
0.0
 10
44.304291
 20
60.144804
 30
0.0
 10
44.072584
 20
59.960177
 30
0.0
 10
43.991434
 20
59.960177
 30
0.0
  0
SPLINE
  5
243
100
AcDbEntity
  8
0
 62
7
100
AcDbSpline
 70
8
 71
3
 72
8
 73
4
 74
0
 40
0
 40
0
 40
0
 40
0
 40
1
 40
1
 40
1
 40
1
 10
43.991434
 20
59.960177
 30
0.0
 10
43.910284
 20
59.960177
 30
0.0
 10
44.009186
 20
60.144804
 30
0.0
 10
44.211246
 20
60.370460
 30
0.0
  0
LWPOLYLINE
  5
244
100
AcDbEntity
  8
0
 62
7
100
AcDbPolyline
 90
2
 70
1
 10
49.726963
 20
62.216318
 30
0.0
 10
49.726963
 20
62.216318
 30
0.0
  0
SPLINE
  5
245
100
AcDbEntity
  8
0
 62
7
100
AcDbSpline
 70
8
 71
3
 72
8
 73
4
 74
0
 40
0
 40
0
 40
0
 40
0
 40
1
 40
1
 40
1
 40
1
 10
46.566393
 20
60.376726
 30
0.0
 10
46.254543
 20
60.725016
 30
0.0
 10
46.272797
 20
60.765041
 30
0.0
 10
46.677809
 20
60.620986
 30
0.0
  0
SPLINE
  5
246
100
AcDbEntity
  8
0
 62
7
100
AcDbSpline
 70
8
 71
3
 72
8
 73
4
 74
0
 40
0
 40
0
 40
0
 40
0
 40
1
 40
1
 40
1
 40
1
 10
46.677809
 20
60.620986
 30
0.0
 10
46.944215
 20
60.526230
 30
0.0
 10
47.162187
 20
60.338784
 30
0.0
 10
47.162187
 20
60.204440
 30
0.0
  0
SPLINE
  5
247
100
AcDbEntity
  8
0
 62
7
100
AcDbSpline
 70
8
 71
3
 72
8
 73
4
 74
0
 40
0
 40
0
 40
0
 40
0
 40
1
 40
1
 40
1
 40
1
 10
47.162187
 20
60.204440
 30
0.0
 10
47.162187
 20
59.852698
 30
0.0
 10
46.991366
 20
59.902098
 30
0.0
 10
46.566393
 20
60.376726
 30
0.0
  0
LWPOLYLINE
  5
248
100
AcDbEntity
  8
0
 62
7
100
AcDbPolyline
 90
2
 70
1
 10
44.211246
 20
60.370460
 30
0.0
 10
44.211246
 20
60.370460
 30
0.0
  0
SPLINE
  5
249
100
AcDbEntity
  8
0
 62
7
100
AcDbSpline
 70
8
 71
3
 72
8
 73
4
 74
0
 40
0
 40
0
 40
0
 40
0
 40
1
 40
1
 40
1
 40
1
 10
56.015009
 20
85.552571
 30
0.0
 10
55.609256
 20
85.616144
 30
0.0
 10
54.358831
 20
85.806796
 30
0.0
 10
53.236283
 20
85.976243
 30
0.0
  0
SPLINE
  5
24a
100
AcDbEntity
  8
0
 62
7
100
AcDbSpline
 70
8
 71
3
 72
8
 73
4
 74
0
 40
0
 40
0
 40
0
 40
0
 40
1
 40
1
 40
1
 40
1
 10
53.236283
 20
85.976243
 30
0.0
 10
50.616993
 20
86.371620
 30
0.0
 10
49.224661
 20
86.909777
 30
0.0
 10
49.238924
 20
87.521282
 30
0.0
  0
SPLINE
  5
24b
100
AcDbEntity
  8
0
 62
7
100
AcDbSpline
 70
8
 71
3
 72
8
 73
4
 74
0
 40
0
 40
0
 40
0
 40
0
 40
1
 40
1
 40
1
 40
1
 10
49.238924
 20
87.521282
 30
0.0
 10
49.276167
 20
89.117862
 30
0.0
 10
55.584725
 20
93.600117
 30
0.0
 10
61.709585
 20
96.381735
 30
0.0
  0
LWPOLYLINE
  5
24c
100
AcDbEntity
  8
0
 62
7
100
AcDbPolyline
 90
2
 70
1
 10
46.566393
 20
60.376726
 30
0.0
 10
46.566393
 20
60.376726
 30
0.0
  0
SPLINE
  5
24d
100
AcDbEntity
  8
0
 62
7
100
AcDbSpline
 70
8
 71
3
 72
8
 73
4
 74
0
 40
0
 40
0
 40
0
 40
0
 40
1
 40
1
 40
1
 40
1
 10
63.209334
 20
97.608025
 30
0.0
 10
59.457302
 20
97.257823
 30
0.0
 10
53.673017
 20
94.284234
 30
0.0
 10
49.261934
 20
90.437941
 30
0.0
  0
SPLINE
  5
24e
100
AcDbEntity
  8
0
 62
7
100
AcDbSpline
 70
8
 71
3
 72
8
 73
4
 74
0
 40
0
 40
0
 40
0
 40
0
 40
1
 40
1
 40
1
 40
1
 10
49.261934
 20
90.437941
 30
0.0
 10
46.723026
 20
88.224112
 30
0.0
 10
45.981809
 20
88.007161
 30
0.0
 10
45.981809
 20
89.477868
 30
0.0
  0
SPLINE
  5
24f
100
AcDbEntity
  8
0
 62
7
100
AcDbSpline
 70
8
 71
3
 72
8
 73
4
 74
0
 40
0
 40
0
 40
0
 40
0
 40
1
 40
1
 40
1
 40
1
 10
45.981809
 20
89.477868
 30
0.0
 10
45.981809
 20
90.795921
 30
0.0
 10
49.552533
 20
94.402804
 30
0.0
 10
53.657175
 20
97.230959
 30
0.0
  0
SPLINE
  5
250
100
AcDbEntity
  8
0
 62
7
100
AcDbSpline
 70
8
 71
3
 72
8
 73
4
 74
0
 40
0
 40
0
 40
0
 40
0
 40
1
 40
1
 40
1
 40
1
 10
53.657175
 20
97.230959
 30
0.0
 10
55.384937
 20
98.421409
 30
0.0
 10
58.792014
 20
99.852287
 30
0.0
 10
60.929441
 20
100.285100
 30
0.0
  0
SPLINE
  5
251
100
AcDbEntity
  8
0
 62
7
100
AcDbSpline
 70
8
 71
3
 72
8
 73
4
 74
0
 40
0
 40
0
 40
0
 40
0
 40
1
 40
1
 40
1
 40
1
 10
60.929441
 20
100.285100
 30
0.0
 10
65.652012
 20
101.241390
 30
0.0
 10
75.782537
 20
102.080993
 30
0.0
 10
82.611121
 20
102.082043
 30
0.0
  0
SPLINE
  5
252
100
AcDbEntity
  8
0
 62
7
100
AcDbSpline
 70
8
 71
3
 72
8
 73
4
 74
0
 40
0
 40
0
 40
0
 40
0
 40
1
 40
1
 40
1
 40
1
 10
82.611121
 20
102.082043
 30
0.0
 10
86.258090
 20
102.082607
 30
0.0
 10
86.990126
 20
102.012898
 30
0.0
 10
87.330588
 20
101.632660
 30
0.0
  0
SPLINE
  5
253
100
AcDbEntity
  8
0
 62
7
100
AcDbSpline
 70
8
 71
3
 72
8
 73
4
 74
0
 40
0
 40
0
 40
0
 40
0
 40
1
 40
1
 40
1
 40
1
 10
87.330588
 20
101.632660
 30
0.0
 10
87.673056
 20
101.250173
 30
0.0
 10
87.667403
 20
101.146326
 30
0.0
 10
87.292945
 20
100.940886
 30
0.0
  0
SPLINE
  5
254
100
AcDbEntity
  8
0
 62
7
100
AcDbSpline
 70
8
 71
3
 72
8
 73
4
 74
0
 40
0
 40
0
 40
0
 40
0
 40
1
 40
1
 40
1
 40
1
 10
87.292945
 20
100.940886
 30
0.0
 10
87.050615
 20
100.807939
 30
0.0
 10
85.881176
 20
100.167441
 30
0.0
 10
84.694195
 20
99.517563
 30
0.0
  0
SPLINE
  5
255
100
AcDbEntity
  8
0
 62
7
100
AcDbSpline
 70
8
 71
3
 72
8
 73
4
 74
0
 40
0
 40
0
 40
0
 40
0
 40
1
 40
1
 40
1
 40
1
 10
84.694195
 20
99.517563
 30
0.0
 10
81.880346
 20
97.976965
 30
0.0
 10
78.498756
 20
95.469407
 30
0.0
 10
74.272338
 20
91.789417
 30
0.0
  0
SPLINE
  5
256
100
AcDbEntity
  8
0
 62
7
100
AcDbSpline
 70
8
 71
3
 72
8
 73
4
 74
0
 40
0
 40
0
 40
0
 40
0
 40
1
 40
1
 40
1
 40
1
 10
74.272338
 20
91.789417
 30
0.0
 10
68.790371
 20
87.016211
 30
0.0
 10
65.765804
 20
85.689389
 30
0.0
 10
59.998779
 20
85.527885
 30
0.0
  0
SPLINE
  5
257
100
AcDbEntity
  8
0
 62
7
100
AcDbSpline
 70
8
 71
3
 72
8
 73
4
 74
0
 40
0
 40
0
 40
0
 40
0
 40
1
 40
1
 40
1
 40
1
 10
59.998779
 20
85.527885
 30
0.0
 10
58.213458
 20
85.477886
 30
0.0
 10
56.420763
 20
85.488994
 30
0.0
 10
56.015009
 20
85.552579
 30
0.0
  0
LWPOLYLINE
  5
258
100
AcDbEntity
  8
0
 62
7
100
AcDbPolyline
 90
3
 70
1
 10
61.709585
 20
96.381735
 30
0.0
 10
64.720284
 20
97.749051
 30
0.0
 10
63.209334
 20
97.608025
 30
0.0
  0
SPLINE
  5
259
100
AcDbEntity
  8
0
 62
7
100
AcDbSpline
 70
8
 71
3
 72
8
 73
4
 74
0
 40
0
 40
0
 40
0
 40
0
 40
1
 40
1
 40
1
 40
1
 10
62.194759
 20
86.234857
 30
0.0
 10
67.446023
 20
87.024585
 30
0.0
 10
68.986592
 20
87.931235
 30
0.0
 10
77.261785
 20
95.102035
 30
0.0
  0
SPLINE
  5
25a
100
AcDbEntity
  8
0
 62
7
100
AcDbSpline
 70
8
 71
3
 72
8
 73
4
 74
0
 40
0
 40
0
 40
0
 40
0
 40
1
 40
1
 40
1
 40
1
 10
77.261785
 20
95.102035
 30
0.0
 10
79.377805
 20
96.935658
 30
0.0
 10
82.319261
 20
98.971302
 30
0.0
 10
84.582045
 20
100.168045
 30
0.0
  0
SPLINE
  5
25b
100
AcDbEntity
  8
0
 62
7
100
AcDbSpline
 70
8
 71
3
 72
8
 73
4
 74
0
 40
0
 40
0
 40
0
 40
0
 40
1
 40
1
 40
1
 40
1
 10
84.582045
 20
100.168045
 30
0.0
 10
85.577604
 20
100.694576
 30
0.0
 10
86.396096
 20
101.217689
 30
0.0
 10
86.400925
 20
101.330519
 30
0.0
  0
SPLINE
  5
25c
100
AcDbEntity
  8
0
 62
7
100
AcDbSpline
 70
8
 71
3
 72
8
 73
4
 74
0
 40
0
 40
0
 40
0
 40
0
 40
1
 40
1
 40
1
 40
1
 10
86.400925
 20
101.330519
 30
0.0
 10
86.424716
 20
101.886646
 30
0.0
 10
75.200837
 20
101.369798
 30
0.0
 10
66.638396
 20
100.420479
 30
0.0
  0
SPLINE
  5
25d
100
AcDbEntity
  8
0
 62
7
100
AcDbSpline
 70
8
 71
3
 72
8
 73
4
 74
0
 40
0
 40
0
 40
0
 40
0
 40
1
 40
1
 40
1
 40
1
 10
66.638396
 20
100.420479
 30
0.0
 10
58.213913
 20
99.486450
 30
0.0
 10
54.948156
 20
98.095250
 30
0.0
 10
49.596712
 20
93.160775
 30
0.0
  0
SPLINE
  5
25e
100
AcDbEntity
  8
0
 62
7
100
AcDbSpline
 70
8
 71
3
 72
8
 73
4
 74
0
 40
0
 40
0
 40
0
 40
0
 40
1
 40
1
 40
1
 40
1
 10
49.596712
 20
93.160775
 30
0.0
 10
47.490058
 20
91.218261
 30
0.0
 10
46.867092
 20
90.474238
 30
0.0
 10
46.867092
 20
89.900710
 30
0.0
  0
SPLINE
  5
25f
100
AcDbEntity
  8
0
 62
7
100
AcDbSpline
 70
8
 71
3
 72
8
 73
4
 74
0
 40
0
 40
0
 40
0
 40
0
 40
1
 40
1
 40
1
 40
1
 10
46.867092
 20
89.900710
 30
0.0
 10
46.867092
 20
89.198086
 30
0.0
 10
46.985403
 20
89.261750
 30
0.0
 10
49.037759
 20
91.068779
 30
0.0
  0
SPLINE
  5
260
100
AcDbEntity
  8
0
 62
7
100
AcDbSpline
 70
8
 71
3
 72
8
 73
4
 74
0
 40
0
 40
0
 40
0
 40
0
 40
1
 40
1
 40
1
 40
1
 10
49.037759
 20
91.068779
 30
0.0
 10
53.296518
 20
94.818465
 30
0.0
 10
58.733095
 20
97.569360
 30
0.0
 10
63.328285
 20
98.299746
 30
0.0
  0
SPLINE
  5
261
100
AcDbEntity
  8
0
 62
7
100
AcDbSpline
 70
8
 71
3
 72
8
 73
4
 74
0
 40
0
 40
0
 40
0
 40
0
 40
1
 40
1
 40
1
 40
1
 10
63.328285
 20
98.299746
 30
0.0
 10
65.412177
 20
98.630973
 30
0.0
 10
66.480216
 20
98.497343
 30
0.0
 10
66.276505
 20
97.930878
 30
0.0
  0
SPLINE
  5
262
100
AcDbEntity
  8
0
 62
7
100
AcDbSpline
 70
8
 71
3
 72
8
 73
4
 74
0
 40
0
 40
0
 40
0
 40
0
 40
1
 40
1
 40
1
 40
1
 10
66.276505
 20
97.930878
 30
0.0
 10
66.139678
 20
97.550403
 30
0.0
 10
66.248734
 20
97.605586
 30
0.0
 10
61.886708
 20
95.709770
 30
0.0
  0
SPLINE
  5
263
100
AcDbEntity
  8
0
 62
7
100
AcDbSpline
 70
8
 71
3
 72
8
 73
4
 74
0
 40
0
 40
0
 40
0
 40
0
 40
1
 40
1
 40
1
 40
1
 10
61.886708
 20
95.709770
 30
0.0
 10
60.003639
 20
94.891355
 30
0.0
 10
57.414188
 20
93.568513
 30
0.0
 10
56.132374
 20
92.770123
 30
0.0
  0
SPLINE
  5
264
100
AcDbEntity
  8
0
 62
7
100
AcDbSpline
 70
8
 71
3
 72
8
 73
4
 74
0
 40
0
 40
0
 40
0
 40
0
 40
1
 40
1
 40
1
 40
1
 10
56.132374
 20
92.770123
 30
0.0
 10
53.945612
 20
91.408077
 30
0.0
 10
49.818033
 20
88.009817
 30
0.0
 10
49.818033
 20
87.571491
 30
0.0
  0
SPLINE
  5
265
100
AcDbEntity
  8
0
 62
7
100
AcDbSpline
 70
8
 71
3
 72
8
 73
4
 74
0
 40
0
 40
0
 40
0
 40
0
 40
1
 40
1
 40
1
 40
1
 10
49.818033
 20
87.571491
 30
0.0
 10
49.818033
 20
87.234512
 30
0.0
 10
53.377660
 20
86.468803
 30
0.0
 10
56.015009
 20
86.238465
 30
0.0
  0
SPLINE
  5
266
100
AcDbEntity
  8
0
 62
7
100
AcDbSpline
 70
8
 71
3
 72
8
 73
4
 74
0
 40
0
 40
0
 40
0
 40
0
 40
1
 40
1
 40
1
 40
1
 10
56.015009
 20
86.238465
 30
0.0
 10
59.662633
 20
85.919891
 30
0.0
 10
60.098711
 20
85.919636
 30
0.0
 10
62.194759
 20
86.234849
 30
0.0
  0
LWPOLYLINE
  5
267
100
AcDbEntity
  8
0
 62
7
100
AcDbPolyline
 90
2
 70
1
 10
56.015009
 20
85.552579
 30
0.0
 10
56.015009
 20
85.552571
 30
0.0
  0
SPLINE
  5
268
100
AcDbEntity
  8
0
 62
7
100
AcDbSpline
 70
8
 71
3
 72
8
 73
4
 74
0
 40
0
 40
0
 40
0
 40
0
 40
1
 40
1
 40
1
 40
1
 10
39.932381
 20
87.150032
 30
0.0
 10
37.306199
 20
87.769270
 30
0.0
 10
36.219500
 20
88.367107
 30
0.0
 10
34.047066
 20
90.387790
 30
0.0
  0
SPLINE
  5
269
100
AcDbEntity
  8
0
 62
7
100
AcDbSpline
 70
8
 71
3
 72
8
 73
4
 74
0
 40
0
 40
0
 40
0
 40
0
 40
1
 40
1
 40
1
 40
1
 10
34.047066
 20
90.387790
 30
0.0
 10
31.780000
 20
92.496495
 30
0.0
 10
29.912245
 20
95.469010
 30
0.0
 10
29.550597
 20
97.543870
 30
0.0
  0
LWPOLYLINE
  5
26a
100
AcDbEntity
  8
0
 62
7
100
AcDbPolyline
 90
2
 70
1
 10
62.194759
 20
86.234849
 30
0.0
 10
62.194759
 20
86.234857
 30
0.0
  0
SPLINE
  5
26b
100
AcDbEntity
  8
0
 62
7
100
AcDbSpline
 70
8
 71
3
 72
8
 73
4
 74
0
 40
0
 40
0
 40
0
 40
0
 40
1
 40
1
 40
1
 40
1
 10
31.058381
 20
98.450201
 30
0.0
 10
33.325745
 20
98.233294
 30
0.0
 10
37.150720
 20
96.457658
 30
0.0
 10
39.381653
 20
94.586358
 30
0.0
  0
SPLINE
  5
26c
100
AcDbEntity
  8
0
 62
7
100
AcDbSpline
 70
8
 71
3
 72
8
 73
4
 74
0
 40
0
 40
0
 40
0
 40
0
 40
1
 40
1
 40
1
 40
1
 10
39.381653
 20
94.586358
 30
0.0
 10
41.650866
 20
92.682947
 30
0.0
 10
42.541907
 20
91.033369
 30
0.0
 10
42.568216
 20
88.687108
 30
0.0
  0
SPLINE
  5
26d
100
AcDbEntity
  8
0
 62
7
100
AcDbSpline
 70
8
 71
3
 72
8
 73
4
 74
0
 40
0
 40
0
 40
0
 40
0
 40
1
 40
1
 40
1
 40
1
 10
42.568216
 20
88.687108
 30
0.0
 10
42.591301
 20
86.627963
 30
0.0
 10
42.463223
 20
86.553275
 30
0.0
 10
39.932381
 20
87.150031
 30
0.0
  0
LWPOLYLINE
  5
26e
100
AcDbEntity
  8
0
 62
7
100
AcDbPolyline
 90
3
 70
1
 10
29.550597
 20
97.543870
 30
0.0
 10
29.364378
 20
98.612256
 30
0.0
 10
31.058381
 20
98.450201
 30
0.0
  0
SPLINE
  5
26f
100
AcDbEntity
  8
0
 62
7
100
AcDbSpline
 70
8
 71
3
 72
8
 73
4
 74
0
 40
0
 40
0
 40
0
 40
0
 40
1
 40
1
 40
1
 40
1
 10
42.019322
 20
88.999514
 30
0.0
 10
41.908061
 20
89.776951
 30
0.0
 10
41.641979
 20
90.801356
 30
0.0
 10
41.428035
 20
91.275970
 30
0.0
  0
SPLINE
  5
270
100
AcDbEntity
  8
0
 62
7
100
AcDbSpline
 70
8
 71
3
 72
8
 73
4
 74
0
 40
0
 40
0
 40
0
 40
0
 40
1
 40
1
 40
1
 40
1
 10
41.428035
 20
91.275970
 30
0.0
 10
40.210091
 20
93.977831
 30
0.0
 10
35.343140
 20
97.039849
 30
0.0
 10
30.976409
 20
97.851554
 30
0.0
  0
SPLINE
  5
271
100
AcDbEntity
  8
0
 62
7
100
AcDbSpline
 70
8
 71
3
 72
8
 73
4
 74
0
 40
0
 40
0
 40
0
 40
0
 40
1
 40
1
 40
1
 40
1
 10
30.976409
 20
97.851554
 30
0.0
 10
30.045646
 20
98.024568
 30
0.0
 10
29.999412
 20
97.997765
 30
0.0
 10
30.183926
 20
97.392150
 30
0.0
  0
SPLINE
  5
272
100
AcDbEntity
  8
0
 62
7
100
AcDbSpline
 70
8
 71
3
 72
8
 73
4
 74
0
 40
0
 40
0
 40
0
 40
0
 40
1
 40
1
 40
1
 40
1
 10
30.183926
 20
97.392150
 30
0.0
 10
30.814772
 20
95.321583
 30
0.0
 10
32.573527
 20
92.658565
 30
0.0
 10
34.561320
 20
90.764130
 30
0.0
  0
SPLINE
  5
273
100
AcDbEntity
  8
0
 62
7
100
AcDbSpline
 70
8
 71
3
 72
8
 73
4
 74
0
 40
0
 40
0
 40
0
 40
0
 40
1
 40
1
 40
1
 40
1
 10
34.561320
 20
90.764130
 30
0.0
 10
36.411162
 20
89.001165
 30
0.0
 10
36.934735
 20
88.666245
 30
0.0
 10
38.604461
 20
88.177811
 30
0.0
  0
SPLINE
  5
274
100
AcDbEntity
  8
0
 62
7
100
AcDbSpline
 70
8
 71
3
 72
8
 73
4
 74
0
 40
0
 40
0
 40
0
 40
0
 40
1
 40
1
 40
1
 40
1
 10
38.604461
 20
88.177811
 30
0.0
 10
39.659419
 20
87.869209
 30
0.0
 10
40.904857
 20
87.609804
 30
0.0
 10
41.372096
 20
87.601355
 30
0.0
  0
LWPOLYLINE
  5
275
100
AcDbEntity
  8
0
 62
7
100
AcDbPolyline
 90
2
 70
1
 10
39.932381
 20
87.150031
 30
0.0
 10
39.932381
 20
87.150032
 30
0.0
  0
LWPOLYLINE
  5
276
100
AcDbEntity
  8
0
 62
7
100
AcDbPolyline
 90
4
 70
1
 10
41.372096
 20
87.601355
 30
0.0
 10
42.221621
 20
87.585999
 30
0.0
 10
42.019322
 20
88.999522
 30
0.0
 10
42.019322
 20
88.999514
 30
0.0
  0
ENDSEC
  0
SECTION
  2
OBJECTS
  0
DICTIONARY
  5
C
330
0
100
AcDbDictionary
  3
ACAD_GROUP
350
D
  3
ACAD_MLINESTYLE
350
17
  0
DICTIONARY
  5
D
330
C
100
AcDbDictionary
  0
DICTIONARY
  5
1A
330
C
100
AcDbDictionary
  0
DICTIONARY
  5
17
330
C
100
AcDbDictionary
  3
STANDARD
350
18
  0
DICTIONARY
  5
19
330
C
100
AcDbDictionary
  0
ENDSEC
  0
EOF
