  0
SECTION
  2
HEADER
  9
$ACADVER
  1
AC1014
  9
$HANDSEED
  5
FFFF
  9
$MEASUREMENT
 70
     1
  0
ENDSEC
  0
SECTION
  2
TABLES
  0
TABLE
  2
VPORT
  5
8
330
0
100
AcDbSymbolTable
 70
     4
  0
VPORT
  5
2E
330
8
100
AcDbSymbolTableRecord
100
AcDbViewportTableRecord
  2
*ACTIVE
 70
     0
 10
0.0
 20
0.0
 11
1.0
 21
1.0
 12
210.0
 22
148.5
 13
0.0
 23
0.0
 14
10.0
 24
10.0
 15
10.0
 25
10.0
 16
0.0
 26
0.0
 36
1.0
 17
0.0
 27
0.0
 37
0.0
 40
341.0
 41
1.24
 42
50.0
 43
0.0
 44
0.0
 50
0.0
 51
0.0
 71
     0
 72
   100
 73
     1
 74
     3
 75
     0
 76
     0
 77
     0
 78
     0
  0
ENDTAB
  0
TABLE
  2
LTYPE
  5
5
330
0
100
AcDbSymbolTable
 70
     1
  0
LTYPE
  5
14
330
5
100
AcDbSymbolTableRecord
100
AcDbLinetypeTableRecord
  2
BYBLOCK
 70
     0
  3

 72
    65
 73
     0
 40
0.0
  0
LTYPE
  5
15
330
5
100
AcDbSymbolTableRecord
100
AcDbLinetypeTableRecord
  2
BYLAYER
 70
     0
  3

 72
    65
 73
     0
 40
0.0
  0
LTYPE
  5
16
330
5
100
AcDbSymbolTableRecord
100
AcDbLinetypeTableRecord
  2
CONTINUOUS
 70
     0
  3
Solid line
 72
    65
 73
     0
 40
0.0
  0
ENDTAB
  0
TABLE
  2
LAYER
  5
2
100
AcDbSymbolTable
 70
1
  0
LAYER
  5
50
100
AcDbSymbolTableRecord
100
AcDbLayerTableRecord
  2
0
 70
0
  6
CONTINUOUS
  0
ENDTAB
  0
TABLE
  2
STYLE
  5
3
330
0
100
AcDbSymbolTable
 70
     1
  0
STYLE
  5
11
330
3
100
AcDbSymbolTableRecord
100
AcDbTextStyleTableRecord
  2
STANDARD
 70
     0
 40
0.0
 41
1.0
 50
0.0
 71
     0
 42
2.5
  3
txt
  4

  0
ENDTAB
  0
TABLE
  2
VIEW
  5
6
330
0
100
AcDbSymbolTable
 70
     0
  0
ENDTAB
  0
TABLE
  2
UCS
  5
7
330
0
100
AcDbSymbolTable
 70
     0
  0
ENDTAB
  0
TABLE
  2
APPID
  5
9
330
0
100
AcDbSymbolTable
 70
     2
  0
APPID
  5
12
330
9
100
AcDbSymbolTableRecord
100
AcDbRegAppTableRecord
  2
ACAD
 70
     0
  0
ENDTAB
  0
TABLE
  2
DIMSTYLE
  5
A
330
0
100
AcDbSymbolTable
 70
     1
  0
DIMSTYLE
105
27
330
A
100
AcDbSymbolTableRecord
100
AcDbDimStyleTableRecord
  2
ISO-25
 70
     0
  3

  4

  5

  6

  7

 40
1.0
 41
2.5
 42
0.625
 43
3.75
 44
1.25
 45
0.0
 46
0.0
 47
0.0
 48
0.0
140
2.5
141
2.5
142
0.0
143
0.03937007874016
144
1.0
145
0.0
146
1.0
147
0.625
 71
     0
 72
     0
 73
     0
 74
     0
 75
     0
 76
     0
 77
     1
 78
     8
170
     0
171
     3
172
     1
173
     0
174
     0
175
     0
176
     0
177
     0
178
     0
270
     2
271
     2
272
     2
273
     2
274
     3
340
11
275
     0
280
     0
281
     0
282
     0
283
     0
284
     8
285
     0
286
     0
287
     3
288
     0
  0
ENDTAB
  0
TABLE
  2
BLOCK_RECORD
  5
1
330
0
100
AcDbSymbolTable
 70
     1
  0
BLOCK_RECORD
  5
1F
330
1
100
AcDbSymbolTableRecord
100
AcDbBlockTableRecord
  2
*MODEL_SPACE
  0
BLOCK_RECORD
  5
1B
330
1
100
AcDbSymbolTableRecord
100
AcDbBlockTableRecord
  2
*PAPER_SPACE
  0
ENDTAB
  0
ENDSEC
  0
SECTION
  2
BLOCKS
  0
BLOCK
  5
20
330
1F
100
AcDbEntity
  8
0
100
AcDbBlockBegin
  2
*MODEL_SPACE
 70
     0
 10
0.0
 20
0.0
 30
0.0
  3
*MODEL_SPACE
  1

  0
ENDBLK
  5
21
330
1F
100
AcDbEntity
  8
0
100
AcDbBlockEnd
  0
BLOCK
  5
1C
330
1B
100
AcDbEntity
 67
     1
  8
0
100
AcDbBlockBegin
  2
*PAPER_SPACE
  1

  0
ENDBLK
  5
1D
330
1B
100
AcDbEntity
 67
     1
  8
0
100
AcDbBlockEnd
  0
ENDSEC
  0
SECTION
  2
ENTITIES
  0
SPLINE
  5
100
100
AcDbEntity
  8
0
 62
7
100
AcDbSpline
 70
8
 71
3
 72
8
 73
4
 74
0
 40
0
 40
0
 40
0
 40
0
 40
1
 40
1
 40
1
 40
1
 10
5.980143
 20
3.029270
 30
0.0
 10
5.813535
 20
3.089185
 30
0.0
 10
5.715286
 20
3.221493
 30
0.0
 10
5.701247
 20
3.404848
 30
0.0
  0
SPLINE
  5
101
100
AcDbEntity
  8
0
 62
7
100
AcDbSpline
 70
8
 71
3
 72
8
 73
4
 74
0
 40
0
 40
0
 40
0
 40
0
 40
1
 40
1
 40
1
 40
1
 10
5.701247
 20
3.404848
 30
0.0
 10
5.692051
 20
3.524953
 30
0.0
 10
5.729678
 20
3.643110
 30
0.0
 10
5.819590
 20
3.776469
 30
0.0
  0
SPLINE
  5
102
100
AcDbEntity
  8
0
 62
7
100
AcDbSpline
 70
8
 71
3
 72
8
 73
4
 74
0
 40
0
 40
0
 40
0
 40
0
 40
1
 40
1
 40
1
 40
1
 10
5.819590
 20
3.776469
 30
0.0
 10
5.844373
 20
3.813229
 30
0.0
 10
5.862673
 20
3.843306
 30
0.0
 10
5.860256
 20
3.843306
 30
0.0
  0
SPLINE
  5
103
100
AcDbEntity
  8
0
 62
7
100
AcDbSpline
 70
8
 71
3
 72
8
 73
4
 74
0
 40
0
 40
0
 40
0
 40
0
 40
1
 40
1
 40
1
 40
1
 10
5.860256
 20
3.843306
 30
0.0
 10
5.857837
 20
3.843306
 30
0.0
 10
5.830500
 20
3.836087
 30
0.0
 10
5.799504
 20
3.827265
 30
0.0
  0
SPLINE
  5
104
100
AcDbEntity
  8
0
 62
7
100
AcDbSpline
 70
8
 71
3
 72
8
 73
4
 74
0
 40
0
 40
0
 40
0
 40
0
 40
1
 40
1
 40
1
 40
1
 10
5.799504
 20
3.827265
 30
0.0
 10
5.683525
 20
3.794254
 30
0.0
 10
5.589928
 20
3.812053
 30
0.0
 10
5.528920
 20
3.878720
 30
0.0
  0
SPLINE
  5
105
100
AcDbEntity
  8
0
 62
7
100
AcDbSpline
 70
8
 71
3
 72
8
 73
4
 74
0
 40
0
 40
0
 40
0
 40
0
 40
1
 40
1
 40
1
 40
1
 10
5.528920
 20
3.878720
 30
0.0
 10
5.414722
 20
4.003512
 30
0.0
 10
5.415292
 20
4.186329
 30
0.0
 10
5.530272
 20
4.311974
 30
0.0
  0
SPLINE
  5
106
100
AcDbEntity
  8
0
 62
7
100
AcDbSpline
 70
8
 71
3
 72
8
 73
4
 74
0
 40
0
 40
0
 40
0
 40
0
 40
1
 40
1
 40
1
 40
1
 10
5.530272
 20
4.311974
 30
0.0
 10
5.566546
 20
4.351613
 30
0.0
 10
5.644962
 20
4.399381
 30
0.0
 10
5.673760
 20
4.399381
 30
0.0
  0
SPLINE
  5
107
100
AcDbEntity
  8
0
 62
7
100
AcDbSpline
 70
8
 71
3
 72
8
 73
4
 74
0
 40
0
 40
0
 40
0
 40
0
 40
1
 40
1
 40
1
 40
1
 10
5.673760
 20
4.399381
 30
0.0
 10
5.707686
 20
4.399381
 30
0.0
 10
5.684442
 20
4.418058
 30
0.0
 10
5.627384
 20
4.436645
 30
0.0
  0
SPLINE
  5
108
100
AcDbEntity
  8
0
 62
7
100
AcDbSpline
 70
8
 71
3
 72
8
 73
4
 74
0
 40
0
 40
0
 40
0
 40
0
 40
1
 40
1
 40
1
 40
1
 10
5.627384
 20
4.436645
 30
0.0
 10
5.576724
 20
4.453148
 30
0.0
 10
5.556062
 20
4.467727
 30
0.0
 10
5.507056
 20
4.521546
 30
0.0
  0
SPLINE
  5
109
100
AcDbEntity
  8
0
 62
7
100
AcDbSpline
 70
8
 71
3
 72
8
 73
4
 74
0
 40
0
 40
0
 40
0
 40
0
 40
1
 40
1
 40
1
 40
1
 10
5.507056
 20
4.521546
 30
0.0
 10
5.421633
 20
4.615359
 30
0.0
 10
5.409601
 20
4.647894
 30
0.0
 10
5.409864
 20
4.784356
 30
0.0
  0
SPLINE
  5
10a
100
AcDbEntity
  8
0
 62
7
100
AcDbSpline
 70
8
 71
3
 72
8
 73
4
 74
0
 40
0
 40
0
 40
0
 40
0
 40
1
 40
1
 40
1
 40
1
 10
5.409864
 20
4.784356
 30
0.0
 10
5.410090
 20
4.907290
 30
0.0
 10
5.420292
 20
4.941765
 30
0.0
 10
5.475041
 20
5.004866
 30
0.0
  0
SPLINE
  5
10b
100
AcDbEntity
  8
0
 62
7
100
AcDbSpline
 70
8
 71
3
 72
8
 73
4
 74
0
 40
0
 40
0
 40
0
 40
0
 40
1
 40
1
 40
1
 40
1
 10
5.467746
 20
5.100155
 30
0.0
 10
5.431641
 20
5.161832
 30
0.0
 10
5.359533
 20
5.332195
 30
0.0
 10
5.336097
 20
5.411191
 30
0.0
  0
SPLINE
  5
10c
100
AcDbEntity
  8
0
 62
7
100
AcDbSpline
 70
8
 71
3
 72
8
 73
4
 74
0
 40
0
 40
0
 40
0
 40
0
 40
1
 40
1
 40
1
 40
1
 10
5.336097
 20
5.411191
 30
0.0
 10
5.313976
 20
5.485755
 30
0.0
 10
5.269412
 20
5.572267
 30
0.0
 10
5.238467
 20
5.600721
 30
0.0
  0
SPLINE
  5
10d
100
AcDbEntity
  8
0
 62
7
100
AcDbSpline
 70
8
 71
3
 72
8
 73
4
 74
0
 40
0
 40
0
 40
0
 40
0
 40
1
 40
1
 40
1
 40
1
 10
5.238467
 20
5.600721
 30
0.0
 10
5.106010
 20
5.722517
 30
0.0
 10
4.881518
 20
5.585541
 30
0.0
 10
4.822392
 20
5.346849
 30
0.0
  0
SPLINE
  5
10e
100
AcDbEntity
  8
0
 62
7
100
AcDbSpline
 70
8
 71
3
 72
8
 73
4
 74
0
 40
0
 40
0
 40
0
 40
0
 40
1
 40
1
 40
1
 40
1
 10
4.822392
 20
5.346849
 30
0.0
 10
4.809993
 20
5.296795
 30
0.0
 10
4.806498
 20
5.252571
 30
0.0
 10
4.809689
 20
5.186134
 30
0.0
  0
SPLINE
  5
10f
100
AcDbEntity
  8
0
 62
7
100
AcDbSpline
 70
8
 71
3
 72
8
 73
4
 74
0
 40
0
 40
0
 40
0
 40
0
 40
1
 40
1
 40
1
 40
1
 10
4.809689
 20
5.186134
 30
0.0
 10
4.812110
 20
5.135722
 30
0.0
 10
4.810851
 20
5.094476
 30
0.0
 10
4.806892
 20
5.094476
 30
0.0
  0
SPLINE
  5
110
100
AcDbEntity
  8
0
 62
7
100
AcDbSpline
 70
8
 71
3
 72
8
 73
4
 74
0
 40
0
 40
0
 40
0
 40
0
 40
1
 40
1
 40
1
 40
1
 10
4.806892
 20
5.094476
 30
0.0
 10
4.802932
 20
5.094476
 30
0.0
 10
4.782019
 20
5.116415
 30
0.0
 10
4.760419
 20
5.143231
 30
0.0
  0
SPLINE
  5
111
100
AcDbEntity
  8
0
 62
7
100
AcDbSpline
 70
8
 71
3
 72
8
 73
4
 74
0
 40
0
 40
0
 40
0
 40
0
 40
1
 40
1
 40
1
 40
1
 10
4.760419
 20
5.143231
 30
0.0
 10
4.632698
 20
5.301791
 30
0.0
 10
4.664527
 20
5.613606
 30
0.0
 10
4.827380
 20
5.799216
 30
0.0
  0
SPLINE
  5
112
100
AcDbEntity
  8
0
 62
7
100
AcDbSpline
 70
8
 71
3
 72
8
 73
4
 74
0
 40
0
 40
0
 40
0
 40
0
 40
1
 40
1
 40
1
 40
1
 10
4.827380
 20
5.799216
 30
0.0
 10
4.944634
 20
5.932856
 30
0.0
 10
5.144960
 20
6.017395
 30
0.0
 10
5.298295
 20
5.997948
 30
0.0
  0
SPLINE
  5
113
100
AcDbEntity
  8
0
 62
7
100
AcDbSpline
 70
8
 71
3
 72
8
 73
4
 74
0
 40
0
 40
0
 40
0
 40
0
 40
1
 40
1
 40
1
 40
1
 10
5.298295
 20
5.997948
 30
0.0
 10
5.447613
 20
5.979010
 30
0.0
 10
5.640163
 20
5.820909
 30
0.0
 10
5.761665
 20
5.617478
 30
0.0
  0
SPLINE
  5
114
100
AcDbEntity
  8
0
 62
7
100
AcDbSpline
 70
8
 71
3
 72
8
 73
4
 74
0
 40
0
 40
0
 40
0
 40
0
 40
1
 40
1
 40
1
 40
1
 10
5.761665
 20
5.617478
 30
0.0
 10
5.787686
 20
5.573912
 30
0.0
 10
5.836702
 20
5.492105
 30
0.0
 10
5.870590
 20
5.435684
 30
0.0
  0
SPLINE
  5
115
100
AcDbEntity
  8
0
 62
7
100
AcDbSpline
 70
8
 71
3
 72
8
 73
4
 74
0
 40
0
 40
0
 40
0
 40
0
 40
1
 40
1
 40
1
 40
1
 10
5.870590
 20
5.435684
 30
0.0
 10
5.972568
 20
5.265901
 30
0.0
 10
6.060871
 20
5.216237
 30
0.0
 10
6.190712
 20
5.255637
 30
0.0
  0
SPLINE
  5
116
100
AcDbEntity
  8
0
 62
7
100
AcDbSpline
 70
8
 71
3
 72
8
 73
4
 74
0
 40
0
 40
0
 40
0
 40
0
 40
1
 40
1
 40
1
 40
1
 10
6.190712
 20
5.255637
 30
0.0
 10
6.226245
 20
5.266419
 30
0.0
 10
6.227723
 20
5.268610
 30
0.0
 10
6.221322
 20
5.301026
 30
0.0
  0
SPLINE
  5
117
100
AcDbEntity
  8
0
 62
7
100
AcDbSpline
 70
8
 71
3
 72
8
 73
4
 74
0
 40
0
 40
0
 40
0
 40
0
 40
1
 40
1
 40
1
 40
1
 10
6.221322
 20
5.301026
 30
0.0
 10
6.212858
 20
5.343892
 30
0.0
 10
6.189642
 20
5.394191
 30
0.0
 10
6.141054
 20
5.474928
 30
0.0
  0
SPLINE
  5
118
100
AcDbEntity
  8
0
 62
7
100
AcDbSpline
 70
8
 71
3
 72
8
 73
4
 74
0
 40
0
 40
0
 40
0
 40
0
 40
1
 40
1
 40
1
 40
1
 10
6.141054
 20
5.474928
 30
0.0
 10
6.079941
 20
5.576477
 30
0.0
 10
6.024654
 20
5.693690
 30
0.0
 10
6.005253
 20
5.762836
 30
0.0
  0
SPLINE
  5
119
100
AcDbEntity
  8
0
 62
7
100
AcDbSpline
 70
8
 71
3
 72
8
 73
4
 74
0
 40
0
 40
0
 40
0
 40
0
 40
1
 40
1
 40
1
 40
1
 10
6.005253
 20
5.762836
 30
0.0
 10
5.995352
 20
5.798125
 30
0.0
 10
5.971543
 20
5.849890
 30
0.0
 10
5.952346
 20
5.877868
 30
0.0
  0
SPLINE
  5
11a
100
AcDbEntity
  8
0
 62
7
100
AcDbSpline
 70
8
 71
3
 72
8
 73
4
 74
0
 40
0
 40
0
 40
0
 40
0
 40
1
 40
1
 40
1
 40
1
 10
5.952346
 20
5.877868
 30
0.0
 10
5.898360
 20
5.956542
 30
0.0
 10
5.879300
 20
6.024652
 30
0.0
 10
5.879796
 20
6.137117
 30
0.0
  0
SPLINE
  5
11b
100
AcDbEntity
  8
0
 62
7
100
AcDbSpline
 70
8
 71
3
 72
8
 73
4
 74
0
 40
0
 40
0
 40
0
 40
0
 40
1
 40
1
 40
1
 40
1
 10
5.879796
 20
6.137117
 30
0.0
 10
5.880360
 20
6.264959
 30
0.0
 10
5.905053
 20
6.334115
 30
0.0
 10
5.982402
 20
6.424472
 30
0.0
  0
SPLINE
  5
11c
100
AcDbEntity
  8
0
 62
7
100
AcDbSpline
 70
8
 71
3
 72
8
 73
4
 74
0
 40
0
 40
0
 40
0
 40
0
 40
1
 40
1
 40
1
 40
1
 10
5.982402
 20
6.424472
 30
0.0
 10
6.047416
 20
6.500420
 30
0.0
 10
6.114517
 20
6.541155
 30
0.0
 10
6.203726
 20
6.558833
 30
0.0
  0
SPLINE
  5
11d
100
AcDbEntity
  8
0
 62
7
100
AcDbSpline
 70
8
 71
3
 72
8
 73
4
 74
0
 40
0
 40
0
 40
0
 40
0
 40
1
 40
1
 40
1
 40
1
 10
6.203726
 20
6.558833
 30
0.0
 10
6.245960
 20
6.567202
 30
0.0
 10
6.282879
 20
6.584473
 30
0.0
 10
6.328452
 20
6.617183
 30
0.0
  0
SPLINE
  5
11e
100
AcDbEntity
  8
0
 62
7
100
AcDbSpline
 70
8
 71
3
 72
8
 73
4
 74
0
 40
0
 40
0
 40
0
 40
0
 40
1
 40
1
 40
1
 40
1
 10
6.328452
 20
6.617183
 30
0.0
 10
6.462045
 20
6.713067
 30
0.0
 10
6.609160
 20
6.746432
 30
0.0
 10
6.862856
 20
6.738385
 30
0.0
  0
SPLINE
  5
11f
100
AcDbEntity
  8
0
 62
7
100
AcDbSpline
 70
8
 71
3
 72
8
 73
4
 74
0
 40
0
 40
0
 40
0
 40
0
 40
1
 40
1
 40
1
 40
1
 10
6.862856
 20
6.738385
 30
0.0
 10
7.083242
 20
6.731394
 30
0.0
 10
7.189574
 20
6.700042
 30
0.0
 10
7.324752
 20
6.602199
 30
0.0
  0
SPLINE
  5
120
100
AcDbEntity
  8
0
 62
7
100
AcDbSpline
 70
8
 71
3
 72
8
 73
4
 74
0
 40
0
 40
0
 40
0
 40
0
 40
1
 40
1
 40
1
 40
1
 10
7.324752
 20
6.602199
 30
0.0
 10
7.352624
 20
6.582024
 30
0.0
 10
7.391882
 20
6.565508
 30
0.0
 10
7.426673
 20
6.559321
 30
0.0
  0
SPLINE
  5
121
100
AcDbEntity
  8
0
 62
7
100
AcDbSpline
 70
8
 71
3
 72
8
 73
4
 74
0
 40
0
 40
0
 40
0
 40
0
 40
1
 40
1
 40
1
 40
1
 10
7.426673
 20
6.559321
 30
0.0
 10
7.572026
 20
6.533469
 30
0.0
 10
7.701001
 20
6.404624
 30
0.0
 10
7.739429
 20
6.246878
 30
0.0
  0
SPLINE
  5
122
100
AcDbEntity
  8
0
 62
7
100
AcDbSpline
 70
8
 71
3
 72
8
 73
4
 74
0
 40
0
 40
0
 40
0
 40
0
 40
1
 40
1
 40
1
 40
1
 10
7.739429
 20
6.246878
 30
0.0
 10
7.769280
 20
6.124336
 30
0.0
 10
7.748634
 20
5.996583
 30
0.0
 10
7.681075
 20
5.885814
 30
0.0
  0
SPLINE
  5
123
100
AcDbEntity
  8
0
 62
7
100
AcDbSpline
 70
8
 71
3
 72
8
 73
4
 74
0
 40
0
 40
0
 40
0
 40
0
 40
1
 40
1
 40
1
 40
1
 10
7.681075
 20
5.885814
 30
0.0
 10
7.657759
 20
5.847584
 30
0.0
 10
7.631127
 20
5.789837
 30
0.0
 10
7.621895
 20
5.757489
 30
0.0
  0
SPLINE
  5
124
100
AcDbEntity
  8
0
 62
7
100
AcDbSpline
 70
8
 71
3
 72
8
 73
4
 74
0
 40
0
 40
0
 40
0
 40
0
 40
1
 40
1
 40
1
 40
1
 10
7.621895
 20
5.757489
 30
0.0
 10
7.602507
 20
5.689560
 30
0.0
 10
7.533522
 20
5.545365
 30
0.0
 10
7.476360
 20
5.453287
 30
0.0
  0
SPLINE
  5
125
100
AcDbEntity
  8
0
 62
7
100
AcDbSpline
 70
8
 71
3
 72
8
 73
4
 74
0
 40
0
 40
0
 40
0
 40
0
 40
1
 40
1
 40
1
 40
1
 10
7.476360
 20
5.453287
 30
0.0
 10
7.440798
 20
5.396003
 30
0.0
 10
7.401081
 20
5.302814
 30
0.0
 10
7.401081
 20
5.276658
 30
0.0
  0
SPLINE
  5
126
100
AcDbEntity
  8
0
 62
7
100
AcDbSpline
 70
8
 71
3
 72
8
 73
4
 74
0
 40
0
 40
0
 40
0
 40
0
 40
1
 40
1
 40
1
 40
1
 10
7.401081
 20
5.276658
 30
0.0
 10
7.401081
 20
5.262313
 30
0.0
 10
7.466575
 20
5.244318
 30
0.0
 10
7.519037
 20
5.244248
 30
0.0
  0
SPLINE
  5
127
100
AcDbEntity
  8
0
 62
7
100
AcDbSpline
 70
8
 71
3
 72
8
 73
4
 74
0
 40
0
 40
0
 40
0
 40
0
 40
1
 40
1
 40
1
 40
1
 10
7.519037
 20
5.244248
 30
0.0
 10
7.577803
 20
5.244163
 30
0.0
 10
7.655208
 20
5.286788
 30
0.0
 10
7.700300
 20
5.344049
 30
0.0
  0
SPLINE
  5
128
100
AcDbEntity
  8
0
 62
7
100
AcDbSpline
 70
8
 71
3
 72
8
 73
4
 74
0
 40
0
 40
0
 40
0
 40
0
 40
1
 40
1
 40
1
 40
1
 10
7.700300
 20
5.344049
 30
0.0
 10
7.719576
 20
5.368527
 30
0.0
 10
7.759868
 20
5.431864
 30
0.0
 10
7.789838
 20
5.484798
 30
0.0
  0
SPLINE
  5
129
100
AcDbEntity
  8
0
 62
7
100
AcDbSpline
 70
8
 71
3
 72
8
 73
4
 74
0
 40
0
 40
0
 40
0
 40
0
 40
1
 40
1
 40
1
 40
1
 10
7.789838
 20
5.484798
 30
0.0
 10
7.948715
 20
5.765409
 30
0.0
 10
8.046778
 20
5.874578
 30
0.0
 10
8.219139
 20
5.962718
 30
0.0
  0
SPLINE
  5
12a
100
AcDbEntity
  8
0
 62
7
100
AcDbSpline
 70
8
 71
3
 72
8
 73
4
 74
0
 40
0
 40
0
 40
0
 40
0
 40
1
 40
1
 40
1
 40
1
 10
8.219139
 20
5.962718
 30
0.0
 10
8.278524
 20
5.993086
 30
0.0
 10
8.296342
 20
5.997149
 30
0.0
 10
8.369779
 20
5.997074
 30
0.0
  0
SPLINE
  5
12b
100
AcDbEntity
  8
0
 62
7
100
AcDbSpline
 70
8
 71
3
 72
8
 73
4
 74
0
 40
0
 40
0
 40
0
 40
0
 40
1
 40
1
 40
1
 40
1
 10
8.369779
 20
5.997074
 30
0.0
 10
8.468711
 20
5.996961
 30
0.0
 10
8.554581
 20
5.974324
 30
0.0
 10
8.648785
 20
5.923483
 30
0.0
  0
SPLINE
  5
12c
100
AcDbEntity
  8
0
 62
7
100
AcDbSpline
 70
8
 71
3
 72
8
 73
4
 74
0
 40
0
 40
0
 40
0
 40
0
 40
1
 40
1
 40
1
 40
1
 10
8.648785
 20
5.923483
 30
0.0
 10
8.737959
 20
5.875357
 30
0.0
 10
8.798574
 20
5.816990
 30
0.0
 10
8.854007
 20
5.725871
 30
0.0
  0
SPLINE
  5
12d
100
AcDbEntity
  8
0
 62
7
100
AcDbSpline
 70
8
 71
3
 72
8
 73
4
 74
0
 40
0
 40
0
 40
0
 40
0
 40
1
 40
1
 40
1
 40
1
 10
8.854007
 20
5.725871
 30
0.0
 10
8.924115
 20
5.610630
 30
0.0
 10
8.940731
 20
5.549696
 30
0.0
 10
8.941614
 20
5.404595
 30
0.0
  0
SPLINE
  5
12e
100
AcDbEntity
  8
0
 62
7
100
AcDbSpline
 70
8
 71
3
 72
8
 73
4
 74
0
 40
0
 40
0
 40
0
 40
0
 40
1
 40
1
 40
1
 40
1
 10
8.941614
 20
5.404595
 30
0.0
 10
8.942299
 20
5.291722
 30
0.0
 10
8.940188
 20
5.276783
 30
0.0
 10
8.915926
 20
5.222801
 30
0.0
  0
SPLINE
  5
12f
100
AcDbEntity
  8
0
 62
7
100
AcDbSpline
 70
8
 71
3
 72
8
 73
4
 74
0
 40
0
 40
0
 40
0
 40
0
 40
1
 40
1
 40
1
 40
1
 10
8.915926
 20
5.222801
 30
0.0
 10
8.901386
 20
5.190452
 30
0.0
 10
8.872558
 20
5.145919
 30
0.0
 10
8.851863
 20
5.123839
 30
0.0
  0
LWPOLYLINE
  5
130
100
AcDbEntity
  8
0
 62
7
100
AcDbPolyline
 90
3
 70
1
 10
5.475041
 20
5.004866
 30
0.0
 10
5.503993
 20
5.038234
 30
0.0
 10
5.467746
 20
5.100155
 30
0.0
  0
SPLINE
  5
131
100
AcDbEntity
  8
0
 62
7
100
AcDbSpline
 70
8
 71
3
 72
8
 73
4
 74
0
 40
0
 40
0
 40
0
 40
0
 40
1
 40
1
 40
1
 40
1
 10
8.818243
 20
5.183783
 30
0.0
 10
8.826309
 20
5.385322
 30
0.0
 10
8.749678
 20
5.545415
 30
0.0
 10
8.611059
 20
5.616619
 30
0.0
  0
SPLINE
  5
132
100
AcDbEntity
  8
0
 62
7
100
AcDbSpline
 70
8
 71
3
 72
8
 73
4
 74
0
 40
0
 40
0
 40
0
 40
0
 40
1
 40
1
 40
1
 40
1
 10
8.611059
 20
5.616619
 30
0.0
 10
8.479514
 20
5.684189
 30
0.0
 10
8.376362
 20
5.635836
 30
0.0
 10
8.318435
 20
5.479451
 30
0.0
  0
SPLINE
  5
133
100
AcDbEntity
  8
0
 62
7
100
AcDbSpline
 70
8
 71
3
 72
8
 73
4
 74
0
 40
0
 40
0
 40
0
 40
0
 40
1
 40
1
 40
1
 40
1
 10
8.318435
 20
5.479451
 30
0.0
 10
8.230463
 20
5.241955
 30
0.0
 10
8.197678
 20
5.162761
 30
0.0
 10
8.163189
 20
5.104450
 30
0.0
  0
LWPOLYLINE
  5
134
100
AcDbEntity
  8
0
 62
7
100
AcDbPolyline
 90
3
 70
1
 10
8.851863
 20
5.123839
 30
0.0
 10
8.814237
 20
5.083693
 30
0.0
 10
8.818243
 20
5.183783
 30
0.0
  0
SPLINE
  5
135
100
AcDbEntity
  8
0
 62
7
100
AcDbSpline
 70
8
 71
3
 72
8
 73
4
 74
0
 40
0
 40
0
 40
0
 40
0
 40
1
 40
1
 40
1
 40
1
 10
8.150293
 20
5.010712
 30
0.0
 10
8.196509
 20
4.960208
 30
0.0
 10
8.215643
 20
4.904393
 30
0.0
 10
8.220832
 20
4.804950
 30
0.0
  0
SPLINE
  5
136
100
AcDbEntity
  8
0
 62
7
100
AcDbSpline
 70
8
 71
3
 72
8
 73
4
 74
0
 40
0
 40
0
 40
0
 40
0
 40
1
 40
1
 40
1
 40
1
 10
8.220832
 20
4.804950
 30
0.0
 10
8.226550
 20
4.695363
 30
0.0
 10
8.216093
 20
4.653292
 30
0.0
 10
8.162075
 20
4.568546
 30
0.0
  0
SPLINE
  5
137
100
AcDbEntity
  8
0
 62
7
100
AcDbSpline
 70
8
 71
3
 72
8
 73
4
 74
0
 40
0
 40
0
 40
0
 40
0
 40
1
 40
1
 40
1
 40
1
 10
8.162075
 20
4.568546
 30
0.0
 10
8.117296
 20
4.498297
 30
0.0
 10
8.071926
 20
4.462258
 30
0.0
 10
7.991589
 20
4.433123
 30
0.0
  0
SPLINE
  5
138
100
AcDbEntity
  8
0
 62
7
100
AcDbSpline
 70
8
 71
3
 72
8
 73
4
 74
0
 40
0
 40
0
 40
0
 40
0
 40
1
 40
1
 40
1
 40
1
 10
7.991589
 20
4.433123
 30
0.0
 10
7.945615
 20
4.416450
 30
0.0
 10
7.938248
 20
4.410831
 30
0.0
 10
7.953985
 20
4.404443
 30
0.0
  0
SPLINE
  5
139
100
AcDbEntity
  8
0
 62
7
100
AcDbSpline
 70
8
 71
3
 72
8
 73
4
 74
0
 40
0
 40
0
 40
0
 40
0
 40
1
 40
1
 40
1
 40
1
 10
7.953985
 20
4.404443
 30
0.0
 10
8.026357
 20
4.375065
 30
0.0
 10
8.061373
 20
4.352214
 30
0.0
 10
8.099206
 20
4.309676
 30
0.0
  0
SPLINE
  5
13a
100
AcDbEntity
  8
0
 62
7
100
AcDbSpline
 70
8
 71
3
 72
8
 73
4
 74
0
 40
0
 40
0
 40
0
 40
0
 40
1
 40
1
 40
1
 40
1
 10
8.099206
 20
4.309676
 30
0.0
 10
8.217157
 20
4.177054
 30
0.0
 10
8.217293
 20
4.007602
 30
0.0
 10
8.099551
 20
3.878862
 30
0.0
  0
SPLINE
  5
13b
100
AcDbEntity
  8
0
 62
7
100
AcDbSpline
 70
8
 71
3
 72
8
 73
4
 74
0
 40
0
 40
0
 40
0
 40
0
 40
1
 40
1
 40
1
 40
1
 10
8.099551
 20
3.878862
 30
0.0
 10
8.037299
 20
3.810795
 30
0.0
 10
7.946741
 20
3.793566
 30
0.0
 10
7.828345
 20
3.827265
 30
0.0
  0
SPLINE
  5
13c
100
AcDbEntity
  8
0
 62
7
100
AcDbSpline
 70
8
 71
3
 72
8
 73
4
 74
0
 40
0
 40
0
 40
0
 40
0
 40
1
 40
1
 40
1
 40
1
 10
7.828345
 20
3.827265
 30
0.0
 10
7.797350
 20
3.836087
 30
0.0
 10
7.769708
 20
3.843306
 30
0.0
 10
7.766919
 20
3.843306
 30
0.0
  0
SPLINE
  5
13d
100
AcDbEntity
  8
0
 62
7
100
AcDbSpline
 70
8
 71
3
 72
8
 73
4
 74
0
 40
0
 40
0
 40
0
 40
0
 40
1
 40
1
 40
1
 40
1
 10
7.766919
 20
3.843306
 30
0.0
 10
7.764131
 20
3.843306
 30
0.0
 10
7.777162
 20
3.822854
 30
0.0
 10
7.795878
 20
3.797857
 30
0.0
  0
SPLINE
  5
13e
100
AcDbEntity
  8
0
 62
7
100
AcDbSpline
 70
8
 71
3
 72
8
 73
4
 74
0
 40
0
 40
0
 40
0
 40
0
 40
1
 40
1
 40
1
 40
1
 10
7.795878
 20
3.797857
 30
0.0
 10
7.843611
 20
3.734108
 30
0.0
 10
7.905561
 20
3.602643
 30
0.0
 10
7.919899
 20
3.534671
 30
0.0
  0
SPLINE
  5
13f
100
AcDbEntity
  8
0
 62
7
100
AcDbSpline
 70
8
 71
3
 72
8
 73
4
 74
0
 40
0
 40
0
 40
0
 40
0
 40
1
 40
1
 40
1
 40
1
 10
7.919899
 20
3.534671
 30
0.0
 10
7.926638
 20
3.502728
 30
0.0
 10
7.929789
 20
3.445901
 30
0.0
 10
7.927015
 20
3.406346
 30
0.0
  0
SPLINE
  5
140
100
AcDbEntity
  8
0
 62
7
100
AcDbSpline
 70
8
 71
3
 72
8
 73
4
 74
0
 40
0
 40
0
 40
0
 40
0
 40
1
 40
1
 40
1
 40
1
 10
7.927015
 20
3.406346
 30
0.0
 10
7.915865
 20
3.247328
 30
0.0
 10
7.840466
 20
3.127099
 30
0.0
 10
7.706513
 20
3.054739
 30
0.0
  0
SPLINE
  5
141
100
AcDbEntity
  8
0
 62
7
100
AcDbSpline
 70
8
 71
3
 72
8
 73
4
 74
0
 40
0
 40
0
 40
0
 40
0
 40
1
 40
1
 40
1
 40
1
 10
7.706513
 20
3.054739
 30
0.0
 10
7.632417
 20
3.014713
 30
0.0
 10
7.631564
 20
3.014539
 30
0.0
 10
7.509075
 20
3.014539
 30
0.0
  0
SPLINE
  5
142
100
AcDbEntity
  8
0
 62
7
100
AcDbSpline
 70
8
 71
3
 72
8
 73
4
 74
0
 40
0
 40
0
 40
0
 40
0
 40
1
 40
1
 40
1
 40
1
 10
7.509075
 20
3.014539
 30
0.0
 10
7.389880
 20
3.014539
 30
0.0
 10
7.384030
 20
3.015629
 30
0.0
 10
7.320939
 20
3.049552
 30
0.0
  0
SPLINE
  5
143
100
AcDbEntity
  8
0
 62
7
100
AcDbSpline
 70
8
 71
3
 72
8
 73
4
 74
0
 40
0
 40
0
 40
0
 40
0
 40
1
 40
1
 40
1
 40
1
 10
7.320939
 20
3.049552
 30
0.0
 10
7.278746
 20
3.072239
 30
0.0
 10
7.239191
 20
3.104550
 30
0.0
 10
7.208574
 20
3.141339
 30
0.0
  0
SPLINE
  5
144
100
AcDbEntity
  8
0
 62
7
100
AcDbSpline
 70
8
 71
3
 72
8
 73
4
 74
0
 40
0
 40
0
 40
0
 40
0
 40
1
 40
1
 40
1
 40
1
 10
7.208574
 20
3.141339
 30
0.0
 10
7.163884
 20
3.195037
 30
0.0
 10
7.104603
 20
3.295217
 30
0.0
 10
7.123293
 20
3.285454
 30
0.0
  0
SPLINE
  5
145
100
AcDbEntity
  8
0
 62
7
100
AcDbSpline
 70
8
 71
3
 72
8
 73
4
 74
0
 40
0
 40
0
 40
0
 40
0
 40
1
 40
1
 40
1
 40
1
 10
7.123293
 20
3.285454
 30
0.0
 10
7.128064
 20
3.282962
 30
0.0
 10
7.160591
 20
3.265685
 30
0.0
 10
7.195576
 20
3.247061
 30
0.0
  0
SPLINE
  5
146
100
AcDbEntity
  8
0
 62
7
100
AcDbSpline
 70
8
 71
3
 72
8
 73
4
 74
0
 40
0
 40
0
 40
0
 40
0
 40
1
 40
1
 40
1
 40
1
 10
7.195576
 20
3.247061
 30
0.0
 10
7.322589
 20
3.179444
 30
0.0
 10
7.472130
 20
3.159249
 30
0.0
 10
7.535104
 20
3.201209
 30
0.0
  0
SPLINE
  5
147
100
AcDbEntity
  8
0
 62
7
100
AcDbSpline
 70
8
 71
3
 72
8
 73
4
 74
0
 40
0
 40
0
 40
0
 40
0
 40
1
 40
1
 40
1
 40
1
 10
7.535104
 20
3.201209
 30
0.0
 10
7.582449
 20
3.232755
 30
0.0
 10
7.598885
 20
3.268498
 30
0.0
 10
7.604337
 20
3.351767
 30
0.0
  0
SPLINE
  5
148
100
AcDbEntity
  8
0
 62
7
100
AcDbSpline
 70
8
 71
3
 72
8
 73
4
 74
0
 40
0
 40
0
 40
0
 40
0
 40
1
 40
1
 40
1
 40
1
 10
7.604337
 20
3.351767
 30
0.0
 10
7.612457
 20
3.475787
 30
0.0
 10
7.567738
 20
3.558559
 30
0.0
 10
7.460236
 20
3.618491
 30
0.0
  0
SPLINE
  5
149
100
AcDbEntity
  8
0
 62
7
100
AcDbSpline
 70
8
 71
3
 72
8
 73
4
 74
0
 40
0
 40
0
 40
0
 40
0
 40
1
 40
1
 40
1
 40
1
 10
7.460236
 20
3.618491
 30
0.0
 10
7.438465
 20
3.630628
 30
0.0
 10
7.420651
 20
3.642825
 30
0.0
 10
7.420651
 20
3.645596
 30
0.0
  0
SPLINE
  5
14a
100
AcDbEntity
  8
0
 62
7
100
AcDbSpline
 70
8
 71
3
 72
8
 73
4
 74
0
 40
0
 40
0
 40
0
 40
0
 40
1
 40
1
 40
1
 40
1
 10
7.420651
 20
3.645596
 30
0.0
 10
7.420651
 20
3.648367
 30
0.0
 10
7.436116
 20
3.672772
 30
0.0
 10
7.455017
 20
3.699831
 30
0.0
  0
SPLINE
  5
14b
100
AcDbEntity
  8
0
 62
7
100
AcDbSpline
 70
8
 71
3
 72
8
 73
4
 74
0
 40
0
 40
0
 40
0
 40
0
 40
1
 40
1
 40
1
 40
1
 10
7.455017
 20
3.699831
 30
0.0
 10
7.473919
 20
3.726890
 30
0.0
 10
7.500777
 20
3.770274
 30
0.0
 10
7.514701
 20
3.796239
 30
0.0
  0
SPLINE
  5
14c
100
AcDbEntity
  8
0
 62
7
100
AcDbSpline
 70
8
 71
3
 72
8
 73
4
 74
0
 40
0
 40
0
 40
0
 40
0
 40
1
 40
1
 40
1
 40
1
 10
7.514701
 20
3.796239
 30
0.0
 10
7.542223
 20
3.847558
 30
0.0
 10
7.586474
 20
3.976416
 30
0.0
 10
7.586806
 20
4.006205
 30
0.0
  0
SPLINE
  5
14d
100
AcDbEntity
  8
0
 62
7
100
AcDbSpline
 70
8
 71
3
 72
8
 73
4
 74
0
 40
0
 40
0
 40
0
 40
0
 40
1
 40
1
 40
1
 40
1
 10
7.586806
 20
4.006205
 30
0.0
 10
7.587088
 20
4.031210
 30
0.0
 10
7.507443
 20
4.074224
 30
0.0
 10
7.412748
 20
4.100213
 30
0.0
  0
SPLINE
  5
14e
100
AcDbEntity
  8
0
 62
7
100
AcDbSpline
 70
8
 71
3
 72
8
 73
4
 74
0
 40
0
 40
0
 40
0
 40
0
 40
1
 40
1
 40
1
 40
1
 10
7.412748
 20
4.100213
 30
0.0
 10
7.371346
 20
4.111576
 30
0.0
 10
7.269215
 20
4.126005
 30
0.0
 10
7.185790
 20
4.132279
 30
0.0
  0
SPLINE
  5
14f
100
AcDbEntity
  8
0
 62
7
100
AcDbSpline
 70
8
 71
3
 72
8
 73
4
 74
0
 40
0
 40
0
 40
0
 40
0
 40
1
 40
1
 40
1
 40
1
 10
7.185790
 20
4.132279
 30
0.0
 10
7.102365
 20
4.138552
 30
0.0
 10
7.027503
 20
4.144854
 30
0.0
 10
7.019429
 20
4.146282
 30
0.0
  0
SPLINE
  5
150
100
AcDbEntity
  8
0
 62
7
100
AcDbSpline
 70
8
 71
3
 72
8
 73
4
 74
0
 40
0
 40
0
 40
0
 40
0
 40
1
 40
1
 40
1
 40
1
 10
7.019429
 20
4.146282
 30
0.0
 10
6.971701
 20
4.154725
 30
0.0
 10
7.320818
 20
4.326157
 30
0.0
 10
7.449047
 20
4.357244
 30
0.0
  0
SPLINE
  5
151
100
AcDbEntity
  8
0
 62
7
100
AcDbSpline
 70
8
 71
3
 72
8
 73
4
 74
0
 40
0
 40
0
 40
0
 40
0
 40
1
 40
1
 40
1
 40
1
 10
7.449047
 20
4.357244
 30
0.0
 10
7.481870
 20
4.365201
 30
0.0
 10
7.508699
 20
4.374328
 30
0.0
 10
7.508667
 20
4.377526
 30
0.0
  0
SPLINE
  5
152
100
AcDbEntity
  8
0
 62
7
100
AcDbSpline
 70
8
 71
3
 72
8
 73
4
 74
0
 40
0
 40
0
 40
0
 40
0
 40
1
 40
1
 40
1
 40
1
 10
7.508667
 20
4.377526
 30
0.0
 10
7.508639
 20
4.380724
 30
0.0
 10
7.467902
 20
4.399470
 30
0.0
 10
7.418148
 20
4.419184
 30
0.0
  0
SPLINE
  5
153
100
AcDbEntity
  8
0
 62
7
100
AcDbSpline
 70
8
 71
3
 72
8
 73
4
 74
0
 40
0
 40
0
 40
0
 40
0
 40
1
 40
1
 40
1
 40
1
 10
7.418148
 20
4.419184
 30
0.0
 10
7.245570
 20
4.487565
 30
0.0
 10
7.185259
 20
4.535819
 30
0.0
 10
7.100790
 20
4.673093
 30
0.0
  0
SPLINE
  5
154
100
AcDbEntity
  8
0
 62
7
100
AcDbSpline
 70
8
 71
3
 72
8
 73
4
 74
0
 40
0
 40
0
 40
0
 40
0
 40
1
 40
1
 40
1
 40
1
 10
7.100790
 20
4.673093
 30
0.0
 10
7.040356
 20
4.771309
 30
0.0
 10
7.040744
 20
4.776817
 30
0.0
 10
7.105672
 20
4.742441
 30
0.0
  0
SPLINE
  5
155
100
AcDbEntity
  8
0
 62
7
100
AcDbSpline
 70
8
 71
3
 72
8
 73
4
 74
0
 40
0
 40
0
 40
0
 40
0
 40
1
 40
1
 40
1
 40
1
 10
7.105672
 20
4.742441
 30
0.0
 10
7.185846
 20
4.699994
 30
0.0
 10
7.211513
 20
4.690299
 30
0.0
 10
7.291628
 20
4.672202
 30
0.0
  0
SPLINE
  5
156
100
AcDbEntity
  8
0
 62
7
100
AcDbSpline
 70
8
 71
3
 72
8
 73
4
 74
0
 40
0
 40
0
 40
0
 40
0
 40
1
 40
1
 40
1
 40
1
 10
7.291628
 20
4.672202
 30
0.0
 10
7.370813
 20
4.654315
 30
0.0
 10
7.479367
 20
4.650593
 30
0.0
 10
7.479367
 20
4.665765
 30
0.0
  0
SPLINE
  5
157
100
AcDbEntity
  8
0
 62
7
100
AcDbSpline
 70
8
 71
3
 72
8
 73
4
 74
0
 40
0
 40
0
 40
0
 40
0
 40
1
 40
1
 40
1
 40
1
 10
7.479367
 20
4.665765
 30
0.0
 10
7.479367
 20
4.682986
 30
0.0
 10
7.406091
 20
4.777220
 30
0.0
 10
7.343745
 20
4.840177
 30
0.0
  0
SPLINE
  5
158
100
AcDbEntity
  8
0
 62
7
100
AcDbSpline
 70
8
 71
3
 72
8
 73
4
 74
0
 40
0
 40
0
 40
0
 40
0
 40
1
 40
1
 40
1
 40
1
 10
7.343745
 20
4.840177
 30
0.0
 10
7.267020
 20
4.917651
 30
0.0
 10
7.173217
 20
4.978365
 30
0.0
 10
7.073252
 20
5.015251
 30
0.0
  0
SPLINE
  5
159
100
AcDbEntity
  8
0
 62
7
100
AcDbSpline
 70
8
 71
3
 72
8
 73
4
 74
0
 40
0
 40
0
 40
0
 40
0
 40
1
 40
1
 40
1
 40
1
 10
7.073252
 20
5.015251
 30
0.0
 10
7.007187
 20
5.039629
 30
0.0
 10
6.973413
 20
5.044908
 30
0.0
 10
6.856921
 20
5.049069
 30
0.0
  0
SPLINE
  5
15a
100
AcDbEntity
  8
0
 62
7
100
AcDbSpline
 70
8
 71
3
 72
8
 73
4
 74
0
 40
0
 40
0
 40
0
 40
0
 40
1
 40
1
 40
1
 40
1
 10
6.856921
 20
5.049069
 30
0.0
 10
6.738783
 20
5.053289
 30
0.0
 10
6.707082
 20
5.050740
 30
0.0
 10
6.637086
 20
5.031398
 30
0.0
  0
SPLINE
  5
15b
100
AcDbEntity
  8
0
 62
7
100
AcDbSpline
 70
8
 71
3
 72
8
 73
4
 74
0
 40
0
 40
0
 40
0
 40
0
 40
1
 40
1
 40
1
 40
1
 10
6.637086
 20
5.031398
 30
0.0
 10
6.528153
 20
5.001295
 30
0.0
 10
6.442735
 20
4.956328
 30
0.0
 10
6.354735
 20
4.882757
 30
0.0
  0
SPLINE
  5
15c
100
AcDbEntity
  8
0
 62
7
100
AcDbSpline
 70
8
 71
3
 72
8
 73
4
 74
0
 40
0
 40
0
 40
0
 40
0
 40
1
 40
1
 40
1
 40
1
 10
6.354735
 20
4.882757
 30
0.0
 10
6.282387
 20
4.822273
 30
0.0
 10
6.165158
 20
4.680499
 30
0.0
 10
6.174230
 20
4.664459
 30
0.0
  0
SPLINE
  5
15d
100
AcDbEntity
  8
0
 62
7
100
AcDbSpline
 70
8
 71
3
 72
8
 73
4
 74
0
 40
0
 40
0
 40
0
 40
0
 40
1
 40
1
 40
1
 40
1
 10
6.174230
 20
4.664459
 30
0.0
 10
6.191177
 20
4.634494
 30
0.0
 10
6.408766
 20
4.680888
 30
0.0
 10
6.513750
 20
4.736852
 30
0.0
  0
SPLINE
  5
15e
100
AcDbEntity
  8
0
 62
7
100
AcDbSpline
 70
8
 71
3
 72
8
 73
4
 74
0
 40
0
 40
0
 40
0
 40
0
 40
1
 40
1
 40
1
 40
1
 10
6.513750
 20
4.736852
 30
0.0
 10
6.585402
 20
4.775048
 30
0.0
 10
6.585460
 20
4.776164
 30
0.0
 10
6.510735
 20
4.678508
 30
0.0
  0
SPLINE
  5
15f
100
AcDbEntity
  8
0
 62
7
100
AcDbSpline
 70
8
 71
3
 72
8
 73
4
 74
0
 40
0
 40
0
 40
0
 40
0
 40
1
 40
1
 40
1
 40
1
 10
6.510735
 20
4.678508
 30
0.0
 10
6.391182
 20
4.522267
 30
0.0
 10
6.197050
 20
4.434725
 30
0.0
 10
5.918398
 20
4.411397
 30
0.0
  0
SPLINE
  5
160
100
AcDbEntity
  8
0
 62
7
100
AcDbSpline
 70
8
 71
3
 72
8
 73
4
 74
0
 40
0
 40
0
 40
0
 40
0
 40
1
 40
1
 40
1
 40
1
 10
5.918398
 20
4.411397
 30
0.0
 10
5.843211
 20
4.405103
 30
0.0
 10
5.828029
 20
4.401942
 30
0.0
 10
5.867920
 20
4.400888
 30
0.0
  0
SPLINE
  5
161
100
AcDbEntity
  8
0
 62
7
100
AcDbSpline
 70
8
 71
3
 72
8
 73
4
 74
0
 40
0
 40
0
 40
0
 40
0
 40
1
 40
1
 40
1
 40
1
 10
5.867920
 20
4.400888
 30
0.0
 10
5.967936
 20
4.398247
 30
0.0
 10
6.159424
 20
4.366557
 30
0.0
 10
6.235925
 20
4.339989
 30
0.0
  0
SPLINE
  5
162
100
AcDbEntity
  8
0
 62
7
100
AcDbSpline
 70
8
 71
3
 72
8
 73
4
 74
0
 40
0
 40
0
 40
0
 40
0
 40
1
 40
1
 40
1
 40
1
 10
6.235925
 20
4.339989
 30
0.0
 10
6.405401
 20
4.281130
 30
0.0
 10
6.650463
 20
4.153699
 30
0.0
 10
6.608421
 20
4.146293
 30
0.0
  0
SPLINE
  5
163
100
AcDbEntity
  8
0
 62
7
100
AcDbSpline
 70
8
 71
3
 72
8
 73
4
 74
0
 40
0
 40
0
 40
0
 40
0
 40
1
 40
1
 40
1
 40
1
 10
6.608421
 20
4.146293
 30
0.0
 10
6.600348
 20
4.144870
 30
0.0
 10
6.527687
 20
4.138690
 30
0.0
 10
6.446953
 20
4.132558
 30
0.0
  0
SPLINE
  5
164
100
AcDbEntity
  8
0
 62
7
100
AcDbSpline
 70
8
 71
3
 72
8
 73
4
 74
0
 40
0
 40
0
 40
0
 40
0
 40
1
 40
1
 40
1
 40
1
 10
6.446953
 20
4.132558
 30
0.0
 10
6.291125
 20
4.120723
 30
0.0
 10
6.163780
 20
4.092986
 30
0.0
 10
6.098706
 20
4.056709
 30
0.0
  0
SPLINE
  5
165
100
AcDbEntity
  8
0
 62
7
100
AcDbSpline
 70
8
 71
3
 72
8
 73
4
 74
0
 40
0
 40
0
 40
0
 40
0
 40
1
 40
1
 40
1
 40
1
 10
6.098706
 20
4.056709
 30
0.0
 10
6.061728
 20
4.036093
 30
0.0
 10
6.059541
 20
4.032348
 30
0.0
 10
6.065862
 20
4.000453
 30
0.0
  0
SPLINE
  5
166
100
AcDbEntity
  8
0
 62
7
100
AcDbSpline
 70
8
 71
3
 72
8
 73
4
 74
0
 40
0
 40
0
 40
0
 40
0
 40
1
 40
1
 40
1
 40
1
 10
6.065862
 20
4.000453
 30
0.0
 10
6.081271
 20
3.922700
 30
0.0
 10
6.124857
 20
3.815835
 30
0.0
 10
6.173652
 20
3.736170
 30
0.0
  0
LWPOLYLINE
  5
167
100
AcDbEntity
  8
0
 62
7
100
AcDbPolyline
 90
3
 70
1
 10
8.163189
 20
5.104450
 30
0.0
 10
8.124450
 20
5.038952
 30
0.0
 10
8.150293
 20
5.010712
 30
0.0
  0
SPLINE
  5
168
100
AcDbEntity
  8
0
 62
7
100
AcDbSpline
 70
8
 71
3
 72
8
 73
4
 74
0
 40
0
 40
0
 40
0
 40
0
 40
1
 40
1
 40
1
 40
1
 10
6.167283
 20
3.617424
 30
0.0
 10
6.058893
 20
3.554293
 30
0.0
 10
6.014960
 20
3.473166
 30
0.0
 10
6.023285
 20
3.351510
 30
0.0
  0
SPLINE
  5
169
100
AcDbEntity
  8
0
 62
7
100
AcDbSpline
 70
8
 71
3
 72
8
 73
4
 74
0
 40
0
 40
0
 40
0
 40
0
 40
1
 40
1
 40
1
 40
1
 10
6.023285
 20
3.351510
 30
0.0
 10
6.031426
 20
3.232532
 30
0.0
 10
6.080369
 20
3.180292
 30
0.0
 10
6.183699
 20
3.180292
 30
0.0
  0
SPLINE
  5
16a
100
AcDbEntity
  8
0
 62
7
100
AcDbSpline
 70
8
 71
3
 72
8
 73
4
 74
0
 40
0
 40
0
 40
0
 40
0
 40
1
 40
1
 40
1
 40
1
 10
6.183699
 20
3.180292
 30
0.0
 10
6.288763
 20
3.180292
 30
0.0
 10
6.336119
 20
3.195802
 30
0.0
 10
6.504511
 20
3.285362
 30
0.0
  0
SPLINE
  5
16b
100
AcDbEntity
  8
0
 62
7
100
AcDbSpline
 70
8
 71
3
 72
8
 73
4
 74
0
 40
0
 40
0
 40
0
 40
0
 40
1
 40
1
 40
1
 40
1
 10
6.504511
 20
3.285362
 30
0.0
 10
6.509256
 20
3.287885
 30
0.0
 10
6.500824
 20
3.265226
 30
0.0
 10
6.485773
 20
3.235006
 30
0.0
  0
SPLINE
  5
16c
100
AcDbEntity
  8
0
 62
7
100
AcDbSpline
 70
8
 71
3
 72
8
 73
4
 74
0
 40
0
 40
0
 40
0
 40
0
 40
1
 40
1
 40
1
 40
1
 10
6.485773
 20
3.235006
 30
0.0
 10
6.449681
 20
3.162543
 30
0.0
 10
6.367645
 20
3.079082
 30
0.0
 10
6.297744
 20
3.043712
 30
0.0
  0
SPLINE
  5
16d
100
AcDbEntity
  8
0
 62
7
100
AcDbSpline
 70
8
 71
3
 72
8
 73
4
 74
0
 40
0
 40
0
 40
0
 40
0
 40
1
 40
1
 40
1
 40
1
 10
6.297744
 20
3.043712
 30
0.0
 10
6.222069
 20
3.005421
 30
0.0
 10
6.066173
 20
2.998332
 30
0.0
 10
5.980143
 20
3.029270
 30
0.0
  0
LWPOLYLINE
  5
16e
100
AcDbEntity
  8
0
 62
7
100
AcDbPolyline
 90
3
 70
1
 10
6.173652
 20
3.736170
 30
0.0
 10
6.225586
 20
3.651382
 30
0.0
 10
6.167283
 20
3.617424
 30
0.0
  0
SPLINE
  5
16f
100
AcDbEntity
  8
0
 62
7
100
AcDbSpline
 70
8
 71
3
 72
8
 73
4
 74
0
 40
0
 40
0
 40
0
 40
0
 40
1
 40
1
 40
1
 40
1
 10
6.231663
 20
5.800523
 30
0.0
 10
6.181756
 20
5.828102
 30
0.0
 10
6.156678
 20
5.866058
 30
0.0
 10
6.151509
 20
5.921838
 30
0.0
  0
SPLINE
  5
170
100
AcDbEntity
  8
0
 62
7
100
AcDbSpline
 70
8
 71
3
 72
8
 73
4
 74
0
 40
0
 40
0
 40
0
 40
0
 40
1
 40
1
 40
1
 40
1
 10
6.151509
 20
5.921838
 30
0.0
 10
6.140612
 20
6.039433
 30
0.0
 10
6.251177
 20
6.123013
 30
0.0
 10
6.349907
 20
6.071816
 30
0.0
  0
SPLINE
  5
171
100
AcDbEntity
  8
0
 62
7
100
AcDbSpline
 70
8
 71
3
 72
8
 73
4
 74
0
 40
0
 40
0
 40
0
 40
0
 40
1
 40
1
 40
1
 40
1
 10
6.349907
 20
6.071816
 30
0.0
 10
6.408710
 20
6.041324
 30
0.0
 10
6.439924
 20
5.951997
 30
0.0
 10
6.418069
 20
5.876751
 30
0.0
  0
SPLINE
  5
172
100
AcDbEntity
  8
0
 62
7
100
AcDbSpline
 70
8
 71
3
 72
8
 73
4
 74
0
 40
0
 40
0
 40
0
 40
0
 40
1
 40
1
 40
1
 40
1
 10
6.418069
 20
5.876751
 30
0.0
 10
6.410483
 20
5.850631
 30
0.0
 10
6.393131
 20
5.845605
 30
0.0
 10
6.393131
 20
5.869527
 30
0.0
  0
SPLINE
  5
173
100
AcDbEntity
  8
0
 62
7
100
AcDbSpline
 70
8
 71
3
 72
8
 73
4
 74
0
 40
0
 40
0
 40
0
 40
0
 40
1
 40
1
 40
1
 40
1
 10
6.393131
 20
5.869527
 30
0.0
 10
6.393131
 20
5.896547
 30
0.0
 10
6.350374
 20
5.919931
 30
0.0
 10
6.322297
 20
5.908265
 30
0.0
  0
SPLINE
  5
174
100
AcDbEntity
  8
0
 62
7
100
AcDbSpline
 70
8
 71
3
 72
8
 73
4
 74
0
 40
0
 40
0
 40
0
 40
0
 40
1
 40
1
 40
1
 40
1
 10
6.322297
 20
5.908265
 30
0.0
 10
6.279970
 20
5.890680
 30
0.0
 10
6.276325
 20
5.818970
 30
0.0
 10
6.317040
 20
5.804849
 30
0.0
  0
SPLINE
  5
175
100
AcDbEntity
  8
0
 62
7
100
AcDbSpline
 70
8
 71
3
 72
8
 73
4
 74
0
 40
0
 40
0
 40
0
 40
0
 40
1
 40
1
 40
1
 40
1
 10
6.317040
 20
5.804849
 30
0.0
 10
6.333065
 20
5.799291
 30
0.0
 10
6.334334
 20
5.795919
 30
0.0
 10
6.323476
 20
5.787752
 30
0.0
  0
SPLINE
  5
176
100
AcDbEntity
  8
0
 62
7
100
AcDbSpline
 70
8
 71
3
 72
8
 73
4
 74
0
 40
0
 40
0
 40
0
 40
0
 40
1
 40
1
 40
1
 40
1
 10
6.323476
 20
5.787752
 30
0.0
 10
6.302188
 20
5.771740
 30
0.0
 10
6.372242
 20
5.788799
 30
0.0
 10
6.419314
 20
5.811089
 30
0.0
  0
SPLINE
  5
177
100
AcDbEntity
  8
0
 62
7
100
AcDbSpline
 70
8
 71
3
 72
8
 73
4
 74
0
 40
0
 40
0
 40
0
 40
0
 40
1
 40
1
 40
1
 40
1
 10
6.419314
 20
5.811089
 30
0.0
 10
6.576952
 20
5.885737
 30
0.0
 10
6.648026
 20
6.103650
 30
0.0
 10
6.572122
 20
6.279599
 30
0.0
  0
SPLINE
  5
178
100
AcDbEntity
  8
0
 62
7
100
AcDbSpline
 70
8
 71
3
 72
8
 73
4
 74
0
 40
0
 40
0
 40
0
 40
0
 40
1
 40
1
 40
1
 40
1
 10
6.572122
 20
6.279599
 30
0.0
 10
6.548245
 20
6.334950
 30
0.0
 10
6.475297
 20
6.411276
 30
0.0
 10
6.417595
 20
6.441284
 30
0.0
  0
SPLINE
  5
179
100
AcDbEntity
  8
0
 62
7
100
AcDbSpline
 70
8
 71
3
 72
8
 73
4
 74
0
 40
0
 40
0
 40
0
 40
0
 40
1
 40
1
 40
1
 40
1
 10
6.417595
 20
6.441284
 30
0.0
 10
6.345130
 20
6.478969
 30
0.0
 10
6.232456
 20
6.478433
 30
0.0
 10
6.156821
 20
6.440045
 30
0.0
  0
SPLINE
  5
17a
100
AcDbEntity
  8
0
 62
7
100
AcDbSpline
 70
8
 71
3
 72
8
 73
4
 74
0
 40
0
 40
0
 40
0
 40
0
 40
1
 40
1
 40
1
 40
1
 10
6.156821
 20
6.440045
 30
0.0
 10
6.089476
 20
6.405863
 30
0.0
 10
6.032523
 20
6.345594
 30
0.0
 10
6.001151
 20
6.275313
 30
0.0
  0
SPLINE
  5
17b
100
AcDbEntity
  8
0
 62
7
100
AcDbSpline
 70
8
 71
3
 72
8
 73
4
 74
0
 40
0
 40
0
 40
0
 40
0
 40
1
 40
1
 40
1
 40
1
 10
6.001151
 20
6.275313
 30
0.0
 10
5.970211
 20
6.205999
 30
0.0
 10
5.963729
 20
6.090752
 30
0.0
 10
5.986548
 20
6.015678
 30
0.0
  0
SPLINE
  5
17c
100
AcDbEntity
  8
0
 62
7
100
AcDbSpline
 70
8
 71
3
 72
8
 73
4
 74
0
 40
0
 40
0
 40
0
 40
0
 40
1
 40
1
 40
1
 40
1
 10
5.986548
 20
6.015678
 30
0.0
 10
6.017352
 20
5.914330
 30
0.0
 10
6.098763
 20
5.825630
 30
0.0
 10
6.189322
 20
5.794747
 30
0.0
  0
SPLINE
  5
17d
100
AcDbEntity
  8
0
 62
7
100
AcDbSpline
 70
8
 71
3
 72
8
 73
4
 74
0
 40
0
 40
0
 40
0
 40
0
 40
1
 40
1
 40
1
 40
1
 10
6.189322
 20
5.794747
 30
0.0
 10
6.254626
 20
5.772477
 30
0.0
 10
6.276915
 20
5.775519
 30
0.0
 10
6.231663
 20
5.800524
 30
0.0
  0
LWPOLYLINE
  5
17e
100
AcDbEntity
  8
0
 62
7
100
AcDbPolyline
 90
2
 70
1
 10
5.980143
 20
3.029270
 30
0.0
 10
5.980143
 20
3.029270
 30
0.0
  0
SPLINE
  5
17f
100
AcDbEntity
  8
0
 62
7
100
AcDbSpline
 70
8
 71
3
 72
8
 73
4
 74
0
 40
0
 40
0
 40
0
 40
0
 40
1
 40
1
 40
1
 40
1
 10
7.303220
 20
5.789570
 30
0.0
 10
7.290614
 20
5.798473
 30
0.0
 10
7.290910
 20
5.799960
 30
0.0
 10
7.305323
 20
5.800100
 30
0.0
  0
SPLINE
  5
180
100
AcDbEntity
  8
0
 62
7
100
AcDbSpline
 70
8
 71
3
 72
8
 73
4
 74
0
 40
0
 40
0
 40
0
 40
0
 40
1
 40
1
 40
1
 40
1
 10
7.305323
 20
5.800100
 30
0.0
 10
7.314552
 20
5.800185
 30
0.0
 10
7.327037
 20
5.810336
 30
0.0
 10
7.333066
 20
5.822647
 30
0.0
  0
SPLINE
  5
181
100
AcDbEntity
  8
0
 62
7
100
AcDbSpline
 70
8
 71
3
 72
8
 73
4
 74
0
 40
0
 40
0
 40
0
 40
0
 40
1
 40
1
 40
1
 40
1
 10
7.333066
 20
5.822647
 30
0.0
 10
7.360317
 20
5.878291
 30
0.0
 10
7.305530
 20
5.936022
 30
0.0
 10
7.257863
 20
5.901892
 30
0.0
  0
SPLINE
  5
182
100
AcDbEntity
  8
0
 62
7
100
AcDbSpline
 70
8
 71
3
 72
8
 73
4
 74
0
 40
0
 40
0
 40
0
 40
0
 40
1
 40
1
 40
1
 40
1
 10
7.257863
 20
5.901892
 30
0.0
 10
7.245134
 20
5.892778
 30
0.0
 10
7.234563
 20
5.874605
 30
0.0
 10
7.234372
 20
5.861507
 30
0.0
  0
SPLINE
  5
183
100
AcDbEntity
  8
0
 62
7
100
AcDbSpline
 70
8
 71
3
 72
8
 73
4
 74
0
 40
0
 40
0
 40
0
 40
0
 40
1
 40
1
 40
1
 40
1
 10
7.234372
 20
5.861507
 30
0.0
 10
7.233653
 20
5.812031
 30
0.0
 10
7.206072
 20
5.888647
 30
0.0
 10
7.205708
 20
5.941136
 30
0.0
  0
SPLINE
  5
184
100
AcDbEntity
  8
0
 62
7
100
AcDbSpline
 70
8
 71
3
 72
8
 73
4
 74
0
 40
0
 40
0
 40
0
 40
0
 40
1
 40
1
 40
1
 40
1
 10
7.205708
 20
5.941136
 30
0.0
 10
7.204938
 20
6.052254
 30
0.0
 10
7.322010
 20
6.125297
 30
0.0
 10
7.408509
 20
6.067666
 30
0.0
  0
SPLINE
  5
185
100
AcDbEntity
  8
0
 62
7
100
AcDbSpline
 70
8
 71
3
 72
8
 73
4
 74
0
 40
0
 40
0
 40
0
 40
0
 40
1
 40
1
 40
1
 40
1
 10
7.408509
 20
6.067666
 30
0.0
 10
7.505387
 20
6.003118
 30
0.0
 10
7.501002
 20
5.860191
 30
0.0
 10
7.400355
 20
5.801923
 30
0.0
  0
LWPOLYLINE
  5
186
100
AcDbEntity
  8
0
 62
7
100
AcDbPolyline
 90
2
 70
1
 10
6.231663
 20
5.800524
 30
0.0
 10
6.231663
 20
5.800523
 30
0.0
  0
SPLINE
  5
187
100
AcDbEntity
  8
0
 62
7
100
AcDbSpline
 70
8
 71
3
 72
8
 73
4
 74
0
 40
0
 40
0
 40
0
 40
0
 40
1
 40
1
 40
1
 40
1
 10
7.396187
 20
5.784054
 30
0.0
 10
7.495883
 20
5.802408
 30
0.0
 10
7.578656
 20
5.870869
 30
0.0
 10
7.625801
 20
5.973966
 30
0.0
  0
SPLINE
  5
188
100
AcDbEntity
  8
0
 62
7
100
AcDbSpline
 70
8
 71
3
 72
8
 73
4
 74
0
 40
0
 40
0
 40
0
 40
0
 40
1
 40
1
 40
1
 40
1
 10
7.625801
 20
5.973966
 30
0.0
 10
7.651638
 20
6.030468
 30
0.0
 10
7.655485
 20
6.050226
 30
0.0
 10
7.655298
 20
6.125458
 30
0.0
  0
SPLINE
  5
189
100
AcDbEntity
  8
0
 62
7
100
AcDbSpline
 70
8
 71
3
 72
8
 73
4
 74
0
 40
0
 40
0
 40
0
 40
0
 40
1
 40
1
 40
1
 40
1
 10
7.655298
 20
6.125458
 30
0.0
 10
7.654951
 20
6.265490
 30
0.0
 10
7.600031
 20
6.365643
 30
0.0
 10
7.487527
 20
6.431415
 30
0.0
  0
SPLINE
  5
18a
100
AcDbEntity
  8
0
 62
7
100
AcDbSpline
 70
8
 71
3
 72
8
 73
4
 74
0
 40
0
 40
0
 40
0
 40
0
 40
1
 40
1
 40
1
 40
1
 10
7.487527
 20
6.431415
 30
0.0
 10
7.430802
 20
6.464577
 30
0.0
 10
7.418489
 20
6.467622
 30
0.0
 10
7.342364
 20
6.467314
 30
0.0
  0
SPLINE
  5
18b
100
AcDbEntity
  8
0
 62
7
100
AcDbSpline
 70
8
 71
3
 72
8
 73
4
 74
0
 40
0
 40
0
 40
0
 40
0
 40
1
 40
1
 40
1
 40
1
 10
7.342364
 20
6.467314
 30
0.0
 10
7.276859
 20
6.467060
 30
0.0
 10
7.249543
 20
6.461911
 30
0.0
 10
7.213815
 20
6.443134
 30
0.0
  0
SPLINE
  5
18c
100
AcDbEntity
  8
0
 62
7
100
AcDbSpline
 70
8
 71
3
 72
8
 73
4
 74
0
 40
0
 40
0
 40
0
 40
0
 40
1
 40
1
 40
1
 40
1
 10
7.213815
 20
6.443134
 30
0.0
 10
7.143978
 20
6.406432
 30
0.0
 10
7.092200
 20
6.351642
 30
0.0
 10
7.059242
 20
6.279567
 30
0.0
  0
SPLINE
  5
18d
100
AcDbEntity
  8
0
 62
7
100
AcDbSpline
 70
8
 71
3
 72
8
 73
4
 74
0
 40
0
 40
0
 40
0
 40
0
 40
1
 40
1
 40
1
 40
1
 10
7.059242
 20
6.279567
 30
0.0
 10
7.033114
 20
6.222432
 30
0.0
 10
7.029228
 20
6.202669
 30
0.0
 10
7.029311
 20
6.127389
 30
0.0
  0
SPLINE
  5
18e
100
AcDbEntity
  8
0
 62
7
100
AcDbSpline
 70
8
 71
3
 72
8
 73
4
 74
0
 40
0
 40
0
 40
0
 40
0
 40
1
 40
1
 40
1
 40
1
 10
7.029311
 20
6.127389
 30
0.0
 10
7.029423
 20
6.029546
 30
0.0
 10
7.051783
 20
5.962143
 30
0.0
 10
7.106899
 20
5.893545
 30
0.0
  0
SPLINE
  5
18f
100
AcDbEntity
  8
0
 62
7
100
AcDbSpline
 70
8
 71
3
 72
8
 73
4
 74
0
 40
0
 40
0
 40
0
 40
0
 40
1
 40
1
 40
1
 40
1
 10
7.106899
 20
5.893545
 30
0.0
 10
7.154267
 20
5.834591
 30
0.0
 10
7.245107
 20
5.781939
 30
0.0
 10
7.303221
 20
5.779756
 30
0.0
  0
SPLINE
  5
190
100
AcDbEntity
  8
0
 62
7
100
AcDbSpline
 70
8
 71
3
 72
8
 73
4
 74
0
 40
0
 40
0
 40
0
 40
0
 40
1
 40
1
 40
1
 40
1
 10
7.303221
 20
5.779756
 30
0.0
 10
7.316268
 20
5.779265
 30
0.0
 10
7.316268
 20
5.780357
 30
0.0
 10
7.303221
 20
5.789570
 30
0.0
  0
LWPOLYLINE
  5
191
100
AcDbEntity
  8
0
 62
7
100
AcDbPolyline
 90
3
 70
1
 10
7.400355
 20
5.801923
 30
0.0
 10
7.357043
 20
5.776848
 30
0.0
 10
7.396187
 20
5.784054
 30
0.0
  0
LWPOLYLINE
  5
192
100
AcDbEntity
  8
0
 62
7
100
AcDbPolyline
 90
2
 70
1
 10
7.303221
 20
5.789570
 30
0.0
 10
7.303220
 20
5.789570
 30
0.0
  0
ENDSEC
  0
SECTION
  2
OBJECTS
  0
DICTIONARY
  5
C
330
0
100
AcDbDictionary
  3
ACAD_GROUP
350
D
  3
ACAD_MLINESTYLE
350
17
  0
DICTIONARY
  5
D
330
C
100
AcDbDictionary
  0
DICTIONARY
  5
1A
330
C
100
AcDbDictionary
  0
DICTIONARY
  5
17
330
C
100
AcDbDictionary
  3
STANDARD
350
18
  0
DICTIONARY
  5
19
330
C
100
AcDbDictionary
  0
ENDSEC
  0
EOF
